<ttFont>
          <CharString index="0">
            -27 -130 -34 -131 -105 callsubr
            return
          </CharString>
          <CharString index="1">
            -37 -10 -9 -15 -15 10 -9 37 hvcurveto
            return
          </CharString>
          <CharString index="2">
            -21 -105 callgsubr
            return
          </CharString>
          <CharString index="3">
            rmoveto
            -106 callsubr
            return
          </CharString>
          <CharString index="4">
            rmoveto
            -6 -34 -8 -35 -7 -37 rrcurveto
            -129 -38 -210 -137 -141 hhcurveto
            102 63 97 106 114 vvcurveto
            37 -9 31 -19 21 vhcurveto
            return
          </CharString>
          <CharString index="5">
            -93 callsubr
            33 31 7 11 29 hvcurveto
            return
          </CharString>
          <CharString index="6">
            -106 callsubr
            80 -102 callsubr
            return
          </CharString>
          <CharString index="7">
            hlineto
            -16 -83 -20 -90 -20 -96 rrcurveto
            -107 callsubr
            return
          </CharString>
          <CharString index="8">
            -2 callsubr
            vhcurveto
            -3 -81 -25 -40 -27 31 callgsubr
            39 50 callgsubr
            20 86 30 134 4 40 rrcurveto
            117 -107 callgsubr
          </CharString>
          <CharString index="9">
            -112 57 -96 88 46 43 25 23 12 -5 10 -18 vhcurveto
            -23 -7 -21 -42 hhcurveto
            -56 -35 65 93 108 81 92 90 53 19 -54 -40 hvcurveto
            -53 -15 -14 -27 vvcurveto
            -11 6 -9 11 vhcurveto
            return
          </CharString>
          <CharString index="10">
            2 hlineto
            -9 -33 -7 -33 -7 -28 rrcurveto
            -41 -10 -26 -25 -28 vvcurveto
            -20 18 -17 29 22 15 26 37 13 vhcurveto
            2 3 0 3 hhcurveto
            27 24 -30 -27 -51 -75 -35 -115 hvcurveto
            -104 -50 44 -25 hhcurveto
            -12 -5 -3 -10 -30 101 -46 101 135 92 54 81 45 -42 46 -48 3 hvcurveto
            6 21 6 22 6 23 7 26 rcurveline
            91 10 79 39 68 243 callgsubr
            -37 -65 -75 -25 -59 callsubr
          </CharString>
          <CharString index="11">
            -51 -37 72 44 41 36 17 57 34 30 -5 -4 22 hvcurveto
            -90 -14 -27 -75 -50 hhcurveto
            -80 471 rmoveto
            -80 callgsubr
            return
          </CharString>
          <CharString index="12">
            -112 55 -96 94 46 43 25 23 12 -6 7 -14 vhcurveto
            -94 callgsubr
          </CharString>
          <CharString index="13">
            rmoveto
            78 callgsubr
            75 46 -50 -66 -10 -1 -11 -2 -10 hvcurveto
            -9 -29 -35 -6 -35 hhcurveto
            -260 -119 rmoveto
            0 vlineto
            -1 vlineto
            -3 1 -3 1 -4 vhcurveto
            11 -39 60 -90 37 -51 93 callsubr
            -101 -50 -60 -67 -65 58 -68 107 28 29 4 7 29 hvcurveto
            21 callsubr
            return
          </CharString>
          <CharString index="14">
            -64 callgsubr
            -29 212 -282 34 -86 callsubr
            return
          </CharString>
          <CharString index="15">
            -19 -119 -16 -100 -19 -55 callsubr
            31 18 156 140 25 vhcurveto
            53 86 71 47 41 hhcurveto
            23 6 -26 -31 -130 -35 -79 -69 -8 -8 -2 -7 -11 21 -27 19 76 54 133 124 69 -22 36 -62 -41 -72 -45 -43 -68 hvcurveto
            16 87 18 105 3 27 41 callsubr
          </CharString>
          <CharString index="16">
            78 12 88 12 73 20 -11 -51 -87 callsubr
          </CharString>
          <CharString index="17">
            -100 callsubr
            118 -106 callgsubr
            endchar
          </CharString>
          <CharString index="18">
            hlineto
            -1 -9 0 -12 -13 vvcurveto
            -50 -2 -65 -6 -62 vhcurveto
            6 -32 -29 2 -38 hhcurveto
            -77 -58 -29 -62 -77 61 -96 77 107 46 171 193 56 -1 31 -2 16 hvcurveto
            return
          </CharString>
          <CharString index="19">
            184 callsubr
            -67 -35 -92 -27 -93 -19 rrcurveto
            40 41 27 53 48 vvcurveto
            77 -46 48 -82 -66 -78 -56 -57 -15 9 -12 12 9 7 5 7 4 vhcurveto
            6 10 0 9 14 18 rrcurveto
            19 15 42 20 30 hhcurveto
            50 25 -27 -49 -60 -46 -56 -56 -34 hvcurveto
            7 -25 -27 4 -27 hhcurveto
            -35 -25 -10 -17 -17 25 -37 28 29 30 8 13 28 hvcurveto
            36 -17 22 -30 -34 vvcurveto
            -65 -53 -51 -95 -99 -49 34 82 12 -3 14 -14 -22 -10 -22 -26 -80 73 -66 121 124 83 70 98 37 -16 31 -27 24 vhcurveto
            81 12 94 22 76 28 -17 callsubr
            return
          </CharString>
          <CharString index="20">
            rcurveline
            -27 -130 -34 -131 -21 -24 callsubr
          </CharString>
          <CharString index="21">
            8 callsubr
            -67 83 -39 53 hvcurveto
            -17 23 -17 27 -17 24 rrcurveto
            1 hlineto
            return
          </CharString>
          <CharString index="22">
            114 -39 callgsubr
            15 -58 callsubr
            return
          </CharString>
          <CharString index="23">
            -13 -44 -6 -43 -33 vvcurveto
            -69 9 -41 22 20 -13 60 93 16 vhcurveto
            -74 callsubr
            128 -107 callgsubr
          </CharString>
          <CharString index="24">
            -77 callgsubr
            187 -107 callgsubr
          </CharString>
          <CharString index="25">
            310 callgsubr
            80 76 9 -3 9 -4 10 vhcurveto
            -75 callgsubr
          </CharString>
          <CharString index="26">
            184 callsubr
            -65 -34 -90 -27 -91 -19 rrcurveto
            33 41 19 51 46 vvcurveto
            66 -28 62 -80 -67 -47 -55 -43 -22 9 -16 14 12 4 7 11 3 vhcurveto
            3 11 4 14 12 14 rrcurveto
            15 12 18 12 25 hhcurveto
            40 17 -33 -46 -59 -29 -51 -55 -35 hvcurveto
            7 -22 -25 3 -26 hhcurveto
            -35 -25 -10 -17 -17 25 -37 28 30 28 7 12 25 hvcurveto
            6 -3 5 -3 4 -4 rrcurveto
            21 -18 11 -18 -32 vvcurveto
            -76 -98 -42 -119 -105 -89 43 88 vhcurveto
            53 13 14 27 vvcurveto
            10 -4 6 -12 -36 -19 -59 -50 -108 107 -76 142 156 120 68 102 37 -14 30 -23 23 vhcurveto
            80 13 91 22 74 27 -17 callsubr
            return
          </CharString>
          <CharString index="27">
            372 -86 callgsubr
            return
          </CharString>
          <CharString index="28">
            hhcurveto
            -134 -152 -20 -84 -76 112 -124 74 72 33 82 80 32 -1 37 -7 25 hvcurveto
            25 hlineto
            return
          </CharString>
          <CharString index="29">
            rmoveto
            -79 callgsubr
            return
          </CharString>
          <CharString index="30">
            hlineto
            -75 callsubr
            return
          </CharString>
          <CharString index="31">
            -42 -82 callgsubr
            -44 -32 24 hvcurveto
            return
          </CharString>
          <CharString index="32">
            -10 -9 -5 -8 -6 vvcurveto
            -13 22 -16 11 13 4 12 11 14 vhcurveto
            9 12 16 9 25 hhcurveto
            47 26 -26 -62 167 callsubr
            return
          </CharString>
          <CharString index="33">
            5 26 6 27 8 26 rrcurveto
            92 9 82 39 69 vvcurveto
            43 -22 29 -49 -63 -47 -65 -75 -30 vhcurveto
            -4 hlineto
            -98 callgsubr
            return
          </CharString>
          <CharString index="34">
            vvcurveto
            -9 20 -16 8 14 44 183 133 31 vhcurveto
            -50 callgsubr
          </CharString>
          <CharString index="35">
            rmoveto
            -131 -37 -82 -101 -69 hhcurveto
            -29 -35 21 31 100 144 215 79 33 13 -48 -41 -10 0 -8 1 -7 hvcurveto
            -10 -3 -6 -8 -2 -10 rrcurveto
            -34 194 rmoveto
            -119 -161 -243 -130 -57 69 -55 62 62 69 64 69 39 hvcurveto
            -76 2 -57 25 20 -5 55 62 11 vhcurveto
            14 77 3 50 30 vvcurveto
            10 -3 9 -6 7 vhcurveto
            11 15 11 24 22 vvcurveto
            319 callsubr
            vhcurveto
            return
          </CharString>
          <CharString index="36">
            61 callgsubr
            -91 callsubr
          </CharString>
          <CharString index="37">
            -48 callsubr
            -6 -26 rcurveline
            67 -17 -37 74 -57 hhcurveto
            return
          </CharString>
          <CharString index="38">
            -97 callgsubr
            117 -107 callgsubr
          </CharString>
          <CharString index="39">
            vvcurveto
            198 callgsubr
            vhcurveto
            -83 callsubr
          </CharString>
          <CharString index="40">
            hhcurveto
            14 44 183 133 31 hvcurveto
            -103 callgsubr
            return
          </CharString>
          <CharString index="41">
            hlineto
            -98 callgsubr
            158 -107 callgsubr
          </CharString>
          <CharString index="42">
            rlineto
            -27 -130 -34 -131 -21 -73 callsubr
          </CharString>
          <CharString index="43">
            rrcurveto
            -76 callgsubr
            return
          </CharString>
          <CharString index="44">
            hlineto
            -10 -56 -13 -59 -13 -61 rrcurveto
            -39 -41 -62 -27 -63 -40 -30 22 -28 hhcurveto
            -12 -8 -6 -34 callgsubr
            return
          </CharString>
          <CharString index="45">
            636 -104 callsubr
            return
          </CharString>
          <CharString index="46">
            rmoveto
            -33 -65 -71 -16 -67 -49 callgsubr
            345 hlineto
            -12 -65 -15 -68 -16 -73 rrcurveto
            35 -29 -51 30 -63 hhcurveto
            -86 -48 -49 -60 -65 65 -55 85 hvcurveto
            112 91 rmoveto
            -1 -5 rlineto
            -20 -7 -45 -25 -48 36 callgsubr
            hvcurveto
            return
          </CharString>
          <CharString index="47">
            -5 -31 -3 -31 -25 vvcurveto
            -21 1 -21 3 -20 vhcurveto
            14 -23 -29 10 -27 hhcurveto
            -81 -137 -109 -24 -8 5 -4 8 17 17 25 35 59 hvcurveto
            25 42 34 19 37 hhcurveto
            21 35 -9 -26 33 hvcurveto
            -4 5 4 -5 7 hhcurveto
            0 vlineto
            10 2 16 24 hvcurveto
            20 -3 11 44 vvcurveto
            30 4 34 7 33 vhcurveto
            92 11 82 45 61 vvcurveto
            43 -22 29 -49 -69 -42 -66 -74 -22 vhcurveto
            -11 212 callsubr
            48 20 -28 -4 23 hvcurveto
            3 hlineto
            147 callgsubr
            1 1 0 1 2 hvcurveto
            8 2 4 6 2 9 rrcurveto
            1 3 0 3 2 vvcurveto
            2 vlineto
            5 vlineto
            120 29 42 12 27 vhcurveto
            149 -107 callgsubr
          </CharString>
          <CharString index="48">
            vhcurveto
            -16 -66 callsubr
          </CharString>
          <CharString index="49">
            hlineto
            -16 -83 -20 -54 callsubr
            return
          </CharString>
          <CharString index="50">
            rmoveto
            35 -31 33 -15 -12 -2 -5 -24 vhcurveto
            -144 -86 -195 -143 vvcurveto
            -97 58 -86 85 156 160 233 365 71 -39 25 -17 -11 -3 -3 -13 vhcurveto
            -30 7 -40 -60 vvcurveto
            -272 -151 -220 -95 -54 -37 53 88 vhcurveto
            101 87 234 94 vvcurveto
            return
          </CharString>
          <CharString index="51">
            rmoveto
            -18 -53 -28 -78 -79 hvcurveto
            66 -86 -12 74 -32 hhcurveto
            -12 -11 -11 -16 -55 131 -113 19 20 28 35 29 39 hvcurveto
            43 32 48 15 30 vvcurveto
            12 -9 8 -16 vhcurveto
            return
          </CharString>
          <CharString index="52">
            vvcurveto
            -10 12 -11 8 return
          </CharString>
          <CharString index="53">
            -90 -20 -96 rrcurveto
            -33 callsubr
            return
          </CharString>
          <CharString index="54">
            rmoveto
            -79 64 -108 88 178 188 264 186 120 -77 119 -105 -141 -195 -254 -248 vhcurveto
            338 442 rmoveto
            52 63 -67 -124 -151 -181 -231 -111 -49 -52 52 88 204 190 229 88 hvcurveto
            return
          </CharString>
          <CharString index="55">
            139 callsubr
            33 -66 52 -77 45 -51 rrcurveto
            -29 -46 -51 -24 -52 hhcurveto
            -34 -11 27 39 hvcurveto
            return
          </CharString>
          <CharString index="56">
            hhcurveto
            -13 -5 4 9 45 75 78 57 39 hvcurveto
            21 14 24 18 13 vvcurveto
            11 -6 6 -13 vhcurveto
            -1 hlineto
            -8 callsubr
            108 113 89 86 45 -26 22 -45 return
          </CharString>
          <CharString index="57">
            rrcurveto
            -161 -225 rmoveto
            -32 -44 58 39 37 66 18 88 15 hvcurveto
            -92 -14 -24 -75 -40 hhcurveto
            return
          </CharString>
          <CharString index="58">
            rmoveto
            -42 57 -54 91 -34 71 rrcurveto
            25 24 25 16 23 hhcurveto
            59 32 -104 -108 22 hvcurveto
            -16 -17 -19 -16 -20 -15 rrcurveto
            -231 -15 rmoveto
            54 29 77 38 58 vhcurveto
            33 -67 53 -78 46 -52 rrcurveto
            -34 -53 -57 -24 -43 hhcurveto
            -34 -12 24 42 hvcurveto
            return
          </CharString>
          <CharString index="59">
            -106 callsubr
            336 hlineto
            -20 -90 -15 -83 -21 -96 return
          </CharString>
          <CharString index="60">
            rmoveto
            -60 -75 -94 -265 -154 hvcurveto
            34 94 35 153 55 vvcurveto
            30 -25 28 -17 -13 -5 -16 -31 -47 -12 -93 -18 -77 vhcurveto
            -19 -82 -31 -85 -9 vvcurveto
            -24 22 -22 14 11 47 87 83 56 vhcurveto
            145 96 61 103 45 hhcurveto
            14 25 -22 -34 -34 -13 -54 -18 -60 hvcurveto
            -29 -94 -33 -68 -32 vvcurveto
            -13 5 -7 11 31 34 89 113 37 vhcurveto
            21 64 12 57 43 vvcurveto
            60 -57 59 -32 vhcurveto
            endchar
          </CharString>
          <CharString index="61">
            hlineto
            -106 callsubr
            return
          </CharString>
          <CharString index="62">
            167 callsubr
            4 -7 -7 3 -6 269 callgsubr
            -14 53 -78 57 -74 hvcurveto
            -74 58 61 -71 33 callgsubr
            return
          </CharString>
          <CharString index="63">
            157 callsubr
            252 -42 -100 -16 callgsubr
            return
          </CharString>
          <CharString index="64">
            -1 vlineto
            -26 50 -15 -27 vvcurveto
            -58 -91 -54 -99 -33 -19 18 41 77 38 92 89 31 vhcurveto
            11 4 11 2 6 vvcurveto
            10 -32 19 -17 return
          </CharString>
          <CharString index="65">
            rmoveto
            31 -26 -9 15 -26 hhcurveto
            -19 -42 -29 -27 -47 hvcurveto
            -49 -28 -19 -18 -26 vvcurveto
            -16 14 -7 11 32 52 63 36 70 vhcurveto
            -45 35 34 -64 33 hhcurveto
            14 9 6 11 18 -32 38 -35 42 hvcurveto
            return
          </CharString>
          <CharString index="66">
            -27 callgsubr
            -98 451 -104 callsubr
            203 -14 hlineto
            -50 -2 -65 -6 -62 vhcurveto
            6 -32 -29 2 -38 hhcurveto
            -77 -58 -29 -62 -77 61 -96 77 107 46 171 193 38 0 27 -1 18 hvcurveto
            return
          </CharString>
          <CharString index="67">
            89 callsubr
            -37 -44 -21 -59 -8 hvcurveto
            51 19 23 38 34 hhcurveto
            -255 -379 rmoveto
            -19 -45 39 33 19 12 8 19 26 29 -19 -26 31 hvcurveto
            -33 -15 -17 -21 -21 hhcurveto
            return
          </CharString>
          <CharString index="68">
            -30 callgsubr
            34 90 7 102 10 hvcurveto
            -86 -32 -46 -64 -41 hhcurveto
            return
          </CharString>
          <CharString index="69">
            hlineto
            -42 callgsubr
            return
          </CharString>
          <CharString index="70">
            -103 callgsubr
            122 -107 callgsubr
          </CharString>
          <CharString index="71">
            rmoveto
            40 143 16 84 35 vvcurveto
            8 -1 9 -3 7 vhcurveto
            11 32 44 15 51 hhcurveto
            68 54 -22 -50 -137 -264 -53 -37 -50 hvcurveto
            -4 -14 rmoveto
            -78 8 246 -221 65 hhcurveto
            16 4 4 11 20 -58 40 -55 47 hvcurveto
            -65 57 -95 87 26 26 297 50 180 vvcurveto
            98 -92 40 -110 -74 -108 -32 -27 -14 12 -17 12 -6 vhcurveto
            -13 -149 -113 -333 -67 vvcurveto
            -22 20 -21 13 9 37 145 123 35 vhcurveto
            return
          </CharString>
          <CharString index="72">
            512 rmoveto
            -3 -15 rlineto
            -120 -29 -114 -133 -94 hhcurveto
            -25 -20 41 74 84 14 77 25 68 hvcurveto
            261 hlineto
            -5 -25 -5 -25 -5 -26 rrcurveto
            return
          </CharString>
          <CharString index="73">
            rmoveto
            48 9 57 14 53 vhcurveto
            47 -84 81 -110 46 -55 rrcurveto
            -23 -39 -48 -21 -53 hhcurveto
            -41 -16 69 66 hvcurveto
            -91 277 -12 callsubr
            return
          </CharString>
          <CharString index="74">
            -27 -130 -34 12 callsubr
            return
          </CharString>
          <CharString index="75">
            -104 callsubr
            1 callsubr
            return
          </CharString>
          <CharString index="76">
            rmoveto
            -10 -6 -6 -8 -23 53 -9 84 -44 hvcurveto
            -48 92 92 -64 19 hhcurveto
            6 3 4 7 37 -265 154 -68 hvcurveto
            return
          </CharString>
          <CharString index="77">
            0 callsubr
            -438 166 rmoveto
            78 callgsubr
            75 46 -50 -66 -10 -1 -11 -2 -10 hvcurveto
            -9 -29 -35 -6 -35 hhcurveto
            165 182 rmoveto
            -37 -10 -9 -15 -3 1 -3 1 -3 hvcurveto
            38 -28 -47 25 -64 -23 callgsubr
            36 -9 33 -19 27 hvcurveto
            -6 7 12 -3 23 hhcurveto
            60 callgsubr
          </CharString>
          <CharString index="78">
            48 -104 callsubr
            return
          </CharString>
          <CharString index="79">
            21 92 30 136 4 32 return
          </CharString>
          <CharString index="80">
            66 vhcurveto
            44 22 -3 26 hhcurveto
            2 hlineto
            2 hlineto
            23 7 39 51 24 -4 24 -6 19 hvcurveto
            return
          </CharString>
          <CharString index="81">
            rrcurveto
            118 -107 callgsubr
          </CharString>
          <CharString index="82">
            hlineto
            -1 -9 -1 -12 -13 vvcurveto
            -1 return
          </CharString>
          <CharString index="83">
            -105 callgsubr
            119 -107 callgsubr
          </CharString>
          <CharString index="84">
            -195 208 675 rmoveto
            -116 -131 -427 -66 vvcurveto
            -21 22 -23 12 12 35 148 126 34 vhcurveto
            46 169 28 133 37 vvcurveto
            35 -26 34 -17 -13 -2 -6 -23 vhcurveto
            return
          </CharString>
          <CharString index="85">
            vvcurveto
            -8 5 -6 11 21 77 137 43 45 vhcurveto
            -106 3 77 -118 28 hhcurveto
            9 4 4 9 return
          </CharString>
          <CharString index="86">
            -102 callgsubr
            -327 -178 rmoveto
            -2 hlineto
            -16 -65 -47 -75 hhcurveto
            -25 -8 6 22 17 5 21 10 21 hvcurveto
            -4 14 16 -2 16 83 callsubr
            -112 -91 -71 -59 -43 hvcurveto
            -37 -55 -102 -72 -128 hhcurveto
            -18 -10 8 15 45 75 78 57 39 hvcurveto
            21 14 24 18 13 104 callsubr
            return
          </CharString>
          <CharString index="87">
            3 27 rrcurveto
            -55 hmoveto
            -88 callgsubr
            return
          </CharString>
          <CharString index="88">
            hlineto
            -24 -55 -30 -93 -107 vvcurveto
            -96 29 -72 71 146 96 183 186 20 -7 19 -10 15 vhcurveto
            return
          </CharString>
          <CharString index="89">
            12 callgsubr
            39 -11 35 -23 24 vhcurveto
            return
          </CharString>
          <CharString index="90">
            -10 -44 rcurveline
            -29 -130 -33 -135 -21 -55 callsubr
            33 35 183 133 30 vhcurveto
            -28 callgsubr
            return
          </CharString>
          <CharString index="91">
            28 -30 61 -19 -17 -18 -22 -19 -24 41 -41 27 return
          </CharString>
          <CharString index="92">
            202 108 636 -11 callsubr
            return
          </CharString>
          <CharString index="93">
            rmoveto
            -33 -16 -28 -39 -29 -43 20 30 30 51 30 59 22 vhcurveto
            13 -22 4 -28 -21 vvcurveto
            return
          </CharString>
          <CharString index="94">
            rmoveto
            32 -41 42 -61 20 vhcurveto
            17 -54 -51 7 -77 hhcurveto
            -98 -55 -21 -11 1 hvcurveto
            -19 1 26 -27 27 34 45 16 79 hhcurveto
            78 86 -20 -23 hvcurveto
            -115 -437 -256 -118 vvcurveto
            -39 43 -40 45 189 182 48 29 14 -3 4 -14 vhcurveto
            -66 -178 -37 -102 hhcurveto
            -24 -9 17 10 hvcurveto
            64 434 282 124 vvcurveto
            return
          </CharString>
          <CharString index="95">
            30 callgsubr
            -91 27 -94 80 return
          </CharString>
          <CharString index="96">
            52 callsubr
            -123 -103 -102 -148 10 callsubr
            return
          </CharString>
          <CharString index="97">
            325 callgsubr
            -23 -5 -23 -5 -23 rrcurveto
            -142 -37 -113 -133 -91 hhcurveto
            -25 -20 41 74 84 14 77 25 68 hvcurveto
            return
          </CharString>
          <CharString index="98">
            hhcurveto
            -86 callsubr
            return
          </CharString>
          <CharString index="99">
            -2 hlineto
            -16 -65 -47 -75 hhcurveto
            -25 -8 6 22 17 5 21 10 21 hvcurveto
            -4 14 16 -2 16 hhcurveto
            return
          </CharString>
          <CharString index="100">
            rmoveto
            17 9 -8 -17 -62 -86 -65 -79 -11 -11 2 2 -10 hvcurveto
            75 46 79 73 46 hhcurveto
            return
          </CharString>
          <CharString index="101">
            -92 callgsubr
            113 136 48 94 84 hvcurveto
            return
          </CharString>
          <CharString index="102">
            -104 callsubr
            509 hlineto
            -8 -42 -9 -43 -9 -45 rrcurveto
            -48 -43 -64 -36 -69 -44 -22 23 -32 hhcurveto
            -12 -8 -10 -34 callgsubr
            -69 -87 -118 -119 310 callgsubr
            79 76 8 -2 9 -4 9 vhcurveto
            -1 11 11 -1 12 hhcurveto
            56 50 18 27 38 hvcurveto
            -10 -47 return
          </CharString>
          <CharString index="103">
            vvcurveto
            -23 32 -26 25 129 134 51 87 94 vhcurveto
            -27 -129 -34 -130 -21 -73 callsubr
          </CharString>
          <CharString index="104">
            -104 callsubr
            306 300 callgsubr
            -95 -110 -167 -76 -42 42 -34 39 return
          </CharString>
          <CharString index="105">
            -65 26 -51 64 73 87 46 62 59 return
          </CharString>
          <CharString index="106">
            hlineto
            -14 -75 -18 -80 -18 -86 rrcurveto
            43 -67 -205 84 -56 hhcurveto
            -13 -4 -6 -9 -20 74 -14 109 -43 hvcurveto
            61 -24 60 -32 27 -12 -43 -21 -75 -50 -63 -38 150 callgsubr
            11 92 53 57 93 vhcurveto
            56 35 57 36 38 27 rrcurveto
            313 callgsubr
            -100 -18 -73 callsubr
          </CharString>
          <CharString index="107">
            rmoveto
            -65 -83 -84 -63 -74 hhcurveto
            -27 -12 10 22 54 102 149 66 49 41 -75 -30 22 hvcurveto
            return
          </CharString>
          <CharString index="108">
            149 -25 callsubr
            return
          </CharString>
          <CharString index="109">
            34 8 callsubr
            -67 83 -39 53 hvcurveto
            return
          </CharString>
          <CharString index="110">
            53 -41 88 -59 33 vhcurveto
            16 38 14 56 2 40 rrcurveto
            76 callsubr
          </CharString>
          <CharString index="111">
            -106 callsubr
            354 -38 callsubr
            return
          </CharString>
          <CharString index="112">
            150 callsubr
            -11 -61 -14 -65 -15 -68 rrcurveto
            -101 -69 -151 -90 -116 hhcurveto
            -13 -5 4 9 37 85 72 283 callgsubr
            -2 -4 -1 -2 -4 hvcurveto
            -5 -1 -6 -3 -6 -3 rrcurveto
            -14 -30 -47 -23 -52 hhcurveto
            -25 -8 15 22 10 2 12 4 12 hvcurveto
            -4 14 16 -2 15 278 callgsubr
            return
          </CharString>
          <CharString index="113">
            hhcurveto
            -25 -25 -1 -1 -26 hvcurveto
            12 85 2 88 59 vvcurveto
            return
          </CharString>
          <CharString index="114">
            hhcurveto
            -36 callgsubr
            hvcurveto
            -2 callgsubr
            return
          </CharString>
          <CharString index="115">
            12 4 7 10 16 return
          </CharString>
          <CharString index="116">
            -17 -87 -13 -78 -14 -93 rrcurveto
            -51 -84 return
          </CharString>
          <CharString index="117">
            -112 55 -96 94 94 callsubr
            vhcurveto
            -18 -11 -18 -46 hhcurveto
            -60 -31 68 90 114 83 86 88 51 21 -40 -50 hvcurveto
            -61 -25 -31 -27 vvcurveto
            -11 6 -9 11 vhcurveto
            147 callgsubr
            25 83 64 70 78 hvcurveto
            32 28 31 30 26 26 -19 -89 rcurveline
            return
          </CharString>
          <CharString index="118">
            -24 callgsubr
            57 -77 24 -98 20 -48 rrcurveto
            return
          </CharString>
          <CharString index="119">
            -131 140 callsubr
            return
          </CharString>
          <CharString index="120">
            rmoveto
            -16 -83 -13 -74 -13 -86 rrcurveto
            -50 -84 -65 -34 -58 56 callsubr
            120 30 71 hvcurveto
            -165 48 -8 callgsubr
            -64 -28 -106 -90 195 callsubr
            67 70 32 41 70 vhcurveto
            -12 -78 -12 -72 -6 -48 rrcurveto
            35 -22 -37 37 42 callgsubr
            2 -3 3 -2 3 -2 rrcurveto
            -2 2 3 -1 3 hhcurveto
            33 17 167 143 27 hvcurveto
            50 85 63 28 45 hhcurveto
            36 13 -33 288 callsubr
            51 -62 -50 -66 -30 -38 -67 vhcurveto
            16 85 16 96 3 26 rrcurveto
            327 -107 callgsubr
          </CharString>
          <CharString index="121">
            -10 -28 -4 -35 -24 vvcurveto
            -6 0 -6 1 -6 vhcurveto
            6 -15 -18 4 -18 hhcurveto
            return
          </CharString>
          <CharString index="122">
            rmoveto
            18 -19 22 -14 -17 -7 -26 -168 -39 vhcurveto
            -19 -81 -50 -156 -22 vvcurveto
            -18 11 -14 13 10 15 14 42 14 vhcurveto
            72 227 30 132 30 vvcurveto
            return
          </CharString>
          <CharString index="123">
            rmoveto
            4 callsubr
            return
          </CharString>
          <CharString index="124">
            rmoveto
            231 callgsubr
            -71 -48 31 51 vhcurveto
            -388 275 -3 callgsubr
            41 -1 hvcurveto
            -66 52 76 -73 107 hhcurveto
            61 63 13 24 57 hvcurveto
            -127 -128 -161 -115 -22 vvcurveto
            -7 6 -5 8 72 304 294 106 56 vhcurveto
            0 vlineto
            6 11 4 12 14 287 callgsubr
            -58 -63 -17 -75 hhcurveto
            -88 -48 48 45 -39 hvcurveto
            123 20 96 82 110 vvcurveto
            37 -10 33 -21 24 vhcurveto
            353 -107 callgsubr
          </CharString>
          <CharString index="125">
            rmoveto
            -176 -229 -312 -197 -88 84 -91 86 69 98 75 131 69 hvcurveto
            -42 -141 -46 -103 -42 vvcurveto
            -20 8 -9 13 30 95 308 54 27 -30 39 -32 -95 -57 -11 -17 -13 25 -21 24 20 34 6 17 51 vhcurveto
            -130 -85 -87 -86 -65 hhcurveto
            -50 -51 52 68 190 219 248 122 hvcurveto
            35 15 -19 14 hhcurveto
            7 3 4 11 19 -36 51 -40 hvcurveto
            return
          </CharString>
          <CharString index="126">
            114 rmoveto
            27 119 123 98 48 -20 42 -69 -42 -61 -37 -56 -68 hvcurveto
            15 64 27 121 11 71 rrcurveto
            313 310 callsubr
            -34 hvcurveto
            -701 -46 callsubr
            330 180 callsubr
            -84 -119 -167 -86 -42 55 -39 39 30 29 16 21 37 hvcurveto
            -20 callgsubr
            vhcurveto
            -406 41 101 callgsubr
            return
          </CharString>
          <CharString index="127">
            rmoveto
            -14 2 -9 -21 -6 hvcurveto
            -145 -44 -105 -256 -106 hhcurveto
            -27 -23 23 31 hvcurveto
            147 111 161 31 vvcurveto
            21 -16 17 -13 -40 -103 -238 -132 -55 44 -60 64 51 51 34 66 45 vhcurveto
            -164 -56 -41 -144 -60 -71 -38 85 -18 hhcurveto
            -7 -15 -18 -13 -50 84 -52 67 60 40 47 92 33 hvcurveto
            99 276 91 247 21 vvcurveto
            32 -23 26 -16 vhcurveto
            return
          </CharString>
          <CharString index="128">
            -68 -36 -77 -47 -94 -63 -25 55 -31 hhcurveto
            -9 -5 -9 -10 -1 hvcurveto
            return
          </CharString>
          <CharString index="129">
            hvcurveto
            -86 -32 -46 -64 -41 -19 callgsubr
            return
          </CharString>
          <CharString index="130">
            32 callsubr
            -114 -85 -35 -104 294 callsubr
            hvcurveto
            144 callsubr
            return
          </CharString>
          <CharString index="131">
            -249 58 -62 callsubr
            125 -100 callsubr
            315 callsubr
            -129 hlineto
            220 callgsubr
            19 15 6 11 13 hvcurveto
            19 31 42 11 32 79 33 -58 18 hhcurveto
            6 3 4 11 36 -68 55 -76 160 callgsubr
            57 -77 24 -98 20 -48 rrcurveto
            return
          </CharString>
          <CharString index="132">
            15 15 1 1 14 hvcurveto
            -78 33 33 -104 30 hhcurveto
            10 6 5 13 17 -36 85 -27 68 hvcurveto
            76 16 54 36 65 vvcurveto
            31 -13 26 -21 23 vhcurveto
            71 10 96 30 74 32 rrcurveto
            -26 -125 -32 -123 123 callsubr
          </CharString>
          <CharString index="133">
            vlineto
            0 vlineto
            -1 vlineto
            -3 1 -3 1 -4 vhcurveto
            11 -39 60 -90 37 -51 rrcurveto
            -54 39 57 -77 23 hhcurveto
            8 callsubr
            -59 75 -39 53 hvcurveto
            -14 19 -19 31 -20 31 rrcurveto
            -4 14 15 -2 15 hhcurveto
            161 112 129 123 return
          </CharString>
          <CharString index="134">
            95 callgsubr
            hvcurveto
            -11 439 -85 callgsubr
            63 72 22 33 72 hvcurveto
            -16 -70 -12 -54 -13 -55 callsubr
            23 24 89 99 23 vhcurveto
            43 22 42 26 39 25 rrcurveto
            -18 -34 -11 -32 -23 106 callgsubr
            return
          </CharString>
          <CharString index="135">
            149 callsubr
            145 callsubr
            -61 rrcurveto
            -119 -83 -156 -73 -146 hhcurveto
            142 81 94 138 114 vvcurveto
            85 -62 46 -62 return
          </CharString>
          <CharString index="136">
            vvcurveto
            -22 82 5 9 -21 vhcurveto
            -30 -51 -110 16 -29 vvcurveto
            -12 11 -5 19 59 116 23 67 28 -47 25 -42 vhcurveto
            return
          </CharString>
          <CharString index="137">
            rmoveto
            158 callsubr
            -30 -40 5 9 -37 hvcurveto
            83 37 64 71 62 hhcurveto
            -44 -215 rmoveto
            157 callgsubr
            -120 -126 -187 -142 -95 76 -61 90 268 callgsubr
            -6 6 -12 hvcurveto
            194 callsubr
            32 50 30 6 32 10 32 hvcurveto
            -11 44 45 -8 47 hhcurveto
            endchar
          </CharString>
          <CharString index="138">
            24 11 51 24 49 hvcurveto
            -52 37 31 -27 36 hhcurveto
            54 39 54 38 15 -6 9 -11 -29 -5 -61 -2 -40 hvcurveto
            2 -37 -5 74 -61 hhcurveto
            return
          </CharString>
          <CharString index="139">
            -77 callsubr
            -4 2 -3 2 -4 1 rrcurveto
            16 -37 -59 8 -57 hhcurveto
            return
          </CharString>
          <CharString index="140">
            57 callsubr
            -65 -18 -87 -75 vvcurveto
            -91 return
          </CharString>
          <CharString index="141">
            -78 callsubr
            -359 263 114 callgsubr
            -10 -28 -4 -35 -24 122 callsubr
            -143 -68 -51 -15 8 -20 15 -12 hvcurveto
            58 -44 184 -5 -65 vvcurveto
            -45 -47 -36 -80 -92 -34 42 39 114 callsubr
            -13 -5 202 callsubr
            151 -107 callgsubr
          </CharString>
          <CharString index="142">
            vvcurveto
            -155 140 -64 132 42 28 11 17 11 -13 5 -36 -123 -117 58 113 return
          </CharString>
          <CharString index="143">
            248 callsubr
            -321 289 callgsubr
            96 hlineto
            -1 2 2 0 3 hhcurveto
            4 4 0 1 3 hvcurveto
            202 55 callgsubr
            -131 hlineto
            3 38 2 38 40 vvcurveto
            2 vlineto
            51 7 49 29 62 45 callgsubr
            -49 -41 -15 -25 -29 hvcurveto
            56 -8 -19 45 -44 hhcurveto
            -94 -99 -221 -86 -22 hvcurveto
            return
          </CharString>
          <CharString index="144">
            76 341 356 rmoveto
            -31 -54 34 87 -44 hvcurveto
            106 -55 -2 117 -29 hhcurveto
            -14 -11 -21 -29 -136 104 -192 123 -22 hvcurveto
            -66 -126 -57 -108 -38 vvcurveto
            -15 4 -6 8 29 47 106 190 103 vhcurveto
            98 182 113 157 32 vvcurveto
            17 -10 9 -20 vhcurveto
            -47 -147 -344 -42 hhcurveto
            return
          </CharString>
          <CharString index="145">
            vvcurveto
            9 -4 6 -12 -33 -139 -55 -47 -81 vhcurveto
            3 14 2 15 16 -101 callgsubr
            return
          </CharString>
          <CharString index="146">
            -76 41 46 -74 285 callgsubr
            16 -43 61 -34 72 hvcurveto
            -13 27 -11 28 -12 25 rrcurveto
            -2 9 9 -1 9 hhcurveto
            39 37 9 16 33 hvcurveto
            124 1 189 11 119 35 rrcurveto
            -1 vlineto
            -10 -50 -12 -50 -10 -43 rrcurveto
            10 -26 -30 7 -34 hhcurveto
            -119 -168 -60 -86 -57 66 -43 60 67 30 45 59 26 -5 31 -13 27 hvcurveto
            7 29 29 3 26 hhcurveto
            30 24 -5 -9 24 hvcurveto
            -11 -48 -8 -36 -10 -104 callgsubr
            3 15 rlineto
            1 1 hlineto
            21 90 26 125 4 29 -26 callsubr
          </CharString>
          <CharString index="147">
            -3 -45 -82 -33 -24 vvcurveto
            -8 5 -2 10 29 97 52 77 41 -34 24 -32 return
          </CharString>
          <CharString index="148">
            rrcurveto
            307 -107 callgsubr
          </CharString>
          <CharString index="149">
            rmoveto
            -317 -6 0 -16 -16 23 -30 16 40 93 7 2 66 hvcurveto
            -12 -148 -119 -369 -68 vvcurveto
            -22 22 -21 13 17 28 145 123 34 vhcurveto
            47 171 29 132 37 vvcurveto
            7 -1 6 -2 7 vhcurveto
            -1 109 25 -9 71 hhcurveto
            20 8 2 8 23 -98 30 -106 hvcurveto
            endchar
          </CharString>
          <CharString index="150">
            -249 -137 636 rmoveto
            187 callgsubr
            -134 hlineto
            3 25 1 22 20 vvcurveto
            9 0 9 -1 8 vhcurveto
            60 1 51 33 67 45 callgsubr
            -58 -47 -20 -34 -28 hvcurveto
            73 -27 -55 54 -79 hhcurveto
            -202 -172 -268 -67 -10 10 -8 12 14 8 4 16 6 hvcurveto
            127 52 158 153 107 hhcurveto
            85 51 -85 -122 -14 -1 -16 -1 -17 hvcurveto
            return
          </CharString>
          <CharString index="151">
            hhcurveto
            -10 -5 4 8 45 71 71 51 39 hvcurveto
            20 16 25 16 13 104 callsubr
            -215 256 -104 callsubr
            177 hlineto
            -71 -34 -80 -70 -50 vvcurveto
            -41 65 -40 59 -9 vhcurveto
            -15 -12 -15 -14 -13 -11 rrcurveto
            -48 -43 -45 -64 -38 vvcurveto
            -31 22 -28 48 return
          </CharString>
          <CharString index="152">
            93 245 636 -57 callsubr
            return
          </CharString>
          <CharString index="153">
            184 callgsubr
            62 300 rmoveto
            67 callgsubr
            43 8 -65 -67 -11 0 -11 -1 -12 hvcurveto
            -6 -21 -21 -4 -30 hhcurveto
            273 176 rmoveto
            131 callsubr
            314 callsubr
            21 vhcurveto
            -5 -30 -6 -30 -9 -30 rrcurveto
            -123 -12 -114 -4 -77 vvcurveto
            -55 71 -70 56 70 50 82 98 31 vhcurveto
            79 8 75 5 48 7 return
          </CharString>
          <CharString index="154">
            117 125 42 45 15 -14 20 -12 return
          </CharString>
          <CharString index="155">
            hlineto
            -19 -27 -15 -49 -52 vvcurveto
            -12 vlineto
            14 -19 -22 11 -15 hhcurveto
            return
          </CharString>
          <CharString index="156">
            1 hlineto
            28 57 37 31 68 hvcurveto
            return
          </CharString>
          <CharString index="157">
            rmoveto
            33 25 20 29 62 26 -62 -75 8 vhcurveto
            -71 4 -79 27 53 vvcurveto
            69 128 callgsubr
            275 213 callgsubr
            -23 -1 -53 -1 -45 vhcurveto
            27 -38 -66 22 296 callsubr
            233 -52 -90 vvcurveto
            -40 -48 -29 -76 -6 vhcurveto
            90 -7 -35 91 -99 hhcurveto
            -49 -49 -36 -58 -85 97 -46 101 -5 hvcurveto
            0 vlineto
            -93 -23 -59 -33 vvcurveto
            -11 5 -7 7 29 23 115 89 2 vhcurveto
            90 7 80 40 77 vvcurveto
            30 -13 27 -21 23 vhcurveto
            83 10 160 39 95 30 return
          </CharString>
          <CharString index="158">
            -62 callsubr
            124 -100 callsubr
            118 -106 callgsubr
            return
          </CharString>
          <CharString index="159">
            -104 callsubr
            538 hlineto
            -58 callgsubr
            return
          </CharString>
          <CharString index="160">
            -225 -15 callgsubr
            return
          </CharString>
          <CharString index="161">
            -8 callsubr
            108 113 89 86 45 -26 22 -45 66 callgsubr
            -38 25 -22 43 return
          </CharString>
          <CharString index="162">
            -37 42 -29 40 38 58 19 27 13 -9 7 -12 vhcurveto
            -16 -14 -16 -28 hhcurveto
            -28 -15 8 15 return
          </CharString>
          <CharString index="163">
            hhcurveto
            -13 -5 22 35 79 27 return
          </CharString>
          <CharString index="164">
            -104 callsubr
            86 hlineto
            -22 return
          </CharString>
          <CharString index="165">
            -282 34 8 callsubr
            return
          </CharString>
          <CharString index="166">
            rmoveto
            27 -39 42 -34 -186 -220 -307 -188 -104 95 -78 95 109 153 107 32 7 -7 7 -5 vhcurveto
            -32 -77 -89 -139 hhcurveto
            -63 -65 40 77 200 234 235 106 hvcurveto
            35 18 -18 17 hhcurveto
            4 1 1 9 hvcurveto
            endchar
          </CharString>
          <CharString index="167">
            hlineto
            -11 -26 -7 -27 128 callsubr
            return
          </CharString>
          <CharString index="168">
            -23 122 callsubr
            -137 -53 -48 -15 8 -20 15 -12 hvcurveto
            58 -44 155 0 -65 vvcurveto
            -30 -43 -30 -73 -80 -39 39 42 -19 vhcurveto
            14 -6 -6 8 -17 hhcurveto
            -10 -7 -7 -14 -61 81 -69 105 return
          </CharString>
          <CharString index="169">
            22 callgsubr
            -92 -67 -39 -59 return
          </CharString>
          <CharString index="170">
            hhcurveto
            48 callgsubr
            return
          </CharString>
          <CharString index="171">
            rmoveto
            160 callgsubr
            -105 78 16 -146 28 hhcurveto
            11 8 6 10 19 -13 49 -19 53 hvcurveto
            233 callgsubr
            19 15 6 11 13 hvcurveto
            19 31 42 11 32 79 33 -58 18 hhcurveto
            6 3 4 11 36 -68 55 -76 hvcurveto
            endchar
          </CharString>
          <CharString index="172">
            528 110 rmoveto
            -55 -42 47 53 -28 hvcurveto
            81 85 79 84 50 hhcurveto
            24 14 -14 -27 -92 -51 -132 -76 hvcurveto
            -407 40 rmoveto
            65 72 143 67 43 36 -71 -41 26 vhcurveto
            -71 -75 -72 -66 -55 hhcurveto
            -30 -12 16 25 hvcurveto
            return
          </CharString>
          <CharString index="173">
            -18 -81 -14 -75 -18 -84 rrcurveto
            45 -23 -46 51 -60 hhcurveto
            return
          </CharString>
          <CharString index="174">
            rmoveto
            175 callsubr
            42 28 23 34 38 36 -35 -50 -34 -8 -31 -13 -28 vhcurveto
            -19 4 -24 6 -24 14 287 callsubr
            -11 -57 -13 -60 -13 -64 rrcurveto
            -110 -86 -148 -65 -136 hhcurveto
            128 80 94 122 121 vvcurveto
            85 -62 46 -62 -59 -50 -41 -68 -87 73 -59 71 -4 vhcurveto
            -67 -102 -127 -55 -26 vvcurveto
            -28 40 -33 29 118 130 49 83 94 vhcurveto
            return
          </CharString>
          <CharString index="175">
            437 -104 callsubr
            return
          </CharString>
          <CharString index="176">
            43 hvcurveto
            33 19 -37 17 hhcurveto
            7 7 8 8 14 -13 18 -17 13 hvcurveto
            return
          </CharString>
          <CharString index="177">
            -86 callsubr
            72 67 32 47 47 hvcurveto
            0 vlineto
            76 97 113 82 73 284 callsubr
            -118 -185 -83 285 callsubr
            108 134 59 93 87 vhcurveto
            -26 -123 -30 -117 123 callsubr
          </CharString>
          <CharString index="178">
            270 callgsubr
            327 hlineto
            -95 -53 -140 -138 -153 110 callsubr
            -51 18 vhcurveto
            -36 -69 -71 -23 -70 19 callgsubr
            return
          </CharString>
          <CharString index="179">
            vvcurveto
            185 -336 rmoveto
            29 19 -18 -33 -55 -73 -34 -85 -7 hvcurveto
            83 6 38 64 66 hhcurveto
            return
          </CharString>
          <CharString index="180">
            110 callgsubr
            -76 -9 rrcurveto
            16 63 8 68 59 258 callsubr
            return
          </CharString>
          <CharString index="181">
            433 rmoveto
            -163 -34 -146 -113 -100 hhcurveto
            -34 -11 27 39 92 80 123 64 hvcurveto
            38 3 -47 24 hhcurveto
            10 5 7 16 33 -32 42 -38 -36 -33 -15 -25 -30 hvcurveto
            -64 -43 -89 -55 -90 -47 5 24 rcurveline
            -28 callgsubr
            485 322 callsubr
            rrcurveto
            -824 -196 rmoveto
            102 callgsubr
            44 25 -100 -53 18 vhcurveto
            -38 -80 -76 -27 -52 95 callgsubr
            hvcurveto
            return
          </CharString>
          <CharString index="182">
            166 callsubr
            52 hmoveto
            3 38 2 38 40 vvcurveto
            88 -11 103 -66 -94 -99 -221 -86 -22 vhcurveto
            -84 -46 callsubr
            314 55 callgsubr
            endchar
          </CharString>
          <CharString index="183">
            178 -107 callgsubr
          </CharString>
          <CharString index="184">
            60 callsubr
            22 vhcurveto
            -5 return
          </CharString>
          <CharString index="185">
            -12 -55 callsubr
            22 23 return
          </CharString>
          <CharString index="186">
            79 8 75 5 48 7 -18 -87 -21 -86 46 callgsubr
            91 callgsubr
          </CharString>
          <CharString index="187">
            -104 callsubr
            74 hlineto
            -99 callgsubr
            return
          </CharString>
          <CharString index="188">
            17 66 9 69 62 258 callsubr
            -60 -67 -95 -83 222 callsubr
            return
          </CharString>
          <CharString index="189">
            -52 28 -42 79 23 22 3 4 return
          </CharString>
          <CharString index="190">
            hhcurveto
            95 99 69 75 22 hvcurveto
            9 hlineto
            75 hlineto
            -99 callgsubr
            return
          </CharString>
          <CharString index="191">
            hhcurveto
            -34 -11 27 39 99 85 176 76 hvcurveto
            41 18 -82 28 hhcurveto
            10 5 7 16 33 -45 77 -47 return
          </CharString>
          <CharString index="192">
            89 callsubr
            -39 -48 -21 -64 -8 hvcurveto
            53 22 30 38 33 hhcurveto
            return
          </CharString>
          <CharString index="193">
            -24 11 168 callsubr
            return
          </CharString>
          <CharString index="194">
            130 213 callsubr
            37 91 10 104 11 hvcurveto
            -90 -33 -47 -67 -42 -19 callgsubr
            273 176 72 callgsubr
            return
          </CharString>
          <CharString index="195">
            -13 40 48 -6 46 hhcurveto
            128 124 51 60 46 -52 62 -49 -61 -81 -71 -96 -54 hvcurveto
            135 callgsubr
          </CharString>
          <CharString index="196">
            rmoveto
            16 11 -8 -15 return
          </CharString>
          <CharString index="197">
            rmoveto
            122 180 128 24 vvcurveto
            13 -17 20 -18 -24 -124 -142 -253 -172 vhcurveto
            69 216 55 241 151 vvcurveto
            33 -21 34 -16 -16 -4 -6 -21 vhcurveto
            -291 -128 -342 -57 vvcurveto
            -20 16 -28 13 19 25 29 146 113 vhcurveto
            -3 0 -4 -4 vvcurveto
            -91 111 -73 52 12 16 3 14 vhcurveto
            28 -141 28 105 vvcurveto
            endchar
          </CharString>
          <CharString index="198">
            -12 -11 -14 -18 284 callgsubr
            return
          </CharString>
          <CharString index="199">
            52 46 33 64 64 23 callgsubr
            return
          </CharString>
          <CharString index="200">
            rrcurveto
            -54 39 57 -77 23 hhcurveto
            8 callsubr
            -59 75 -39 53 hvcurveto
            -14 19 -19 31 -20 31 rrcurveto
            -4 14 15 -2 15 hhcurveto
            161 112 129 123 90 -59 75 -111 return
          </CharString>
          <CharString index="201">
            46 43 25 23 12 -6 7 -14 return
          </CharString>
          <CharString index="202">
            -5 -1 rlineto
            -55 -8 -36 -35 -16 vvcurveto
            -12 14 -14 13 vhcurveto
            2 callgsubr
            return
          </CharString>
          <CharString index="203">
            124 callgsubr
            148 -106 callgsubr
            endchar
          </CharString>
          <CharString index="204">
            718 -56 callsubr
            return
          </CharString>
          <CharString index="205">
            rmoveto
            6 6 -1 6 hhcurveto
            -7 -24 -5 -24 -3 -22 -5 -18 -10 -18 -13 -15 -28 32 -29 37 -23 37 rrcurveto
            11 32 37 5 35 hhcurveto
            -197 581 -104 callsubr
            397 -47 callgsubr
            -105 -150 -196 -91 -37 20 -29 33 -19 hvcurveto
            -65 -19 -55 -46 -69 vvcurveto
            return
          </CharString>
          <CharString index="206">
            hlineto
            49 callgsubr
            return
          </CharString>
          <CharString index="207">
            rmoveto
            -29 -17 -56 -63 -73 0 86 -25 hhcurveto
            -15 -17 -16 -26 -42 65 -53 54 64 75 54 34 13 -5 6 -14 hvcurveto
            endchar
          </CharString>
          <CharString index="208">
            hlineto
            140 callgsubr
            return
          </CharString>
          <CharString index="209">
            2 hlineto
            14 2 4 return
          </CharString>
          <CharString index="210">
            178 callsubr
            68 92 rmoveto
            59 48 -2 35 hhcurveto
            44 17 3 11 36 -136 0 -89 -134 -152 -20 -84 -76 112 -124 74 72 33 82 80 32 -1 37 -7 25 hvcurveto
            -245 308 -104 callsubr
            return
          </CharString>
          <CharString index="211">
            vvcurveto
            11 -6 6 -13 vhcurveto
            return
          </CharString>
          <CharString index="212">
            212 callgsubr
            654 hlineto
            -11 -59 -13 -62 -15 -66 rrcurveto
            -112 -61 -170 -93 -126 hhcurveto
            93 65 92 73 95 vvcurveto
            56 -29 50 -72 return
          </CharString>
          <CharString index="213">
            -6 callsubr
            2 2 2 2 2 return
          </CharString>
          <CharString index="214">
            49 57 vvcurveto
            46 -52 62 -49 -61 -81 -71 -96 -54 vhcurveto
            135 callgsubr
          </CharString>
          <CharString index="215">
            -61 -78 -72 -75 -79 hvcurveto
            52 -19 -48 78 -70 hhcurveto
            -107 -86 -184 -86 -36 53 -43 39 65 73 55 64 71 hvcurveto
            -64 34 58 -51 63 hhcurveto
            134 47 171 94 return
          </CharString>
          <CharString index="216">
            148 callgsubr
            33 31 7 11 29 hvcurveto
            return
          </CharString>
          <CharString index="217">
            -95 rrcurveto
            -310 -65 175 callgsubr
            -108 return
          </CharString>
          <CharString index="218">
            hhcurveto
            -95 -110 13 callgsubr
            return
          </CharString>
          <CharString index="219">
            124 -107 callgsubr
          </CharString>
          <CharString index="220">
            rmoveto
            -52 -37 -58 -44 -43 29 -35 39 52 37 58 44 43 -29 35 -39 hvcurveto
            -6 -45 rmoveto
            16 11 -17 -22 -32 -19 -21 -18 -16 -11 17 21 32 20 22 17 hvcurveto
            return
          </CharString>
          <CharString index="221">
            -14 vhcurveto
            14 -5 -7 8 -15 hhcurveto
            return
          </CharString>
          <CharString index="222">
            -65 39 callgsubr
            return
          </CharString>
          <CharString index="223">
            rmoveto
            75 46 -50 -66 -10 -1 -11 -2 -10 hvcurveto
            -9 -29 -35 -6 -35 hhcurveto
            78 callgsubr
            hvcurveto
            return
          </CharString>
          <CharString index="224">
            588 84 callgsubr
            return
          </CharString>
          <CharString index="225">
            -248 114 -39 callgsubr
            15 hlineto
            -15 -83 -21 -54 callsubr
            return
          </CharString>
          <CharString index="226">
            62 callsubr
            -29 12 return
          </CharString>
          <CharString index="227">
            hvcurveto
            -1 vlineto
            -8 6 14 -10 -53 callgsubr
            return
          </CharString>
          <CharString index="228">
            -5 rrcurveto
            92 callsubr
            return
          </CharString>
          <CharString index="229">
            vvcurveto
            -7 0 -7 1 -7 vhcurveto
            6 -16 -19 4 -16 hhcurveto
            -74 return
          </CharString>
          <CharString index="230">
            -20 -24 callsubr
          </CharString>
          <CharString index="231">
            52 -21 38 -42 12 vhcurveto
            3 14 2 18 6 20 8 29 7 20 4 12 rrcurveto
            return
          </CharString>
          <CharString index="232">
            199 85 callsubr
            return
          </CharString>
          <CharString index="233">
            -22 callsubr
            23 return
          </CharString>
          <CharString index="234">
            673 -104 callsubr
            return
          </CharString>
          <CharString index="235">
            -27 vvcurveto
            82 callsubr
            return
          </CharString>
          <CharString index="236">
            -249 59 51 callsubr
            return
          </CharString>
          <CharString index="237">
            rmoveto
            15 15 14 39 50 hvcurveto
            234 callsubr
            290 callgsubr
            vhcurveto
            return
          </CharString>
          <CharString index="238">
            110 callgsubr
            -77 -10 rrcurveto
            17 68 8 71 52 258 callsubr
            return
          </CharString>
          <CharString index="239">
            279 rmoveto
            -115 -42 -120 -93 -56 hhcurveto
            -28 -32 23 32 128 119 189 94 46 23 -70 -80 hvcurveto
            103 489 rmoveto
            -15 -2 -9 -21 hvcurveto
            -7 -112 -25 -126 -27 -114 rrcurveto
            61 -14 -31 41 -55 hhcurveto
            -144 -125 -246 -124 -53 47 -62 64 return
          </CharString>
          <CharString index="240">
            -248 114 636 rmoveto
            -49 -33 0 -21 -22 51 -5 85 hvcurveto
            15 hlineto
            -16 -83 -20 197 callgsubr
            return
          </CharString>
          <CharString index="241">
            207 callsubr
            18 62 280 36 9 -66 callgsubr
            return
          </CharString>
          <CharString index="242">
            80 callsubr
            hvcurveto
            return
          </CharString>
          <CharString index="243">
            77 callsubr
            -33 -8 -32 -9 -31 return
          </CharString>
          <CharString index="244">
            435 rmoveto
            243 callsubr
            -54 -65 -51 -62 -51 hvcurveto
            return
          </CharString>
          <CharString index="245">
            rmoveto
            185 callsubr
            37 40 -30 -55 return
          </CharString>
          <CharString index="246">
            51 27 73 37 57 vhcurveto
            return
          </CharString>
          <CharString index="247">
            -21 -90 callgsubr
            return
          </CharString>
          <CharString index="248">
            140 rmoveto
            -47 -73 -5 -16 -14 26 -26 27 217 callsubr
            vhcurveto
            endchar
          </CharString>
          <CharString index="249">
            hlineto
            -99 callgsubr
            hvcurveto
            return
          </CharString>
          <CharString index="250">
            512 rmoveto
            -3 -15 -14 -58 -33 -60 -42 -48 rlinecurve
            -45 67 -66 112 -39 78 rrcurveto
            257 hlineto
            -5 -25 -5 -25 -5 -26 rrcurveto
            -285 -153 rmoveto
            58 7 55 12 50 vhcurveto
            39 -73 62 -90 45 -56 rrcurveto
            -36 -38 -43 -23 -39 hhcurveto
            -25 -20 41 74 hvcurveto
            return
          </CharString>
          <CharString index="251">
            27 -139 36 122 vvcurveto
            73 60 19 100 36 41 -4 -8 39 vhcurveto
            return
          </CharString>
          <CharString index="252">
            -10 -55 -13 -58 -13 return
          </CharString>
          <CharString index="253">
            rmoveto
            49 9 58 14 52 vhcurveto
            49 -81 86 -106 48 -55 rrcurveto
            return
          </CharString>
          <CharString index="254">
            -33 -19 18 41 77 38 92 89 31 vhcurveto
            11 4 11 2 6 vvcurveto
            10 -32 19 -17 -69 -87 -118 -119 -63 30 -52 70 return
          </CharString>
          <CharString index="255">
            vvcurveto
            -41 29 -41 26 147 301 209 132 188 -252 163 -173 return
          </CharString>
          <CharString index="256">
            -104 callsubr
            59 hlineto
            return
          </CharString>
          <CharString index="257">
            -104 callsubr
            31 hlineto
            return
          </CharString>
          <CharString index="258">
            21 -27 47 -17 return
          </CharString>
          <CharString index="259">
            rcurveline
            -107 callsubr
            return
          </CharString>
          <CharString index="260">
            -20 -86 -16 162 callsubr
            return
          </CharString>
          <CharString index="261">
            -17 -18 -13 -19 -28 41 18 5 -40 hvcurveto
            -4 -45 -82 -33 -24 vvcurveto
            -8 6 -2 10 return
          </CharString>
          <CharString index="262">
            588 rmoveto
            179 callgsubr
            return
          </CharString>
          <CharString index="263">
            rmoveto
            -1 -9 -1 -12 -13 vvcurveto
            -1 -54 -3 -70 -8 -66 return
          </CharString>
          <CharString index="264">
            hhcurveto
            -69 -30 -27 -39 hvcurveto
            -134 return
          </CharString>
          <CharString index="265">
            40 43 -56 -43 -39 -48 -30 -91 return
          </CharString>
          <CharString index="266">
            4 callsubr
            -76 -63 -68 -81 -37 hvcurveto
            -44 -1 -83 -2 -75 237 callgsubr
            65 -17 93 -88 -28 -29 -20 return
          </CharString>
          <CharString index="267">
            rmoveto
            -27 47 -40 24 8 10 9 5 26 -29 76 -21 -18 -21 -29 -20 vhcurveto
            endchar
          </CharString>
          <CharString index="268">
            28 6 71 86 17 -3 16 -6 13 hvcurveto
            return
          </CharString>
          <CharString index="269">
            86 callgsubr
            120 189 207 67 164 callgsubr
            return
          </CharString>
          <CharString index="270">
            -47 callgsubr
            -105 -150 -196 -91 201 callsubr
            hvcurveto
            return
          </CharString>
          <CharString index="271">
            126 callsubr
            -76 82 -2 return
          </CharString>
          <CharString index="272">
            -32 24 120 callsubr
            return
          </CharString>
          <CharString index="273">
            rmoveto
            108 35 83 146 37 hhcurveto
            26 5 -95 -78 -25 -1 -28 -3 -28 hvcurveto
            return
          </CharString>
          <CharString index="274">
            -99 -91 -97 -121 -26 -17 22 12 -20 hvcurveto
            return
          </CharString>
          <CharString index="275">
            -30 hhcurveto
            -12 -8 -10 -12 hvcurveto
            return
          </CharString>
          <CharString index="276">
            81 callsubr
            113 37 vhcurveto
            return
          </CharString>
          <CharString index="277">
            hlineto
            -15 -37 -11 -57 -39 vvcurveto
            -12 vlineto
            15 -20 -23 11 -20 hhcurveto
            -87 -140 -148 -100 -62 54 -38 113 return
          </CharString>
          <CharString index="278">
            636 rmoveto
            -18 38 -139 105 102 85 callgsubr
            return
          </CharString>
          <CharString index="279">
            rmoveto
            151 callsubr
            -10 -11 -15 -13 -17 36 -40 15 9 5 5 12 vhcurveto
            return
          </CharString>
          <CharString index="280">
            rmoveto
            274 callsubr
            230 callsubr
            hvcurveto
            return
          </CharString>
          <CharString index="281">
            30 9 11 10 5 27 -35 312 callsubr
            return
          </CharString>
          <CharString index="282">
            -33 20 -15 34 35 vvcurveto
            return
          </CharString>
          <CharString index="283">
            -38 -28 -81 callgsubr
            return
          </CharString>
          <CharString index="284">
            0 vlineto
            0 vlineto
            9 3 5 5 6 vvcurveto
            20 -25 10 -49 vhcurveto
            -146 264 callgsubr
            -33 22 hvcurveto
            63 56 -1 55 hhcurveto
            -64 -37 -51 -59 -59 vvcurveto
            -60 38 -36 77 return
          </CharString>
          <CharString index="285">
            270 236 rmoveto
            -70 -19 -45 -36 -50 -81 87 59 41 84 14 94 4 vhcurveto
            2 -19 6 -14 -57 vvcurveto
            return
          </CharString>
          <CharString index="286">
            71 160 29 callgsubr
            return
          </CharString>
          <CharString index="287">
            hlineto
            -17 -79 -20 -106 -16 -77 rrcurveto
            54 -32 -36 60 -59 hhcurveto
            return
          </CharString>
          <CharString index="288">
            22 -43 4 -47 -24 -32 -1 -1 -35 vhcurveto
            10 61 6 43 16 vvcurveto
            33 -24 34 -17 -15 -3 -9 -21 -32 -8 -58 -11 -71 vhcurveto
            -89 -6 -84 -11 -15 vvcurveto
            -13 18 -21 14 29 31 5 5 71 vhcurveto
            return
          </CharString>
          <CharString index="289">
            -22 callsubr
            22 return
          </CharString>
          <CharString index="290">
            197 callsubr
            hhcurveto
            return
          </CharString>
          <CharString index="291">
            -106 callsubr
            102 hlineto
            -12 -54 -10 -50 -11 -53 return
          </CharString>
          <CharString index="292">
            175 callsubr
            44 28 21 31 return
          </CharString>
          <CharString index="293">
            vvcurveto
            191 callgsubr
            return
          </CharString>
          <CharString index="294">
            135 callsubr
            -159 -204 -80 -29 vvcurveto
            -27 38 -33 23 return
          </CharString>
          <CharString index="295">
            224 callgsubr
            96 -107 callgsubr
          </CharString>
          <CharString index="296">
            -37 196 callsubr
            return
          </CharString>
          <CharString index="297">
            122 callgsubr
            80 hlineto
            -10 -9 -5 -8 -6 vvcurveto
            -13 22 -16 11 13 4 12 11 14 vhcurveto
            9 12 16 9 25 hhcurveto
            47 26 -26 -62 -99 return
          </CharString>
          <CharString index="298">
            hhcurveto
            -134 -142 -20 -84 -76 102 -94 74 72 33 82 60 31 -1 31 -6 22 hvcurveto
            24 hlineto
            return
          </CharString>
          <CharString index="299">
            -269 rmoveto
            -45 -15 -50 -40 -50 -71 64 52 41 77 14 91 4 vhcurveto
            3 -15 5 -10 -55 vvcurveto
            return
          </CharString>
          <CharString index="300">
            -41 26 -26 47 13 15 1 3 return
          </CharString>
          <CharString index="301">
            -28 -48 -38 -84 hhcurveto
            -56 -43 return
          </CharString>
          <CharString index="302">
            vvcurveto
            -66 15 -49 43 return
          </CharString>
          <CharString index="303">
            86 callsubr
            0 vlineto
            -1 vlineto
            -26 50 -15 -27 vvcurveto
            -49 -106 -63 -94 -33 -19 18 41 77 38 92 89 31 vhcurveto
            11 4 11 2 6 vvcurveto
            10 -32 19 -17 return
          </CharString>
          <CharString index="304">
            vvcurveto
            -65 58 -68 107 28 29 4 7 29 vhcurveto
            -68 -36 -77 -47 -94 return
          </CharString>
          <CharString index="305">
            -15 -55 callsubr
            return
          </CharString>
          <CharString index="306">
            95 183 rmoveto
            -52 callsubr
            -6 6 callgsubr
            return
          </CharString>
          <CharString index="307">
            165 callsubr
            118 -106 callgsubr
            endchar
          </CharString>
          <CharString index="308">
            -77 85 -38 110 return
          </CharString>
          <CharString index="309">
            -11 -17 -59 75 -64 112 105 68 60 70 hvcurveto
            125 -255 -10 39 vvcurveto
            33 118 41 39 vhcurveto
            33 24 -17 17 hhcurveto
            18 9 11 25 79 10 28 5 23 hvcurveto
            return
          </CharString>
          <CharString index="310">
            215 callgsubr
            41 20 31 88 hvcurveto
            return
          </CharString>
          <CharString index="311">
            rmoveto
            -30 -14 42 23 29 21 27 29 28 39 -17 -26 41 hvcurveto
            -35 -27 -49 -43 -38 hhcurveto
            return
          </CharString>
          <CharString index="312">
            176 -104 callsubr
            return
          </CharString>
          <CharString index="313">
            hlineto
            232 callgsubr
            return
          </CharString>
          <CharString index="314">
            -249 -85 callsubr
            return
          </CharString>
          <CharString index="315">
            rmoveto
            -12 13 -5 15 16 vvcurveto
            60 51 34 68 vhcurveto
            45 callgsubr
            -96 -65 -56 -78 -25 9 -23 22 -25 hvcurveto
            endchar
          </CharString>
          <CharString index="316">
            68 72 217 callgsubr
            return
          </CharString>
          <CharString index="317">
            hhcurveto
            -57 -37 7 60 hvcurveto
            7 2 8 9 vvcurveto
            10 -25 21 -14 -9 -3 -10 -15 return
          </CharString>
          <CharString index="318">
            -36 -11 -9 -14 hvcurveto
            40 -13 -28 33 -52 hhcurveto
            return
          </CharString>
          <CharString index="319">
            hlineto
            226 callsubr
            return
          </CharString>
          <CharString index="320">
            rmoveto
            -33 -40 58 41 return
          </CharString>
          <CharString index="321">
            6 callsubr
            -148 -440 rmoveto
            -32 -44 58 39 41 68 18 85 8 hvcurveto
            -91 -15 -24 -73 -38 hhcurveto
            return
          </CharString>
          <CharString index="322">
            147 callgsubr
            19 34 184 133 31 hvcurveto
            -37 callsubr
          </CharString>
          <CharString index="323">
            226 277 rmoveto
            136 27 20 4 16 vvcurveto
            13 -20 7 -32 -55 -220 -31 -29 -12 21 -19 15 21 37 9 15 77 vhcurveto
            endchar
          </CharString>
          <CharString index="324">
            257 callsubr
            hvcurveto
            123 9 30 4 16 vvcurveto
            20 -63 0 -156 return
          </CharString>
          <CharString index="325">
            hhcurveto
            140 92 111 181 114 vvcurveto
            12 -1 return
          </CharString>
          <CharString index="326">
            250 callsubr
            53 46 35 return
          </CharString>
          <CharString index="327">
            448 rmoveto
            14 -19 -22 11 -15 hhcurveto
            return
          </CharString>
          <CharString index="328">
            101 callsubr
            -91 return
          </CharString>
          <CharString index="329">
            82 callsubr
            22 vhcurveto
            286 callgsubr
            rrcurveto
            -130 -14 -126 -3 -75 158 callgsubr
            return
          </CharString>
          <CharString index="330">
            5 hhcurveto
            21 42 183 133 31 hvcurveto
            -103 callgsubr
            116 -107 callgsubr
          </CharString>
          <CharString index="331">
            81 113 20 22 76 hvcurveto
            -94 -229 -217 -109 -28 vvcurveto
            -9 5 -4 10 73 272 267 129 23 -11 10 -22 return
          </CharString>
          <CharString index="332">
            hhcurveto
            53 109 21 32 7 -8 1 -13 hvcurveto
            -26 -43 -15 -60 hhcurveto
            -58 -36 7 16 17 27 26 60 23 hvcurveto
            86 33 37 4 17 return
          </CharString>
          <CharString index="333">
            -92 -48 24 43 74 122 152 76 return
          </CharString>
          <CharString index="334">
            -65 -54 -66 -85 -65 vvcurveto
            -35 28 -19 43 return
          </CharString>
          <CharString index="335">
            hlineto
            -12 -44 -10 -78 -25 -100 rrcurveto
            76 -29 -45 72 -49 hhcurveto
            -107 -77 -161 -90 -65 26 -35 64 65 65 17 44 57 hvcurveto
            -9 return
          </CharString>
          <CharString index="336">
            139 -106 callgsubr
            return
          </CharString>
          <CharString index="337">
            269 callsubr
            -12 -11 -14 -18 -20 43 -44 15 return
          </CharString>
          <CharString index="338">
            284 callgsubr
            269 callsubr
            return
          </CharString>
          <CharString index="339">
            -48 -46 -43 -55 -40 vvcurveto
            return
          </CharString>
          <CharString index="340">
            16 callgsubr
            -56 hmoveto
            return
          </CharString>
          <CharString index="341">
            52 41 22 13 21 vvcurveto
            18 -14 25 -17 169 callgsubr
            vhcurveto
            return
          </CharString>
          <CharString index="342">
            vvcurveto
            -8 4 -5 10 return
          </CharString>
          <CharString index="343">
            -54 156 71 rmoveto
            -28 -22 39 44 162 88 102 84 28 21 -18 -28 23 hvcurveto
            -125 -9 -92 -176 -93 hhcurveto
            return
          </CharString>
          <CharString index="344">
            8 8 9 8 return
          </CharString>
          <CharString index="345">
            588 246 callgsubr
            return
          </CharString>
          <CharString index="346">
            vvcurveto
            -43 51 -36 61 126 188 60 35 9 -3 9 -9 vhcurveto
            -26 -131 -53 -162 hhcurveto
            -18 -15 11 21 return
          </CharString>
          <CharString index="347">
            454 rmoveto
            78 callgsubr
            75 46 -50 -66 -10 -1 -11 -2 -10 hvcurveto
            -9 -29 -35 -6 -35 hhcurveto
            return
          </CharString>
          <CharString index="348">
            -90 -156 -158 -114 -41 26 -35 47 9 10 1 1 return
          </CharString>
          <CharString index="349">
            rmoveto
            161 callsubr
            return
          </CharString>
          <CharString index="350">
            12 -23 -28 9 -16 hhcurveto
            return
          </CharString>
          <CharString index="351">
            rrcurveto
            23 -21 -26 18 -33 hhcurveto
            -131 -95 -143 -150 -103 49 -55 62 128 129 196 178 return
          </CharString>
          <CharString index="352">
            283 21 callgsubr
            return
          </CharString>
          <CharString index="353">
            319 136 callgsubr
            return
          </CharString>
          <CharString index="354">
            122 -62 callsubr
            return
          </CharString>
          <CharString index="355">
            -249 -1 636 166 callsubr
            return
          </CharString>
          <CharString index="356">
            hlineto
            -24 -54 -30 -88 -93 vvcurveto
            -96 29 -72 71 146 96 163 186 20 -7 19 -10 15 vhcurveto
            return
          </CharString>
          <CharString index="357">
            -58 -29 -59 -49 -54 33 -61 57 62 60 return
          </CharString>
          <CharString index="358">
            132 callgsubr
            hvcurveto
            return
          </CharString>
          <CharString index="359">
            -1 hlineto
            -2 hlineto
            return
          </CharString>
          <CharString index="360">
            -99 callgsubr
            -68 -34 -53 return
          </CharString>
          <CharString index="361">
            584 rmoveto
            -25 -116 -14 -77 -19 -84 rrcurveto
            102 -19 -37 100 -69 hhcurveto
            -75 -74 -75 -90 -45 hvcurveto
            return
          </CharString>
          <CharString index="362">
            100 67 94 95 295 callsubr
            return
          </CharString>
          <CharString index="363">
            -35 -7 -31 -11 -28 vhcurveto
            280 callgsubr
            return
          </CharString>
          <CharString index="364">
            24 36 6 6 73 return
          </CharString>
          <CharString index="365">
            vvcurveto
            65 -17 93 -88 return
          </CharString>
          <CharString index="366">
            rmoveto
            -62 -86 -65 -79 -11 -11 2 2 -10 vhcurveto
            75 46 79 73 46 hhcurveto
            17 9 -8 -17 hvcurveto
            return
          </CharString>
          <CharString index="367">
            8 -27 12 -24 hvcurveto
            endchar
          </CharString>
          <CharString index="368">
            rmoveto
            -30 -21 38 26 29 20 12 50 18 15 -2 -3 17 hvcurveto
            -55 -15 -24 -45 -30 hhcurveto
            return
          </CharString>
          <CharString index="369">
            439 rmoveto
            -48 callsubr
            return
          </CharString>
          <CharString index="370">
            297 callsubr
            77 -59 73 -1 vhcurveto
            return
          </CharString>
          <CharString index="371">
            vvcurveto
            -38 25 -15 43 103 132 56 81 82 vhcurveto
            return
          </CharString>
          <CharString index="372">
            rmoveto
            -5 hlineto
            34 -6 -25 16 -39 hhcurveto
            return
          </CharString>
          <CharString index="373">
            vvcurveto
            -63 66 -56 66 66 25 59 75 return
          </CharString>
          <CharString index="374">
            132 callgsubr
            vhcurveto
            return
          </CharString>
          <CharString index="375">
            -4 0 -3 -4 vvcurveto
            return
          </CharString>
          <CharString index="376">
            21 -31 56 -17 return
          </CharString>
          <CharString index="377">
            69 callsubr
            163 hlineto
            return
          </CharString>
          <CharString index="378">
            -30 -33 -30 -22 -11 6 -9 9 hvcurveto
            19 13 17 18 hhcurveto
            11 13 -7 -11 13 hvcurveto
            return
          </CharString>
          <CharString index="379">
            -85 -60 -43 -64 -13 hvcurveto
            -18 29 -13 31 31 vvcurveto
            33 -65 50 -21 -8 -2 -5 -11 return
          </CharString>
          <CharString index="380">
            rmoveto
            316 callsubr
            28 -30 61 -19 hvcurveto
            endchar
          </CharString>
          <CharString index="381">
            9 4 7 12 return
          </CharString>
          <CharString index="382">
            588 rmoveto
            76 callgsubr
            return
          </CharString>
          <CharString index="383">
            160 184 callgsubr
            return
          </CharString>
          <CharString index="384">
            226 rmoveto
            31 20 -31 -18 -47 -91 -23 -96 -2 hvcurveto
            57 36 53 64 47 hhcurveto
            return
          </CharString>
          <CharString index="385" raw="1">
            85230a0b   
          </CharString>
          <CharString index="386">
            17 87 311 callsubr
            return
          </CharString>
          <CharString index="387">
            vvcurveto
            42 -13 35 -29 21 vhcurveto
            return
          </CharString>
          <CharString index="388">
            -458 213 callsubr
            return
          </CharString>
          <CharString index="389">
            vvcurveto
            7 267 vlineto
            145 callsubr
            -60 -42 -7 -93 -20 -83 -12 rrcurveto
            return
          </CharString>
          <CharString index="390">
            63 23 callgsubr
            return
          </CharString>
          <CharString index="391">
            hhcurveto
            36 16 -18 -39 hvcurveto
            return
          </CharString>
          <CharString index="392">
            -32 vvcurveto
            176 callgsubr
            return
          </CharString>
          <CharString index="393">
            hlineto
            268 callsubr
            return
          </CharString>
          <CharString index="394">
            rrcurveto
            263 150 149 callsubr
            return
          </CharString>
          <CharString index="395">
            -34 hvcurveto
            -48 -17 -27 -20 vvcurveto
            -12 5 -9 8 19 31 59 58 64 -32 return
          </CharString>
          <CharString index="396">
            -11 -52 78 callsubr
            return
          </CharString>
          <CharString index="397">
            -54 1 -56 6 callsubr
            return
          </CharString>
          <CharString index="398">
            303 callgsubr
            endchar
          </CharString>
          <CharString index="399">
            206 160 146 198 145 -97 111 -160 return
          </CharString>
          <CharString index="400">
            rrcurveto
            317 -107 callgsubr
          </CharString>
          <CharString index="401">
            -104 112 -101 132 callgsubr
            return
          </CharString>
          <CharString index="402">
            120 vvcurveto
            37 -9 31 -19 21 vhcurveto
            return
          </CharString>
          <CharString index="403">
            -54 157 callsubr
            return
          </CharString>
          <CharString index="404">
            286 callsubr
            -90 return
          </CharString>
          <CharString index="405">
            10 9 15 15 -10 9 return
          </CharString>
          <CharString index="406">
            vvcurveto
            -9 5 -4 8 24 51 79 98 81 vhcurveto
            67 81 90 return
          </CharString>
          <CharString index="407">
            -103 -141 0 -7 -108 hvcurveto
            -4 -4 0 -1 -5 hvcurveto
            return
          </CharString>
          <CharString index="408">
            -8 -2 -5 -11 -77 193 -255 48 9 5 5 8 return
          </CharString>
          <CharString index="409">
            -49 -54 -32 -19 -9 20 -11 13 hvcurveto
            16 10 30 45 hhcurveto
            return
          </CharString>
          <CharString index="410">
            171 -107 callgsubr
          </CharString>
          <CharString index="411">
            315 callsubr
            endchar
          </CharString>
          <CharString index="412">
            -104 callsubr
            197 hlineto
            return
          </CharString>
          <CharString index="413">
            rrcurveto
            136 -106 callgsubr
            return
          </CharString>
          <CharString index="414">
            441 212 callgsubr
            return
          </CharString>
          <CharString index="415">
            rmoveto
            -18 -11 -2 -4 -7 hvcurveto
            37 -25 -41 19 -40 hhcurveto
            return
          </CharString>
          <CharString index="416">
            hhcurveto
            -41 -39 -12 -20 -30 64 28 117 -34 hvcurveto
            87 return
          </CharString>
          <CharString index="417">
            hlineto
            281 callgsubr
            return
          </CharString>
          <CharString index="418">
            18 106 3 27 rrcurveto
            return
          </CharString>
          <CharString index="419">
            86 -22 -19 -22 -30 return
          </CharString>
          <CharString index="420">
            348 -104 callsubr
            return
          </CharString>
          <CharString index="421">
            -60 -67 -95 -83 82 callsubr
            return
          </CharString>
          <CharString index="422">
            121 -106 callgsubr
            return
          </CharString>
          <CharString index="423">
            -17 -18 -22 -19 -24 41 -41 27 237 callsubr
            return
          </CharString>
          <CharString index="424">
            vlineto
            281 callgsubr
            -37 hvcurveto
            endchar
          </CharString>
          <CharString index="425">
            -40 vvcurveto
            -65 26 -51 64 return
          </CharString>
          <CharString index="426">
            39 -34 85 -70 return
          </CharString>
          <CharString index="427">
            vvcurveto
            48 66 26 88 43 42 -4 -6 33 vhcurveto
            return
          </CharString>
          <CharString index="428">
            -44 318 callsubr
            return
          </CharString>
          <CharString index="429">
            hlineto
            -9 -49 -11 -52 -12 -54 return
          </CharString>
          <CharString index="430">
            87 94 40 81 68 return
          </CharString>
          <CharString index="431">
            vvcurveto
            -21 21 -22 13 return
          </CharString>
          <CharString index="432">
            0 -7 -9 vvcurveto
            return
          </CharString>
          <CharString index="433">
            -13 -4 -6 -9 -20 73 -16 110 -41 return
          </CharString>
          <CharString index="434">
            25 26 -18 19 -26 -25 -19 -19 -26 vhcurveto
            return
          </CharString>
          <CharString index="435">
            42 -33 25 -14 rrcurveto
            -162 -30 -208 return
          </CharString>
          <CharString index="436">
            rmoveto
            30 -31 61 -20 -17 -19 -21 -20 -25 return
          </CharString>
        <CharString name=".notdef">
          244 180 hmoveto
          390 701 -390 hlineto
          54 -50 rmoveto
          282 -601 -282 hlineto
          endchar
        </CharString>
        <CharString name="A">
          90 215 324 -95 callgsubr
        </CharString>
        <CharString name="AE">
          288 407 364 rmoveto
          -85 -11 -85 -12 -52 -11 62 144 55 132 13 14 11 12 54 5 83 2 rrcurveto
          -83 -27 -99 -29 -93 vhcurveto
          -239 -82 rmoveto
          21 50 13 14 121 hvcurveto
          31 4 rlineto
          -28 -90 -26 -80 -52 239 callsubr
          31 28 87 29 98 hvcurveto
          166 19 82 11 15 vvcurveto
          14 -9 10 -25 -33 -79 -7 -10 -87 vhcurveto
          27 93 24 95 61 vvcurveto
          7 0 6 -1 6 vhcurveto
          52 hlineto
          155 46 11 15 15 -26 7 -239 -127 -106 -8 -48 -23 hvcurveto
          -20 -43 -52 -124 -47 -115 rrcurveto
          -63 -158 -61 -122 -20 vvcurveto
          -22 8 -16 19 21 47 129 141 60 vhcurveto
          endchar
        </CharString>
        <CharString name="Aacute">
          90 392 780 130 callsubr
          -177 -456 -95 callgsubr
        </CharString>
        <CharString name="Abreve">
          90 412 788 rmoveto
          64 75 54 34 13 -5 6 -14 hvcurveto
          -29 -17 -56 -63 -73 0 86 -25 hhcurveto
          -15 -17 -16 -26 -42 65 -53 54 hvcurveto
          -197 -464 -95 callgsubr
        </CharString>
        <CharString name="Acircumflex">
          90 254 172 callgsubr
          -39 -464 -95 callgsubr
        </CharString>
        <CharString name="Adieresis">
          90 488 799 rmoveto
          237 callsubr
          -16 callsubr
          hvcurveto
          -136 hmoveto
          237 callsubr
          -16 callsubr
          hvcurveto
          -137 -475 -95 callgsubr
        </CharString>
        <CharString name="Agrave">
          90 343 831 rmoveto
          -9 callgsubr
          258 callgsubr
          hvcurveto
          -128 -507 -95 callgsubr
        </CharString>
        <CharString name="Amacron">
          90 267 794 rmoveto
          24 36 6 6 73 hvcurveto
          51 callgsubr
          vhcurveto
          -52 -470 -95 callgsubr
        </CharString>
        <CharString name="Aogonek">
          90 215 324 rmoveto
          38 93 47 110 54 118 20 -82 14 -92 11 -102 -57 -12 -67 -17 -60 -16 rrcurveto
          -69 -21 rmoveto
          -58 -18 -40 -17 -11 vvcurveto
          -21 20 -4 20 6 10 2 3 14 vhcurveto
          -40 -93 -31 -74 -5 vvcurveto
          -26 16 -22 16 13 36 93 146 59 vhcurveto
          29 7 36 11 46 12 106 28 rcurveline
          6 -68 5 -73 4 -77 2 -32 4 -22 7 -13 rrcurveto
          -45 -14 -76 -85 -54 vvcurveto
          55 callsubr
          hvcurveto
          55 99 31 44 vvcurveto
          5 -1 3 -2 3 vhcurveto
          9 15 4 36 48 vvcurveto
          40 -4 79 -9 88 vhcurveto
          55 16 35 12 11 vvcurveto
          16 -13 5 -16 -12 -23 -3 -6 -31 vhcurveto
          165 -18 -32 176 -41 hhcurveto
          -35 -12 -23 -37 -18 hvcurveto
          -20 -40 -54 -122 -50 -120 rrcurveto
          endchar
        </CharString>
        <CharString name="Aring">
          90 411 899 204 callgsubr
          -181 -440 -95 callgsubr
        </CharString>
        <CharString name="Atilde">
          90 275 783 rmoveto
          31 callsubr
          221 callgsubr
          hvcurveto
          -60 -459 -95 callgsubr
        </CharString>
        <CharString name="B">
          138 137 76 rmoveto
          11 13 16 40 23 80 14 51 15 53 14 51 rrcurveto
          -13 5 21 -14 20 hhcurveto
          107 131 -33 -50 -92 -185 -86 -183 hvcurveto
          205 569 rmoveto
          83 73 -35 -54 -77 -110 -36 -80 -26 hvcurveto
          -35 -11 -33 -9 -14 -13 rrcurveto
          26 99 19 85 24 vvcurveto
          13 -12 21 -13 12 vhcurveto
          3 27 29 4 40 hhcurveto
          9 -267 rmoveto
          -7 -9 0 -8 hhcurveto
          166 31 69 65 85 vvcurveto
          85 -90 59 -193 -77 -62 -16 -15 -13 21 -26 23 vhcurveto
          10 9 1 10 hhcurveto
          -1 -2 0 -4 -3 -181 -117 -273 -44 vvcurveto
          -20 7 -20 9 -9 vhcurveto
          8 -65 -21 39 -16 hhcurveto
          -5 -6 -5 -14 -38 58 -46 100 220 195 111 117 65 -86 63 -134 hvcurveto
          endchar
        </CharString>
        <CharString name="C">
          83 560 633 59 callsubr
        </CharString>
        <CharString name="CR">
          -96 endchar
        </CharString>
        <CharString name="Cacute">
          209 577 881 rmoveto
          -63 callgsubr
          169 callgsubr
          vhcurveto
          -17 -248 59 callsubr
        </CharString>
        <CharString name="Ccaron">
          220 672 931 -56 callsubr
          -112 -298 59 callsubr
        </CharString>
        <CharString name="Ccedilla">
          83 240 -36 rmoveto
          14 24 9 22 4 15 rrcurveto
          4 hlineto
          109 153 107 32 7 -7 7 -5 hvcurveto
          -32 -77 -89 -139 hhcurveto
          -63 -65 40 77 200 234 235 106 hvcurveto
          35 18 -18 17 hhcurveto
          4 1 1 9 27 -39 42 -34 -186 -220 -307 -188 -84 63 -68 74 -22 hvcurveto
          -14 -40 -23 -35 -18 29 callsubr
          endchar
        </CharString>
        <CharString name="D">
          79 callgsubr
          endchar
        </CharString>
        <CharString name="Dcaron">
          79 callgsubr
          440 174 -56 callsubr
          endchar
        </CharString>
        <CharString name="Dcroat">
          97 201 278 rmoveto
          73 8 54 5 17 vvcurveto
          18 -26 11 -36 -4 -21 -2 -3 -25 vhcurveto
          36 131 21 73 40 121 callgsubr
          6 53 14 75 15 51 rrcurveto
          -55 68 rmoveto
          -83 -9 -54 -7 -23 vvcurveto
          -14 15 -10 26 6 25 3 7 62 vhcurveto
          -20 -76 -17 -67 -31 148 callsubr
          -12 -8 -5 -13 -17 19 -19 40 -11 vhcurveto
          -1 -5 0 -8 -10 vvcurveto
          -59 -33 -122 -31 -113 vhcurveto
          endchar
        </CharString>
        <CharString name="E">
          98 268 631 -87 callgsubr
        </CharString>
        <CharString name="Eacute">
          98 444 780 130 callsubr
          -176 -149 -87 callgsubr
        </CharString>
        <CharString name="Ecaron">
          98 432 770 105 callgsubr
          -164 -139 -87 callgsubr
        </CharString>
        <CharString name="Ecircumflex">
          98 306 172 callgsubr
          -38 -157 -87 callgsubr
        </CharString>
        <CharString name="Edieresis">
          98 540 799 rmoveto
          237 callsubr
          -16 callsubr
          hvcurveto
          -136 hmoveto
          237 callsubr
          -16 callsubr
          hvcurveto
          -136 -168 -87 callgsubr
        </CharString>
        <CharString name="Edotaccent">
          98 468 790 rmoveto
          8 10 9 5 26 -29 76 -21 -18 -21 -29 -20 -27 47 -40 24 hvcurveto
          -200 -159 -87 callgsubr
        </CharString>
        <CharString name="Egrave">
          98 395 831 rmoveto
          -9 callgsubr
          258 callgsubr
          hvcurveto
          -127 -200 -87 callgsubr
        </CharString>
        <CharString name="Emacron">
          98 319 794 rmoveto
          24 36 6 6 73 hvcurveto
          51 callgsubr
          vhcurveto
          -51 -163 -87 callgsubr
        </CharString>
        <CharString name="Eogonek">
          98 497 125 rmoveto
          -1 hlineto
          -1 hlineto
          -4 -5 -1 -1 -4 hvcurveto
          -11 -46 -117 -40 -141 hhcurveto
          -18 -15 11 21 33 32 98 31 106 hvcurveto
          -1 3 4 0 3 hhcurveto
          134 134 12 40 7 -13 2 -24 hvcurveto
          -67 -31 -10 -97 -13 -9 1 -9 hhcurveto
          24 86 21 86 57 vvcurveto
          10 vlineto
          29 3 42 8 55 4 rrcurveto
          141 11 77 2 23 vvcurveto
          14 -67 5 -125 -114 -54 -11 -11 -23 vhcurveto
          -5 -2 -4 -3 -4 -5 -1 -1 0 -1 -1 -1 rrcurveto
          -3 -6 -2 -8 -11 -181 -126 -254 -115 vvcurveto
          -43 51 -36 61 61 75 14 18 61 vhcurveto
          -18 -25 -12 -27 -22 vvcurveto
          55 callsubr
          hvcurveto
          55 99 31 44 vvcurveto
          12 -8 5 -10 1 vhcurveto
          endchar
        </CharString>
        <CharString name="Eth">
          97 203 279 rmoveto
          36 5 35 6 21 7 rrcurveto
          14 4 8 5 5 vvcurveto
          15 -30 7 -20 -10 -18 -1 -2 -22 vhcurveto
          31 112 18 65 37 121 callgsubr
          6 53 14 75 15 51 rrcurveto
          -17 451 rmoveto
          -12 -8 -5 -13 -17 19 -19 40 -11 hvcurveto
          -1 -5 0 -8 -10 vvcurveto
          -54 -27 -105 -29 -104 vhcurveto
          -38 -5 -39 -6 -27 -8 rrcurveto
          -22 -6 -14 -8 -9 vvcurveto
          -17 52 0 6 8 27 2 4 33 vhcurveto
          -25 -90 -21 -80 -36 148 callsubr
          vhcurveto
          endchar
        </CharString>
        <CharString name="Euro">
          4 99 190 rmoveto
          -94 79 -79 99 102 139 90 34 8 -4 8 -9 vhcurveto
          -31 -73 -77 -121 hhcurveto
          -74 -44 51 64 hvcurveto
          4 0 5 4 vvcurveto
          27 4 rlineto
          217 29 38 6 17 vvcurveto
          13 -24 8 -34 -28 -98 -9 -12 -88 vhcurveto
          9 35 15 35 20 34 18 1 rcurveline
          208 15 42 3 16 vvcurveto
          14 -23 13 -57 -17 -65 -1 -4 -68 vhcurveto
          89 68 91 67 56 29 16 -20 17 hhcurveto
          7 6 7 12 25 -39 39 -33 -103 -117 -104 -121 -75 hvcurveto
          -63 -6 -52 -9 -13 vvcurveto
          -13 18 -21 15 13 16 1 3 21 vhcurveto
          -17 -36 -14 -37 -7 -34 rrcurveto
          -51 -9 -36 -10 -9 vvcurveto
          -11 19 -21 15 12 14 2 3 19 vhcurveto
          endchar
        </CharString>
        <CharString name="F">
          6 197 334 rmoveto
          163 104 32 22 6 -13 3 -24 -35 -42 -7 -2 -84 hvcurveto
          -1 -19 -20 0 -23 hhcurveto
          23 94 19 92 46 vvcurveto
          4 0 5 -1 5 vhcurveto
          29 1 43 5 56 6 rrcurveto
          124 13 91 1 21 vvcurveto
          14 -83 7 -105 -141 -52 -15 -18 -10 vhcurveto
          -4 -6 -4 -9 -12 vvcurveto
          -5 -159 -120 -373 -40 vvcurveto
          -20 23 -32 12 10 14 53 59 15 vhcurveto
          10 42 22 79 21 84 rrcurveto
          endchar
        </CharString>
        <CharString name="G">
          112 464 704 18 callsubr
          endchar
        </CharString>
        <CharString name="Gbreve">
          112 464 704 18 callsubr
          190 191 100 callsubr
        </CharString>
        <CharString name="H">
          174 129 298 rmoveto
          -29 -108 -25 -94 -31 vvcurveto
          -23 22 -23 8 17 32 144 124 35 vhcurveto
          6 21 36 7 43 10 50 8 rlinecurve
          72 12 61 7 47 6 rrcurveto
          -35 -131 -35 -127 -35 vvcurveto
          -21 19 -25 10 19 30 144 124 35 vhcurveto
          8 28 7 27 7 25 rrcurveto
          36 6 19 7 11 vvcurveto
          12 -10 6 -33 2 vhcurveto
          29 113 18 85 28 vvcurveto
          36 -26 34 -16 -12 -3 -6 -23 -50 -25 -107 -29 -110 vhcurveto
          -72 -5 -135 -19 -99 -19 rrcurveto
          36 134 21 104 31 vvcurveto
          36 -25 34 -15 -11 -4 -5 -24 -59 -35 -136 -35 -131 vhcurveto
          -32 -8 -21 -8 -7 vvcurveto
          -18 19 -13 13 vhcurveto
          endchar
        </CharString>
        <CharString name="I">
          -23 callsubr
          endchar
        </CharString>
        <CharString name="Iacute">
          -23 callsubr
          112 206 rmoveto
          -63 callgsubr
          169 callgsubr
          vhcurveto
          endchar
        </CharString>
        <CharString name="Icircumflex">
          -23 callsubr
          140 218 -42 callsubr
          endchar
        </CharString>
        <CharString name="Idieresis">
          -23 callsubr
          42 141 rmoveto
          28 -30 61 -19 316 callsubr
          vhcurveto
          136 hmoveto
          28 -30 61 -19 316 callsubr
          vhcurveto
          endchar
        </CharString>
        <CharString name="Idotaccent">
          -23 callsubr
          19 182 160 callsubr
        </CharString>
        <CharString name="Igrave">
          -23 callsubr
          -58 228 rmoveto
          258 callgsubr
          vhcurveto
          -9 callgsubr
          hvcurveto
          endchar
        </CharString>
        <CharString name="Imacron">
          -23 callsubr
          74 131 rmoveto
          51 callgsubr
          257 callsubr
          vhcurveto
          endchar
        </CharString>
        <CharString name="Iogonek">
          -195 119 33 rmoveto
          16 38 29 120 28 105 rrcurveto
          46 169 28 133 37 vvcurveto
          35 -26 34 -17 -13 -2 -6 -23 vhcurveto
          -116 -131 -427 -66 vvcurveto
          -4 1 -3 1 -4 vhcurveto
          -46 -20 -68 -79 -51 vvcurveto
          55 callsubr
          51 86 31 12 39 hvcurveto
          endchar
        </CharString>
        <CharString name="J">
          -48 20 161 rmoveto
          -9 -6 -6 -12 -37 99 -93 84 90 20 57 296 87 hvcurveto
          55 187 48 97 34 vvcurveto
          23 -26 8 -21 -51 -233 -59 -37 -10 10 -6 20 37 94 41 16 114 vhcurveto
          -33 -49 -35 -94 -27 -96 rrcurveto
          -253 -70 -31 -99 -55 -78 -64 92 -19 hhcurveto
          endchar
        </CharString>
        <CharString name="K">
          79 590 679 83 callgsubr
        </CharString>
        <CharString name="L">
          40 263 640 15 callgsubr
        </CharString>
        <CharString name="Lacute">
          40 356 881 rmoveto
          -63 callgsubr
          169 callgsubr
          vhcurveto
          -93 -241 15 callgsubr
        </CharString>
        <CharString name="Lcaron">
          40 413 618 rmoveto
          40 callsubr
          123 callgsubr
          vhcurveto
          -150 22 15 callgsubr
        </CharString>
        <CharString name="Lslash">
          -10 215 374 306 callgsubr
          -49 -11 -16 -55 vhcurveto
          26 101 17 78 32 vvcurveto
          34 -26 32 -16 -13 -3 -6 -23 -57 -27 -105 -29 -107 vhcurveto
          -67 -21 -59 -24 -12 vvcurveto
          -15 30 -13 19 8 24 8 10 26 vhcurveto
          -30 -106 -27 -97 -41 vvcurveto
          -43 51 -36 62 127 181 63 40 9 -1 1 -10 vhcurveto
          -27 -126 -54 -161 hhcurveto
          -18 -15 13 20 18 7 33 40 135 hvcurveto
          7 25 7 25 7 24 rrcurveto
          endchar
        </CharString>
        <CharString name="M">
          300 269 643 rmoveto
          32 -5 -32 29 -12 hhcurveto
          -14 -2 -6 -23 hvcurveto
          -117 -136 -419 -71 vvcurveto
          -21 19 -24 11 10 36 142 123 36 vhcurveto
          22 75 25 101 13 78 38 -110 53 -116 22 -38 rrcurveto
          -21 13 19 -14 17 hhcurveto
          32 71 85 291 234 hvcurveto
          -62 -166 -73 -312 -63 vvcurveto
          -34 17 -21 13 11 30 165 132 37 vhcurveto
          47 166 38 126 40 vvcurveto
          23 -29 26 -17 -36 -108 -160 -240 -200 vhcurveto
          -66 139 -64 151 -8 52 rrcurveto
          endchar
        </CharString>
        <CharString name="N">
          196 656 652 -38 callgsubr
          endchar
        </CharString>
        <CharString name="NULL">
          endchar
        </CharString>
        <CharString name="Nacute">
          196 483 881 rmoveto
          -63 callgsubr
          169 callgsubr
          vhcurveto
          173 -229 -38 callgsubr
          endchar
        </CharString>
        <CharString name="Ncaron">
          196 578 931 -56 callsubr
          78 -279 -38 callgsubr
          endchar
        </CharString>
        <CharString name="Ntilde">
          196 656 652 -38 callgsubr
          -249 256 rmoveto
          221 callgsubr
          31 callsubr
          endchar
        </CharString>
        <CharString name="O">
          134 callgsubr
          endchar
        </CharString>
        <CharString name="OE">
          429 227 75 rmoveto
          -49 -52 52 88 204 190 229 88 52 63 -67 -124 -151 -181 -231 -111 hvcurveto
          340 265 rmoveto
          134 134 12 40 7 -13 2 -24 hvcurveto
          -67 -31 -10 -97 hhcurveto
          -12 -9 0 1 -7 hvcurveto
          2 10 2 10 1 9 rrcurveto
          21 76 16 74 50 vvcurveto
          10 vlineto
          29 3 42 8 55 4 rrcurveto
          141 11 77 2 23 vvcurveto
          14 -67 5 -125 -114 -54 -11 -11 -23 vhcurveto
          -5 -2 -4 -3 -4 -5 -1 -1 0 -1 -1 -1 rrcurveto
          -3 -6 -2 -8 -11 vvcurveto
          -15 -1 -16 -1 -16 vhcurveto
          66 -32 -55 48 -67 hhcurveto
          -141 -195 -254 -248 -79 64 -108 88 76 79 49 70 64 hvcurveto
          -3 -18 -2 -15 -14 239 callsubr
          30 27 85 28 95 hvcurveto
          4 9 3 9 3 8 rrcurveto
          endchar
        </CharString>
        <CharString name="Oacute">
          104 528 881 rmoveto
          -63 callgsubr
          169 callgsubr
          vhcurveto
          -462 -675 -53 callsubr
          endchar
        </CharString>
        <CharString name="Ocircumflex">
          104 556 893 -42 callsubr
          -490 -687 -53 callsubr
          endchar
        </CharString>
        <CharString name="Odieresis">
          104 458 816 rmoveto
          28 -30 61 -19 316 callsubr
          vhcurveto
          136 hmoveto
          28 -30 61 -19 316 callsubr
          vhcurveto
          -528 -610 -53 callsubr
          endchar
        </CharString>
        <CharString name="Ograve">
          134 callgsubr
          -46 255 rmoveto
          258 callgsubr
          vhcurveto
          -9 callgsubr
          hvcurveto
          endchar
        </CharString>
        <CharString name="Ohungarumlaut">
          104 494 980 -5 callgsubr
          -569 -768 -53 callsubr
          endchar
        </CharString>
        <CharString name="Omacron">
          104 490 806 rmoveto
          51 callgsubr
          257 callsubr
          vhcurveto
          -424 -600 -53 callsubr
          endchar
        </CharString>
        <CharString name="Oslash">
          104 519 457 rmoveto
          -151 -181 -231 -111 -26 -27 15 27 -20 vhcurveto
          65 83 107 139 180 208 rrcurveto
          8 -26 5 -30 -34 vvcurveto
          -393 -242 rmoveto
          204 190 229 88 25 27 -15 -30 22 vhcurveto
          -58 -67 -73 -93 -71 -87 -51 -62 -52 -63 -43 -54 rrcurveto
          -3 12 -1 12 14 vvcurveto
          438 398 rmoveto
          33 37 10 21 14 vvcurveto
          11 -7 7 -10 -13 -25 -20 -34 -32 vhcurveto
          36 -31 -41 23 -46 hhcurveto
          -141 -195 -254 -248 -27 7 -30 13 -27 hvcurveto
          -29 -40 -19 -28 -12 vvcurveto
          -15 10 -10 16 9 15 17 37 30 vhcurveto
          -31 26 35 -21 39 hhcurveto
          178 188 264 186 46 -11 46 -20 39 hvcurveto
          endchar
        </CharString>
        <CharString name="Otilde">
          134 callgsubr
          48 260 rmoveto
          221 callgsubr
          31 callsubr
          endchar
        </CharString>
        <CharString name="P">
          33 189 324 rmoveto
          42 150 17 87 36 vvcurveto
          10 -2 10 -3 9 vhcurveto
          11 29 39 15 43 hhcurveto
          77 59 -48 -68 -88 -117 -85 -184 -39 hvcurveto
          360 219 rmoveto
          102 -90 63 -107 -74 -108 -31 -28 -13 9 -11 10 -6 vhcurveto
          -10 -145 -125 -349 -68 324 callsubr
          9 41 136 119 35 vhcurveto
          219 43 157 83 148 vvcurveto
          endchar
        </CharString>
        <CharString name="Q">
          125 230 76 rmoveto
          -54 -49 51 89 134 75 148 83 83 hvcurveto
          -11 -27 -6 -33 -36 vvcurveto
          -101 32 -140 40 -120 vhcurveto
          -30 -38 -38 -18 -34 hhcurveto
          176 570 rmoveto
          54 63 -66 -119 -96 -63 -120 -77 -81 hvcurveto
          -30 96 -26 114 127 vvcurveto
          56 7 44 16 29 vhcurveto
          10 19 19 6 18 hhcurveto
          181 -177 rmoveto
          119 -82 116 -103 -144 -188 -241 -257 -105 66 -78 88 47 46 16 27 43 vhcurveto
          -107 40 43 -80 24 hhcurveto
          8 11 3 10 26 -40 74 -40 108 hvcurveto
          105 90 76 154 125 vvcurveto
          endchar
        </CharString>
        <CharString name="R">
          69 181 335 -36 callsubr
          endchar
        </CharString>
        <CharString name="Racute">
          69 181 335 -36 callsubr
          361 663 rmoveto
          169 callgsubr
          hvcurveto
          -63 callgsubr
          vhcurveto
          endchar
        </CharString>
        <CharString name="Rcaron">
          69 181 335 -36 callsubr
          379 643 -56 callsubr
          endchar
        </CharString>
        <CharString name="S">
          13 207 25 rmoveto
          137 108 78 108 hvcurveto
          -12 callgsubr
          -44 86 -91 115 hvcurveto
          endchar
        </CharString>
        <CharString name="Sacute">
          13 443 881 rmoveto
          -63 callgsubr
          169 callgsubr
          vhcurveto
          -236 -856 rmoveto
          137 108 78 108 hvcurveto
          -12 callgsubr
          -44 86 -91 115 hvcurveto
          endchar
        </CharString>
        <CharString name="Scaron">
          13 538 931 -56 callsubr
          -331 -906 rmoveto
          137 108 78 108 hvcurveto
          -12 callgsubr
          -44 86 -91 115 hvcurveto
          endchar
        </CharString>
        <CharString name="T">
          24 390 701 42 callsubr
        </CharString>
        <CharString name="Tcaron">
          24 348 707 105 callgsubr
          42 -6 42 callsubr
        </CharString>
        <CharString name="Thorn">
          -20 166 257 rmoveto
          17 61 13 58 11 50 rrcurveto
          13 28 25 7 24 hhcurveto
          50 51 -35 -56 -59 -98 -62 -100 -9 -9 0 1 -9 hvcurveto
          126 274 rmoveto
          -17 -25 -5 -8 -25 hvcurveto
          7 39 3 29 14 vvcurveto
          36 -27 30 -16 -15 -3 -8 -22 vhcurveto
          -167 -111 -322 -65 vvcurveto
          -21 18 -22 14 12 20 76 88 24 vhcurveto
          -2 14 14 -1 13 hhcurveto
          128 130 75 106 86 -87 64 -71 hvcurveto
          endchar
        </CharString>
        <CharString name="U">
          45 callsubr
          endchar
        </CharString>
        <CharString name="Uacute">
          93 427 881 rmoveto
          -63 callgsubr
          169 callgsubr
          vhcurveto
          -182 -245 -57 callsubr
          endchar
        </CharString>
        <CharString name="Ucircumflex">
          93 455 893 -42 callsubr
          -210 -257 -57 callsubr
          endchar
        </CharString>
        <CharString name="Udieresis">
          93 357 816 rmoveto
          28 -30 61 -19 316 callsubr
          vhcurveto
          136 hmoveto
          28 -30 61 -19 316 callsubr
          vhcurveto
          -248 -180 -57 callsubr
          endchar
        </CharString>
        <CharString name="Ugrave">
          45 callsubr
          12 267 rmoveto
          258 callgsubr
          vhcurveto
          -9 callgsubr
          hvcurveto
          endchar
        </CharString>
        <CharString name="Uhungarumlaut">
          45 callsubr
          148 344 -5 callgsubr
          endchar
        </CharString>
        <CharString name="Umacron">
          45 callsubr
          144 170 rmoveto
          51 callgsubr
          257 callsubr
          vhcurveto
          endchar
        </CharString>
        <CharString name="Uogonek">
          93 285 16 rmoveto
          141 37 132 223 332 vvcurveto
          71 -39 25 -17 -11 -3 -3 -13 vhcurveto
          -30 7 -40 -60 vvcurveto
          -272 -151 -220 -95 -54 -37 53 88 vhcurveto
          101 87 234 94 vvcurveto
          35 -31 33 -15 -12 -2 -5 -24 vhcurveto
          -144 -86 -195 -143 vvcurveto
          -81 41 -74 63 -22 vhcurveto
          -34 -33 -32 -48 -35 vvcurveto
          55 callsubr
          46 68 29 24 34 hvcurveto
          endchar
        </CharString>
        <CharString name="Uring">
          93 406 944 113 callsubr
          -155 -263 -57 callsubr
          endchar
        </CharString>
        <CharString name="V">
          26 563 704 rmoveto
          -44 -220 -430 -169 -59 hvcurveto
          -65 216 -15 258 -19 64 rrcurveto
          35 -11 -22 26 -19 hhcurveto
          -8 -3 -8 -16 -69 77 -447 37 -88 hvcurveto
          -33 14 14 -31 17 hhcurveto
          27 40 121 233 118 hvcurveto
          102 204 67 71 41 vvcurveto
          11 -16 11 -12 vhcurveto
          endchar
        </CharString>
        <CharString name="W">
          274 515 704 rmoveto
          -30 -14 -5 -16 -15 32 -34 36 88 43 -139 -103 -153 -71 -153 -89 hvcurveto
          -78 24 318 -62 hhcurveto
          -39 -138 -175 -130 -83 hvcurveto
          18 204 59 296 50 vvcurveto
          26 -34 29 -17 -12 -8 -8 -27 vhcurveto
          -160 -60 -323 -87 vvcurveto
          -43 20 -34 18 20 30 26 124 93 vhcurveto
          37 49 38 55 45 57 rrcurveto
          -171 13 25 -138 91 hhcurveto
          117 103 176 183 174 -71 147 -144 hvcurveto
          endchar
        </CharString>
        <CharString name="X">
          139 320 390 rmoveto
          -58 95 -47 98 78 vvcurveto
          24 -31 19 -28 -8 -4 -4 -14 -82 61 -137 75 -129 vhcurveto
          -96 -122 -85 -99 -36 -37 rrcurveto
          -16 -17 -8 -4 -12 vvcurveto
          -10 17 -14 10 39 44 62 203 161 vhcurveto
          -144 88 97 -121 31 hhcurveto
          5 8 6 15 38 -99 122 -88 136 hvcurveto
          2 3 123 156 78 104 33 26 rlinecurve
          25 19 18 11 10 vvcurveto
          11 -25 24 -11 -29 -44 -48 -211 -160 vhcurveto
          endchar
        </CharString>
        <CharString name="Y">
          37 callsubr
          endchar
        </CharString>
        <CharString name="Yacute">
          37 callsubr
          75 525 rmoveto
          -63 callgsubr
          169 callgsubr
          vhcurveto
          endchar
        </CharString>
        <CharString name="Ydieresis">
          37 callsubr
          5 460 rmoveto
          28 -30 61 -19 316 callsubr
          vhcurveto
          136 hmoveto
          28 -30 61 -19 316 callsubr
          vhcurveto
          endchar
        </CharString>
        <CharString name="Z">
          100 562 581 -13 callsubr
          endchar
        </CharString>
        <CharString name="Zacute">
          100 447 881 rmoveto
          -63 callgsubr
          169 callgsubr
          vhcurveto
          115 -300 -13 callsubr
          endchar
        </CharString>
        <CharString name="Zcaron">
          100 542 931 -56 callsubr
          20 -350 -13 callsubr
          endchar
        </CharString>
        <CharString name="Zdotaccent">
          100 562 581 -13 callsubr
          -208 276 160 callsubr
        </CharString>
        <CharString name="a">
          -59 314 308 rmoveto
          -131 -37 -82 -101 -69 hhcurveto
          -29 -35 21 31 100 144 215 79 33 13 -48 -41 -10 0 -8 1 -7 hvcurveto
          -10 -3 -6 -8 -2 -10 rrcurveto
          70 70 rmoveto
          319 callsubr
          -119 -161 -243 -130 -57 69 -55 62 62 69 64 69 39 vhcurveto
          -76 2 -57 25 20 -5 55 62 11 vhcurveto
          14 77 3 50 30 vvcurveto
          10 -3 9 -6 7 vhcurveto
          11 15 11 24 22 vvcurveto
          endchar
        </CharString>
        <CharString name="aacute">
          -59 314 308 -72 callsubr
          202 236 rmoveto
          169 callgsubr
          hvcurveto
          -63 callgsubr
          vhcurveto
          endchar
        </CharString>
        <CharString name="abreve">
          -59 314 308 -72 callsubr
          219 180 100 callsubr
        </CharString>
        <CharString name="acircumflex">
          -59 314 308 -72 callsubr
          153 178 -42 callsubr
          endchar
        </CharString>
        <CharString name="acute">
          73 764 rmoveto
          -63 callgsubr
          169 callgsubr
          vhcurveto
          endchar
        </CharString>
        <CharString name="adieresis">
          -59 319 586 rmoveto
          237 callsubr
          -16 callsubr
          hvcurveto
          -5 -278 -72 callsubr
          142 190 273 callsubr
        </CharString>
        <CharString name="ae">
          223 299 502 rmoveto
          -134 -136 -240 -130 -64 64 -51 54 71 47 59 80 51 hvcurveto
          -86 7 74 -53 84 hhcurveto
          268 callgsubr
          -7 6 -11 hvcurveto
          194 callsubr
          32 50 29 5 33 11 32 hvcurveto
          -11 45 44 -8 47 hhcurveto
          157 callgsubr
          -60 -53 -41 -50 -40 hvcurveto
          48 -13 -39 43 -57 hhcurveto
          105 -210 rmoveto
          83 37 63 71 63 hhcurveto
          158 callsubr
          -30 -39 5 9 -38 hvcurveto
          -100 151 rmoveto
          42 15 -37 -65 1 hvcurveto
          -9 -14 -6 -15 -5 -13 rrcurveto
          -140 -62 -59 -83 -79 hhcurveto
          -23 -31 21 31 100 119 215 97 hvcurveto
          endchar
        </CharString>
        <CharString name="agrave">
          -59 314 308 -72 callsubr
          59 167 rmoveto
          39 -37 -15 24 -15 hhcurveto
          -21 -16 -25 -17 258 callgsubr
          hvcurveto
          -24 32 27 -27 15 hhcurveto
          10 10 10 9 17 -13 10 -52 56 hvcurveto
          endchar
        </CharString>
        <CharString name="amacron">
          -59 314 308 -72 callsubr
          21 141 callsubr
        </CharString>
        <CharString name="ampersand">
          154 83 107 rmoveto
          31 74 58 84 68 vhcurveto
          19 -39 25 -37 27 -33 rrcurveto
          -47 -73 -71 -37 -45 hhcurveto
          -23 -17 15 21 hvcurveto
          165 356 rmoveto
          74 48 68 62 44 17 -26 -32 -56 -72 -69 -82 -69 vhcurveto
          -11 37 -6 37 36 vvcurveto
          293 -383 rmoveto
          -51 -50 24 37 -43 hvcurveto
          118 79 105 91 19 vvcurveto
          14 -6 7 -16 -17 -110 -90 -78 -115 vhcurveto
          -29 34 -24 40 -19 43 rrcurveto
          99 81 98 91 75 vvcurveto
          45 -20 65 -93 -108 -73 -93 -95 -49 11 -53 20 -52 vhcurveto
          -98 -79 -98 -74 -47 vvcurveto
          -55 55 -45 43 56 88 43 54 88 vhcurveto
          -52 56 65 -34 66 hhcurveto
          60 22 16 19 15 -17 4 -63 hvcurveto
          endchar
        </CharString>
        <CharString name="aogonek">
          -59 126 76 rmoveto
          -29 -35 21 31 100 144 215 79 33 13 -48 -41 -10 0 -8 1 -7 hvcurveto
          -10 -3 -6 -8 -2 -10 rrcurveto
          -131 -37 -82 -101 -69 hhcurveto
          212 -51 rmoveto
          9 18 -1 44 8 47 rrcurveto
          14 77 3 50 30 vvcurveto
          10 -3 9 -6 7 vhcurveto
          11 15 11 24 22 vvcurveto
          319 callsubr
          -119 -161 -243 -130 -57 69 -55 62 62 69 64 69 39 vhcurveto
          -42 1 -37 4 -24 vhcurveto
          -45 -12 -77 -87 -54 vvcurveto
          55 callsubr
          53 91 30 7 41 hvcurveto
          endchar
        </CharString>
        <CharString name="apostrophemod">
          209 callgsubr
        </CharString>
        <CharString name="approxequal">
          85 218 331 89 callgsubr
          50 208 89 callgsubr
          endchar
        </CharString>
        <CharString name="aring">
          -59 314 308 -72 callsubr
          88 92 rmoveto
          -16 -11 17 21 32 20 22 17 16 11 -17 -22 -32 -19 -21 -18 hvcurveto
          16 137 rmoveto
          -52 -37 -58 -44 -43 29 -35 39 52 37 58 44 43 -29 35 -39 hvcurveto
          endchar
        </CharString>
        <CharString name="asciicircum">
          -84 308 690 rmoveto
          -30 75 -2 22 -15 21 rrcurveto
          13 -9 -29 4 -11 hhcurveto
          -37 -98 -168 -62 -11 6 -9 11 21 16 42 51 28 hvcurveto
          16 30 21 31 28 29 rrcurveto
          -65 26 58 -127 31 hhcurveto
          8 4 4 11 12 -20 42 -23 55 hvcurveto
          endchar
        </CharString>
        <CharString name="asciitilde">
          92 244 425 89 callgsubr
          endchar
        </CharString>
        <CharString name="asterisk">
          -158 258 663 rmoveto
          41 17 71 37 9 vvcurveto
          11 -15 9 -11 -12 -38 -37 -29 -44 vhcurveto
          10 30 9 34 9 vvcurveto
          15 -21 18 -9 -8 -4 -3 -11 -12 0 -45 -2 -32 vhcurveto
          -18 8 -32 41 -6 7 rrcurveto
          11 -9 -20 3 -15 hhcurveto
          -9 -1 -5 -6 -17 67 -50 31 -11 hvcurveto
          -51 -31 -56 -16 -10 vvcurveto
          -10 10 -11 11 10 61 36 21 22 vhcurveto
          -7 -36 -20 -43 -10 vvcurveto
          -6 9 -12 9 13 16 78 29 4 vhcurveto
          -28 32 37 -28 13 hhcurveto
          8 12 9 8 12 -54 20 -34 27 hvcurveto
          endchar
        </CharString>
        <CharString name="at">
          398 567 327 rmoveto
          -134 -33 -88 -102 -70 hhcurveto
          -29 -38 23 34 102 146 218 80 35 14 -52 -42 -13 0 -10 1 -6 hvcurveto
          -10 -2 -6 -7 -2 -9 rrcurveto
          10 383 rmoveto
          -325 -211 -348 -250 -147 103 -130 175 110 161 49 46 5 -3 3 -5 hvcurveto
          -25 -74 -52 -163 hhcurveto
          -130 -90 95 133 232 200 312 279 170 55 -127 -136 -147 -116 -131 -67 -30 -16 30 25 hvcurveto
          56 43 62 21 vvcurveto
          11 -4 9 -7 6 vhcurveto
          11 12 13 26 23 vvcurveto
          38 -33 81 -68 -118 -159 -240 -128 -54 67 -53 61 45 54 33 63 50 vhcurveto
          -45 7 36 -25 35 hhcurveto
          122 134 167 166 168 -97 141 -190 hvcurveto
          endchar
        </CharString>
        <CharString name="atilde">
          -59 314 308 -72 callsubr
          226 180 rmoveto
          -29 -5 -61 -2 -40 hvcurveto
          2 -37 -5 74 -61 hhcurveto
          221 callgsubr
          24 11 51 24 49 hvcurveto
          -52 37 31 -27 36 hhcurveto
          54 39 54 38 15 -6 9 -11 hvcurveto
          endchar
        </CharString>
        <CharString name="b">
          -4 223 72 rmoveto
          -35 -43 23 57 -32 hvcurveto
          148 66 115 145 83 hhcurveto
          34 13 -35 -52 -144 -110 -142 -91 hvcurveto
          160 435 rmoveto
          -81 -81 -79 -117 -73 hvcurveto
          52 217 6 150 37 vvcurveto
          33 -25 34 -16 -15 -3 -9 -21 vhcurveto
          -334 -123 -293 -65 324 callsubr
          7 13 34 48 14 vhcurveto
          -54 38 43 -31 59 hhcurveto
          123 132 193 151 80 -39 69 -65 hvcurveto
          endchar
        </CharString>
        <CharString name="backslash">
          94 480 -75 rmoveto
          9 21 25 11 37 -82 198 -242 538 hvcurveto
          22 -10 -1 7 -10 hhcurveto
          -10 -26 -35 -21 -53 122 -210 65 -156 hvcurveto
          -329 137 14 -34 13 hhcurveto
          endchar
        </CharString>
        <CharString name="bar">
          -186 52 -75 rmoveto
          -21 22 -23 13 15 65 299 116 30 vhcurveto
          39 155 58 252 33 vvcurveto
          33 -26 34 -17 -15 -2 -8 -22 vhcurveto
          -104 -182 -683 -61 vvcurveto
          endchar
        </CharString>
        <CharString name="braceleft">
          -107 364 853 rmoveto
          -87 -88 -72 -99 hvcurveto
          -97 45 -76 -51 vvcurveto
          -35 -26 -25 -41 vhcurveto
          -38 -29 34 -17 hhcurveto
          -6 -5 -9 -9 -16 12 -14 17 -11 hvcurveto
          6 -11 11 -17 -17 -99 -69 -57 -100 vvcurveto
          -84 62 -72 90 43 41 14 22 12 -10 4 -36 -87 -39 33 71 vhcurveto
          108 56 49 68 vvcurveto
          21 -3 18 -6 15 vhcurveto
          -1 8 8 -1 7 hhcurveto
          66 40 47 45 hvcurveto
          59 -45 53 110 vvcurveto
          76 60 52 66 69 3 -41 -59 -14 2 -10 9 18 18 33 36 67 -47 50 -78 vhcurveto
          endchar
        </CharString>
        <CharString name="braceright">
          -16 422 314 rmoveto
          0 vlineto
          15 6 9 12 10 vvcurveto
          9 -11 0 -22 4 vhcurveto
          -13 2 -13 4 -12 5 rrcurveto
          -24 11 -20 19 30 67 174 91 125 vvcurveto
          74 -80 70 -74 -72 -89 -58 -46 -10 23 -22 11 vhcurveto
          23 23 81 72 hhcurveto
          53 48 -39 -56 hvcurveto
          -104 -170 -84 -89 vvcurveto
          -46 33 -39 42 -19 vhcurveto
          -81 -82 66 -271 -122 -89 10 50 -36 hhcurveto
          -8 -6 -8 -14 -35 66 -46 70 195 -121 345 51 128 hvcurveto
          endchar
        </CharString>
        <CharString name="bracketleft">
          -58 278 759 rmoveto
          -2 -4 -1 -6 -7 -120 -194 -524 -83 vvcurveto
          -44 49 -27 56 42 101 23 34 8 -4 4 -11 vhcurveto
          -25 -68 -11 -50 hhcurveto
          -16 -10 9 16 17 9 34 59 189 hvcurveto
          48 152 74 248 42 vvcurveto
          7 -1 6 -2 7 vhcurveto
          13 1 15 3 24 2 rrcurveto
          116 12 24 2 17 vvcurveto
          24 -56 3 -40 -60 -88 -7 -25 -2 vhcurveto
          endchar
        </CharString>
        <CharString name="bracketright">
          -95 362 713 rmoveto
          19 -22 15 -63 -57 -94 -10 -28 -10 11 -5 18 -3 vhcurveto
          -3 20 28 -1 28 hhcurveto
          34 21 -1 -2 15 hvcurveto
          -1 -5 -1 -5 -6 vvcurveto
          -78 -120 -524 -15 -55 vhcurveto
          -17 -4 -8 -9 -17 -49 -61 14 -28 hhcurveto
          -11 -5 -3 -9 -30 92 -30 59 60 24 23 46 12 hvcurveto
          29 116 105 469 121 vvcurveto
          6 vlineto
          endchar
        </CharString>
        <CharString name="breve">
          167 682 100 callsubr
        </CharString>
        <CharString name="brokenbar">
          -184 108 224 rmoveto
          -104 -55 -134 -61 vvcurveto
          -21 22 -23 13 22 58 266 40 33 -26 34 -16 -15 -3 -8 -22 vhcurveto
          127 549 rmoveto
          -104 -55 -134 -62 vvcurveto
          -20 22 -23 13 23 57 266 40 33 -25 34 -17 -15 -3 -8 -22 vhcurveto
          endchar
        </CharString>
        <CharString name="bullet">
          -269 65 334 rmoveto
          -34 59 -61 37 11 14 13 5 34 -44 106 -26 -24 -27 -36 -27 vhcurveto
          endchar
        </CharString>
        <CharString name="c">
          -84 305 502 rmoveto
          -124 -146 -206 -136 -84 72 -59 82 57 callgsubr
          hvcurveto
          endchar
        </CharString>
        <CharString name="cacute">
          -84 363 668 rmoveto
          -63 callgsubr
          169 callgsubr
          vhcurveto
          -58 -166 rmoveto
          -124 -146 -206 -136 -84 72 -59 82 57 callgsubr
          hvcurveto
          endchar
        </CharString>
        <CharString name="caron">
          168 97 callsubr
          endchar
        </CharString>
        <CharString name="ccaron">
          -84 458 97 callsubr
          -153 -216 rmoveto
          -124 -146 -206 -136 -84 72 -59 82 57 callgsubr
          hvcurveto
          endchar
        </CharString>
        <CharString name="ccedilla">
          -84 159 -36 rmoveto
          11 20 9 19 5 14 rrcurveto
          5 hlineto
          57 callgsubr
          -124 -146 -206 -136 -65 43 -49 56 -20 hvcurveto
          -14 -37 -20 -32 -17 29 callsubr
          endchar
        </CharString>
        <CharString name="cedilla">
          -36 -72 rmoveto
          19 33 11 29 14 vvcurveto
          15 -6 8 -16 -10 -12 -4 -17 -5 vhcurveto
          -14 -44 -26 -39 -19 29 callsubr
          endchar
        </CharString>
        <CharString name="cent">
          -58 121 161 rmoveto
          84 80 137 80 47 vhcurveto
          -31 -110 -33 -140 -22 -99 rrcurveto
          -46 5 -28 33 43 vvcurveto
          233 351 rmoveto
          7 27 8 15 14 vvcurveto
          18 -10 19 -13 -9 -16 -42 -62 -19 vhcurveto
          -117 -28 -124 -185 -125 vvcurveto
          -73 53 -54 68 -13 vhcurveto
          -8 -37 -5 -25 -6 vvcurveto
          -10 16 -18 7 5 13 37 57 16 vhcurveto
          69 6 101 57 25 vvcurveto
          11 -4 5 -10 -27 -31 -35 -9 -81 vhcurveto
          31 116 39 155 24 94 rrcurveto
          -2 36 22 -44 25 hhcurveto
          7 5 5 9 23 -26 55 -54 11 hvcurveto
          endchar
        </CharString>
        <CharString name="circumflex">
          101 178 callgsubr
          endchar
        </CharString>
        <CharString name="colon">
          -260 35 76 rmoveto
          -28 48 -54 29 9 9 9 6 29 -33 91 -24 -18 -20 -31 -22 vhcurveto
          93 370 rmoveto
          -28 48 -55 29 9 10 9 7 28 -33 92 -25 -18 -20 -32 -21 vhcurveto
          endchar
        </CharString>
        <CharString name="comma">
          -296 15 -150 96 callgsubr
        </CharString>
        <CharString name="copyright">
          202 467 552 rmoveto
          -103 -122 -168 -103 -55 56 -51 54 63 84 58 24 6 -3 9 -10 hvcurveto
          -21 -42 -46 -70 hhcurveto
          -30 -29 23 30 104 119 120 52 hvcurveto
          16 9 -9 13 hhcurveto
          5 6 3 10 19 -26 26 -21 hvcurveto
          179 -138 rmoveto
          -201 -127 -111 -195 -103 -76 66 121 209 184 119 143 96 78 -84 -119 vhcurveto
          -308 -354 rmoveto
          292 callsubr
          292 callgsubr
          hvcurveto
          endchar
        </CharString>
        <CharString name="currency">
          94 293 173 rmoveto
          -47 -44 49 60 66 46 89 73 49 42 -50 -62 -66 -47 -86 -72 hvcurveto
          150 248 rmoveto
          29 30 42 40 12 vvcurveto
          12 -19 15 -15 -15 -26 -24 -43 -34 vhcurveto
          15 -22 -26 9 -29 hhcurveto
          -33 -30 -11 -17 -25 hvcurveto
          -6 17 -4 14 -1 10 rrcurveto
          20 -3 -33 10 -20 hhcurveto
          -12 -2 -5 -12 -13 18 -34 23 -45 hvcurveto
          -33 -40 -18 -53 -47 vvcurveto
          -36 10 -33 18 -26 vhcurveto
          -40 -41 -26 -24 -8 vvcurveto
          -13 19 -17 15 10 27 27 38 33 vhcurveto
          -14 20 25 -8 27 hhcurveto
          27 25 7 13 22 hvcurveto
          -39 30 28 -24 15 hhcurveto
          8 10 6 8 11 -21 27 -29 43 hvcurveto
          40 42 24 61 52 vvcurveto
          33 -8 30 -15 25 vhcurveto
          endchar
        </CharString>
        <CharString name="d">
          -28 355 132 callsubr
          65 71 54 63 53 hvcurveto
          -8 -36 -6 -26 238 callgsubr
          endchar
        </CharString>
        <CharString name="dagger">
          -176 402 433 rmoveto
          181 callsubr
          -35 -200 -54 -258 -35 324 callsubr
          15 29 144 149 29 vhcurveto
          299 callgsubr
          endchar
        </CharString>
        <CharString name="daggerdbl">
          -176 150 154 rmoveto
          299 callgsubr
          181 callsubr
          -13 -79 -17 -89 -16 -80 rrcurveto
          -88 -7 -82 -11 -14 vvcurveto
          -12 19 -22 14 26 31 5 5 69 vhcurveto
          -18 -96 -14 -75 -18 324 callsubr
          13 24 110 128 25 vhcurveto
          170 14 28 6 15 vvcurveto
          14 -27 10 -30 -26 -50 -2 -3 -54 vhcurveto
          endchar
        </CharString>
        <CharString name="danda">
          -249 102 29 rmoveto
          94 callgsubr
          endchar
        </CharString>
        <CharString name="dcaron">
          201 385 132 callsubr
          67 70 56 64 53 hvcurveto
          -9 -37 -6 -28 238 callgsubr
          149 -15 rmoveto
          273 callgsubr
          29 97 52 77 41 -34 24 -32 vhcurveto
          endchar
        </CharString>
        <CharString name="dcroat">
          2 385 279 rmoveto
          -115 -42 -120 -93 -56 hhcurveto
          -28 -32 23 32 128 119 189 94 46 23 -70 -80 hvcurveto
          142 308 rmoveto
          123 9 30 4 16 vvcurveto
          17 -46 3 -111 vhcurveto
          5 33 2 22 10 vvcurveto
          33 -25 34 -17 -15 -2 -9 -21 vhcurveto
          -2 -33 -4 -34 -4 -35 rrcurveto
          -47 -73 -5 -16 -14 26 -26 27 14 18 2 3 26 hvcurveto
          -11 -65 -14 -66 -15 -63 rrcurveto
          61 -14 -31 41 -55 hhcurveto
          -144 -125 -246 -124 -53 47 -62 64 65 71 54 63 53 hvcurveto
          -8 -36 -6 -26 -14 vvcurveto
          -22 20 -19 13 15 38 146 117 30 vhcurveto
          34 131 22 111 14 78 rrcurveto
          endchar
        </CharString>
        <CharString name="degree">
          -211 234 725 rmoveto
          -92 -68 -103 -79 -61 38 -48 58 92 68 102 80 62 -37 47 -59 hvcurveto
          -13 -53 rmoveto
          29 20 -28 -37 -50 -33 -73 -54 -30 -20 27 36 50 34 75 54 hvcurveto
          endchar
        </CharString>
        <CharString name="dieresis">
          3 745 rmoveto
          28 -30 61 -19 316 callsubr
          vhcurveto
          136 hmoveto
          28 -30 61 -19 316 callsubr
          vhcurveto
          endchar
        </CharString>
        <CharString name="divide">
          94 105 287 rmoveto
          232 240 29 34 12 -17 6 -25 hvcurveto
          -99 -72 -19 -186 -53 -38 315 callgsubr
          103 -155 rmoveto
          -28 48 -49 174 callsubr
          -21 vhcurveto
          76 393 rmoveto
          -27 48 -50 174 callsubr
          -21 vhcurveto
          endchar
        </CharString>
        <CharString name="dollar">
          -3 270 375 rmoveto
          -46 34 -37 30 27 vvcurveto
          35 65 37 75 22 vhcurveto
          -15 -48 -19 -61 -23 -76 rrcurveto
          121 -194 rmoveto
          -53 -67 -42 -88 -10 vhcurveto
          17 55 21 70 26 84 rrcurveto
          50 -35 41 -34 -35 vvcurveto
          33 495 rmoveto
          6 18 2 15 11 vvcurveto
          16 -5 9 -12 -21 -10 -12 -108 -36 vhcurveto
          -70 -17 -78 -32 -44 -40 rrcurveto
          -15 -12 -12 -40 -27 vvcurveto
          -50 60 -45 63 -44 vhcurveto
          -21 -66 -33 -97 -22 -79 rrcurveto
          13 -73 -47 84 -20 hhcurveto
          -11 -6 -7 -14 -34 56 -76 88 -20 hvcurveto
          -6 -24 -3 -21 -14 vvcurveto
          -15 5 -10 10 13 15 27 52 19 vhcurveto
          121 4 118 67 94 vvcurveto
          58 -70 53 -68 49 vhcurveto
          21 69 24 78 28 85 rrcurveto
          3 20 20 2 18 17 15 -8 13 hhcurveto
          6 5 2 8 19 -18 39 -37 -12 -12 -1 -1 -14 hvcurveto
          endchar
        </CharString>
        <CharString name="dotaccent">
          -20 740 160 callsubr
        </CharString>
        <CharString name="dotlessi">
          -246 197 203 callgsubr
          endchar
        </CharString>
        <CharString name="dottedcircle">
          154 139 517 rmoveto
          -26 18 -19 26 26 18 19 26 25 -18 19 -26 -26 -18 -19 -25 vhcurveto
          -82 -110 rmoveto
          -25 20 -19 26 24 20 19 25 25 -20 19 -24 -26 -20 -19 -25 vhcurveto
          -13 -126 rmoveto
          -25 19 -18 25 26 18 18 327 callsubr
          52 -116 rmoveto
          -26 18 -18 26 25 19 18 26 25 -19 19 -25 -26 -18 -19 -25 vhcurveto
          101 -75 rmoveto
          -26 19 -20 26 25 19 20 26 24 -19 20 -25 -26 -19 -20 -24 vhcurveto
          127 -16 rmoveto
          -26 18 -18 26 26 19 18 26 26 -19 18 -26 -26 -18 -18 -26 vhcurveto
          121 53 rmoveto
          -26 19 -18 25 25 20 18 26 25 -20 19 -25 -25 -19 -19 -25 vhcurveto
          73 98 rmoveto
          -25 19 -19 26 24 19 19 25 26 -19 19 -24 -26 -19 -19 -26 vhcurveto
          10 134 rmoveto
          -26 18 -18 26 25 19 18 26 26 -19 18 -25 -26 -18 -18 -26 vhcurveto
          -50 118 rmoveto
          -25 19 -19 25 26 18 19 327 callsubr
          -95 68 rmoveto
          -24 19 -20 26 25 18 20 24 26 -18 19 -25 -26 -19 -19 -26 vhcurveto
          -126 15 rmoveto
          -26 18 -18 26 26 18 18 26 26 -18 18 -26 -26 -18 -18 -26 vhcurveto
          endchar
        </CharString>
        <CharString name="doubledanda">
          86 132 29 rmoveto
          94 callgsubr
          236 hmoveto
          94 callgsubr
          endchar
        </CharString>
        <CharString name="dvA">
          220 568 636 rmoveto
          -88 callsubr
          117 -107 callgsubr
        </CharString>
        <CharString name="dvA.init">
          359 7 callgsubr
          117 -107 callgsubr
        </CharString>
        <CharString name="dvAA">
          500 568 636 rmoveto
          -88 callsubr
          207 -90 callsubr
        </CharString>
        <CharString name="dvAA.init">
          620 7 callgsubr
          188 -90 callsubr
        </CharString>
        <CharString name="dvAI">
          34 451 171 callsubr
          -356 -46 callsubr
          132 hlineto
          -10 -91 -95 -274 -106 vvcurveto
          -71 33 -39 99 105 112 28 39 14 -9 6 -15 vhcurveto
          -39 -33 -34 -123 hhcurveto
          -54 -15 16 47 100 93 275 8 90 hvcurveto
          189 hlineto
          16 -22 26 -33 -66 vvcurveto
          -79 -52 -61 -86 -22 -6 -8 -13 -11 13 -12 29 96 84 70 112 50 -13 43 -19 30 vhcurveto
          126 -107 callgsubr
        </CharString>
        <CharString name="dvAU">
          503 982 3 callgsubr
          -375 hlineto
          -88 callsubr
          210 -90 callsubr
        </CharString>
        <CharString name="dvAU.init">
          620 1109 3 callgsubr
          -363 hlineto
          -81 callsubr
          188 -90 callsubr
        </CharString>
        <CharString name="dvAbbreviationsign">
          -239 144 390 113 callsubr
          endchar
        </CharString>
        <CharString name="dvAcandra">
          220 568 636 rmoveto
          -88 callsubr
          117 -106 callgsubr
          56 219 rmoveto
          -29 41 -114 -179 hhcurveto
          -85 -73 43 58 hvcurveto
          7 3 1 8 vvcurveto
          10 -21 12 -18 -11 -4 -10 -15 -103 110 -52 95 186 callgsubr
          vhcurveto
          endchar
        </CharString>
        <CharString name="dvAcandra.init">
          endchar
        </CharString>
        <CharString name="dvAnusvara">
          30 737 rmoveto
          21 -31 56 -17 91 callsubr
          vhcurveto
          endchar
        </CharString>
        <CharString name="dvAnusvara.amI">
          30 737 rmoveto
          21 -31 56 -17 91 callsubr
          vhcurveto
          endchar
        </CharString>
        <CharString name="dvAvagraha">
          -7 226 55 rmoveto
          114 152 88 97 hvcurveto
          112 -293 44 57 vvcurveto
          24 34 33 101 22 vhcurveto
          95 21 70 -6 18 vvcurveto
          17 -24 21 -35 -66 -171 -39 -47 -32 vhcurveto
          -12 -17 -16 -36 -23 -91 284 -19 -94 vvcurveto
          -56 -102 -73 -111 vhcurveto
          -74 -61 99 -22 hhcurveto
          -9 -3 -6 -11 -46 88 -89 93 hvcurveto
          endchar
        </CharString>
        <CharString name="dvB">
          -151 95 183 rmoveto
          -52 callsubr
          339 93 rmoveto
          -15 -42 -42 -41 -55 hvcurveto
          -81 callgsubr
          113 197 144 47 13 -3 4 -10 hvcurveto
          -345 360 -104 callsubr
          387 -107 callgsubr
        </CharString>
        <CharString name="dvBA">
          20 326 198 -49 callsubr
          -6 6 callgsubr
          377 108 callgsubr
        </CharString>
        <CharString name="dvBH">
          -60 137 130 47 callgsubr
          340 -138 rmoveto
          12 -8 8 -18 -38 -94 -2 -9 -83 vhcurveto
          169 callsubr
          132 13 122 0 23 vvcurveto
          endchar
        </CharString>
        <CharString name="dvBHA">
          140 137 87 callsubr
          219 callgsubr
          vhcurveto
          -5 -30 -7 -31 -8 -29 rrcurveto
          -127 -13 -131 -8 -77 -14 callgsubr
        </CharString>
        <CharString name="dvBH_LA">
          651 137 130 47 callgsubr
          331 176 52 callsubr
          -85 -76 -49 -79 -38 vhcurveto
          -45 -1 -79 -3 -72 -7 rrcurveto
          169 callsubr
          74 7 71 3 48 6 rrcurveto
          -7 -25 -4 -28 -29 vvcurveto
          -95 callsubr
        </CharString>
        <CharString name="dvBH_NA">
          140 233 -37 -14 callsubr
          -69 197 46 callsubr
          -19 -92 -23 -92 -11 -52 -43 callgsubr
          91 callgsubr
        </CharString>
        <CharString name="dvBH_R">
          -60 222 callgsubr
          -384 -76 213 callsubr
          29 89 13 103 9 22 callsubr
          314 -118 rmoveto
          -38 -94 -2 -9 -83 hvcurveto
          81 callsubr
          111 36 vhcurveto
          127 9 128 6 23 vvcurveto
          12 -8 8 -18 vhcurveto
          endchar
        </CharString>
        <CharString name="dvBH_RA">
          140 164 160 46 callsubr
          -18 -87 -21 -86 46 callgsubr
          263 callgsubr
          endchar
        </CharString>
        <CharString name="dvBH_R_YA">
          421 856 -30 callgsubr
          29 89 13 103 9 22 callsubr
          160 176 rmoveto
          211 callsubr
          219 callgsubr
          hvcurveto
          286 callgsubr
          rrcurveto
          -130 -14 -126 -3 -75 158 callgsubr
          111 36 vhcurveto
          61 4 60 4 47 5 rrcurveto
          -44 -35 -39 -23 -14 vvcurveto
          -24 30 -25 23 -1 vhcurveto
          -102 -62 -162 -135 -31 vvcurveto
          312 callgsubr
          64 70 65 88 vhcurveto
          61 45 82 49 18 23 97 23 107 62 70 80 -7 -32 -87 callsubr
        </CharString>
        <CharString name="dvBH_VA">
          432 584 -52 callgsubr
          -447 8 47 callgsubr
          313 176 16 callsubr
          -76 -63 -68 -81 -37 hvcurveto
          -44 -1 -83 -2 -75 -8 rrcurveto
          169 callsubr
          77 7 74 4 48 6 rrcurveto
          -13 -39 -7 -39 -36 vvcurveto
          -99 callsubr
        </CharString>
        <CharString name="dvBH_YA">
          421 856 -39 callsubr
          89 330 rmoveto
          67 callgsubr
          43 8 -65 -67 -11 0 -12 -1 -11 hvcurveto
          -6 -21 -21 -4 -30 hhcurveto
          160 176 rmoveto
          211 callsubr
          219 callgsubr
          hvcurveto
          286 callgsubr
          rrcurveto
          -130 -14 -126 -3 -75 158 callgsubr
          113 37 vhcurveto
          63 6 61 3 46 5 rrcurveto
          -45 -37 -41 -23 -15 186 callsubr
          119 -106 callgsubr
          endchar
        </CharString>
        <CharString name="dvB_BA">
          362 668 198 -49 callsubr
          -342 hmoveto
          -52 callsubr
          -6 6 callgsubr
          719 144 callgsubr
          -100 -97 -132 -123 -29 hvcurveto
          -20 -16 -26 -23 -30 -22 -81 callgsubr
          74 111 62 56 67 hvcurveto
          -2 vlineto
          -65 26 -51 64 73 113 60 57 57 vhcurveto
          -8 -78 -24 -46 -28 31 callgsubr
          39 50 callgsubr
          20 86 30 134 4 40 -26 callsubr
        </CharString>
        <CharString name="dvB_BHA">
          533 117 callgsubr
          441 281 callsubr
          37 91 10 104 11 hvcurveto
          -90 -33 -47 -67 -42 hhcurveto
          -435 53 rmoveto
          -52 callsubr
          524 277 -29 callgsubr
          273 176 72 callgsubr
          219 callgsubr
          vhcurveto
          -5 -30 -7 -31 -8 -29 -101 -10 -104 -7 -38 -42 -20 -12 -36 -34 -45 -33 -81 callgsubr
          83 129 78 60 62 hvcurveto
          -61 13 54 -62 53 hhcurveto
          79 61 94 116 36 hvcurveto
          79 8 75 5 47 7 rrcurveto
          -27 -128 -33 -127 -105 callsubr
          91 callgsubr
        </CharString>
        <CharString name="dvB_BH_RA">
          525 549 276 callsubr
          -454 23 rmoveto
          139 callsubr
          33 -65 51 -76 44 -51 rrcurveto
          -31 -48 -52 -24 -47 hhcurveto
          -34 -11 27 39 hvcurveto
          516 277 rmoveto
          67 callgsubr
          43 8 -65 -67 -11 0 -11 -1 -12 hvcurveto
          -6 -21 -21 -4 -30 hhcurveto
          273 176 rmoveto
          131 callsubr
          -28 -29 -20 -31 -24 vhcurveto
          1 -4 -5 0 -6 hhcurveto
          -446 -46 callsubr
          433 60 callsubr
          21 vhcurveto
          -5 -30 -6 -30 -9 -30 -82 -8 -78 -4 -43 -25 -22 -11 -51 -46 -60 -43 -42 261 callgsubr
          70 rrcurveto
          29 26 28 19 25 hhcurveto
          21 16 -24 -23 13 hvcurveto
          -23 13 11 -23 11 hhcurveto
          12 3 13 16 40 -44 75 -46 -122 -113 -193 -132 -65 26 -51 64 79 134 84 64 73 hvcurveto
          -50 15 60 -53 49 hhcurveto
          70 50 82 98 31 hvcurveto
          79 callsubr
        </CharString>
        <CharString name="dvB_DA">
          319 723 125 callsubr
          -628 -16 rmoveto
          -52 callsubr
          -6 6 callgsubr
          657 -47 callgsubr
          -75 -97 -99 -90 -50 hvcurveto
          -21 -15 -33 -30 -39 -29 -81 callgsubr
          72 106 59 54 68 hvcurveto
          -1 -4 0 -4 -4 -62 callgsubr
        </CharString>
        <CharString name="dvB_DA_mU">
          326 723 125 callgsubr
          -628 -16 rmoveto
          -52 callsubr
          -6 6 callgsubr
          657 -47 callgsubr
          -75 -97 -99 -90 -50 hvcurveto
          -21 -15 -33 -30 -39 -29 -81 callgsubr
          72 106 59 54 68 hvcurveto
          -1 -4 0 -4 -4 vvcurveto
          201 callsubr
          vhcurveto
          -97 callsubr
        </CharString>
        <CharString name="dvB_DA_mUU">
          326 723 199 -40 callsubr
          -373 363 rmoveto
          -52 callsubr
          -6 6 callgsubr
          657 -47 callgsubr
          -75 -97 -99 -90 -50 hvcurveto
          -21 -15 -33 -30 -39 -29 -81 callgsubr
          72 106 59 54 68 hvcurveto
          -1 -4 0 -4 -4 vvcurveto
          201 callsubr
          vhcurveto
          -96 callgsubr
        </CharString>
        <CharString name="dvB_DHA">
          438 117 callgsubr
          6 -405 rmoveto
          -52 callsubr
          339 93 rmoveto
          -15 -42 -42 -41 -55 hvcurveto
          -81 callgsubr
          113 197 144 47 13 -3 4 -10 hvcurveto
          237 366 -7 callsubr
          188 -6 150 callsubr
          -14 -74 -17 -79 -18 -84 rrcurveto
          -96 -72 -144 -82 -111 -51 callsubr
          -98 -158 -174 -123 193 callsubr
          15 hvcurveto
          -48 -47 -42 -57 -37 vvcurveto
          -38 25 -22 43 100 127 53 76 82 vhcurveto
          -23 -106 -24 -94 -17 -73 callsubr
        </CharString>
        <CharString name="dvB_DH_VA">
          733 117 callgsubr
          6 -405 rmoveto
          -52 callsubr
          339 93 rmoveto
          -15 -42 -42 -41 -55 hvcurveto
          -81 callgsubr
          113 197 144 47 13 -3 4 -10 hvcurveto
          451 -154 -70 callgsubr
          -214 520 -7 callsubr
          169 -6 16 callsubr
          -83 -68 -81 -91 -35 hvcurveto
          -51 -59 -114 -95 -131 hhcurveto
          -13 -5 4 9 45 75 78 57 39 hvcurveto
          21 14 24 18 13 vvcurveto
          11 -6 6 -13 vhcurveto
          -1 hlineto
          54 callsubr
          105 109 55 56 71 vhcurveto
          -3 -16 -1 -16 -15 vvcurveto
          -99 callsubr
        </CharString>
        <CharString name="dvB_JA">
          551 199 callsubr
          889 -63 callsubr
          -63 -77 -97 -107 -14 vhcurveto
          -21 -16 -31 -28 176 callsubr
          84 129 79 60 62 hvcurveto
          -51 7 31 -39 60 hhcurveto
          140 110 80 76 9 -3 9 -4 10 hvcurveto
          -75 callgsubr
        </CharString>
        <CharString name="dvB_JHA">
          617 756 37 callgsubr
          -313 23 rmoveto
          139 callsubr
          34 -67 53 -78 45 -51 rrcurveto
          -27 -46 -52 -24 -53 hhcurveto
          -34 -11 27 39 hvcurveto
          -6 6 callgsubr
          652 213 callgsubr
          -22 -1 -52 -1 -44 326 callgsubr
          21 -53 157 callsubr
          252 -42 -100 vvcurveto
          -34 -39 -24 -56 -11 vhcurveto
          91 -36 -53 82 -88 hhcurveto
          -24 -21 -6 -11 -18 hvcurveto
          -16 -8 -27 -20 -33 -22 -42 57 -55 92 -34 72 rrcurveto
          29 26 28 19 25 hhcurveto
          21 16 -24 -23 13 hvcurveto
          -23 13 11 -23 11 hhcurveto
          12 3 13 16 40 -44 75 -46 -122 -113 -193 -132 -65 26 -51 64 62 96 45 44 63 hvcurveto
          -84 5 99 -45 103 hhcurveto
          25 callsubr
        </CharString>
        <CharString name="dvB_J_YA">
          857 1292 -102 callgsubr
          -958 -405 rmoveto
          -52 callsubr
          -6 6 callgsubr
          807 107 callgsubr
          -54 -64 -71 -88 -26 vhcurveto
          -21 -13 -35 -32 -42 -32 -81 callgsubr
          82 126 76 59 63 hvcurveto
          -11 vlineto
          260 callgsubr
          33 41 7 11 37 hvcurveto
          -37 -29 -31 -19 -13 186 callsubr
          119 -106 callgsubr
          endchar
        </CharString>
        <CharString name="dvB_JxA">
          551 434 -32 callgsubr
          -339 137 rmoveto
          -52 callsubr
          -6 6 callgsubr
          889 -63 callsubr
          -63 -77 -97 -107 -14 vhcurveto
          -21 -16 -31 -28 176 callsubr
          84 129 79 60 62 hvcurveto
          -51 7 31 -39 60 hhcurveto
          140 110 80 76 9 -3 9 -4 10 hvcurveto
          -75 callgsubr
        </CharString>
        <CharString name="dvB_LA">
          566 199 callsubr
          921 hlineto
          -58 callgsubr
          -110 -94 -82 -123 -19 vhcurveto
          -21 -15 -31 -29 176 callsubr
          82 128 77 59 62 hvcurveto
          -105 5 54 -87 90 hhcurveto
          94 callsubr
          hvcurveto
          -94 callgsubr
        </CharString>
        <CharString name="dvB_L_YA">
          873 1308 -102 callgsubr
          -974 -405 rmoveto
          -52 callsubr
          -6 6 callgsubr
          823 hlineto
          253 callsubr
          -39 -41 hvcurveto
          -51 -12 -113 -32 -68 -29 321 callgsubr
          -110 -97 -77 -127 -19 vhcurveto
          -21 -16 -32 -29 176 callsubr
          83 128 77 60 62 hvcurveto
          -105 5 56 -88 84 hhcurveto
          46 43 25 23 12 -5 10 -18 hvcurveto
          203 callsubr
          18 6 17 6 16 5 rrcurveto
          -33 -25 -26 -17 -12 186 callsubr
          119 -106 callgsubr
          endchar
        </CharString>
        <CharString name="dvB_NA">
          143 callgsubr
          -281 -348 -14 callsubr
          -98 127 callsubr
          437 229 callgsubr
          -14 -65 -14 -58 -8 -38 -43 callgsubr
          117 -107 callgsubr
        </CharString>
        <CharString name="dvB_R">
          -151 148 167 rmoveto
          -31 -13 20 30 40 23 58 32 49 hvcurveto
          29 -60 39 -58 39 -47 rrcurveto
          -19 -34 -39 -13 -45 hhcurveto
          286 159 rmoveto
          -26 -43 -60 -46 -65 hvcurveto
          -37 56 -39 66 -31 67 rrcurveto
          29 26 28 20 25 hhcurveto
          21 16 -24 -23 13 hvcurveto
          -23 13 11 -23 11 hhcurveto
          12 3 13 16 40 -44 75 -46 -113 -116 -179 -116 -60 28 -36 61 15 18 2 5 19 hvcurveto
          -81 -74 -77 -83 -21 235 callsubr
          26 89 105 86 101 vhcurveto
          93 79 88 79 26 vvcurveto
          13 -3 4 -10 vhcurveto
          -345 310 -104 callsubr
          414 -107 callgsubr
        </CharString>
        <CharString name="dvB_RA">
          143 callgsubr
          -319 325 -104 callsubr
          377 229 callgsubr
          88 callgsubr
        </CharString>
        <CharString name="dvB_SA">
          619 95 183 rmoveto
          -52 callsubr
          339 93 rmoveto
          -15 -42 -42 -41 -55 hvcurveto
          -81 callgsubr
          113 197 144 47 13 -3 4 -10 hvcurveto
          632 312 -18 callsubr
          -270 48 rmoveto
          -10 -8 -1 -1 -6 hvcurveto
          1 -6 -8 1 -10 hhcurveto
          -387 -46 callsubr
          387 hlineto
          10 8 1 1 6 hvcurveto
          -1 6 8 -1 10 hhcurveto
          80 -102 callsubr
          123 125 11 37 99 hvcurveto
          -27 -129 -33 -127 -105 callsubr
          118 -106 callgsubr
          endchar
        </CharString>
        <CharString name="dvB_SHA">
          577 117 callgsubr
          6 -405 rmoveto
          -52 callsubr
          339 93 rmoveto
          -15 -42 -42 -41 -55 hvcurveto
          -81 callgsubr
          113 197 144 47 13 -3 4 -10 hvcurveto
          283 178 -94 callsubr
          508 298 rmoveto
          -37 -10 -9 -15 -15 10 -9 37 hvcurveto
          59 -90 callsubr
        </CharString>
        <CharString name="dvB_TA">
          414 199 callsubr
          770 99 callsubr
          -111 -93 -38 -90 -5 hvcurveto
          -20 -16 -28 -24 -32 -24 -81 callgsubr
          82 125 75 60 64 hvcurveto
          -103 23 93 -88 49 hhcurveto
          17 7 9 10 hvcurveto
          -84 callgsubr
        </CharString>
        <CharString name="dvB_VA">
          337 489 -52 callgsubr
          -394 61 rmoveto
          -52 callsubr
          -6 6 callgsubr
          709 -38 callsubr
          -101 -79 -120 -112 -24 hvcurveto
          -21 -17 -28 -24 -33 -25 -81 callgsubr
          77 116 67 57 66 hvcurveto
          -3 vlineto
          -99 callsubr
        </CharString>
        <CharString name="dvB_YA">
          397 832 -102 callgsubr
          -498 -405 rmoveto
          -52 callsubr
          -6 6 callgsubr
          347 254 callgsubr
          -94 -71 -60 -44 hvcurveto
          -5 -4 -7 -5 -9 -7 -4 -3 -4 -3 -3 -3 -18 -15 -22 -18 -24 -18 -81 callgsubr
          76 113 64 57 66 hvcurveto
          -8 11 12 -6 11 7 callsubr
          119 -106 callgsubr
          endchar
        </CharString>
        <CharString name="dvC">
          -19 159 callgsubr
          161 120 96 29 12 -7 4 -9 vhcurveto
          -34 -74 -91 -149 244 callgsubr
          57 78 73 97 29 hvcurveto
          -301 295 -104 callsubr
          522 -107 callgsubr
        </CharString>
        <CharString name="dvCA">
          180 301 callgsubr
          511 hlineto
          -10 -51 -11 -54 -12 -56 rrcurveto
          -159 -53 -129 -76 -99 -51 callgsubr
          60 56 0 -1 52 hvcurveto
          -61 -38 -48 -58 -55 vvcurveto
          -61 38 -39 82 323 callsubr
          vhcurveto
          313 callgsubr
          -98 -18 -24 callsubr
        </CharString>
        <CharString name="dvCH">
          150 744 588 rmoveto
          36 298 callsubr
          -37 hvcurveto
          -670 hlineto
          130 callgsubr
          189 311 132 189 35 callgsubr
          69 192 callgsubr
          endchar
        </CharString>
        <CharString name="dvCHA">
          150 552 -69 callgsubr
          -450 406 305 callsubr
          -91 -45 -96 -112 -64 vvcurveto
          -50 53 -25 53 vhcurveto
          7 hlineto
          163 callgsubr
        </CharString>
        <CharString name="dvCH_RA">
          140 552 -69 callgsubr
          -450 406 305 callsubr
          -91 -45 -96 -112 -64 vvcurveto
          -50 53 -25 53 vhcurveto
          7 hlineto
          227 callsubr
          vhcurveto
          13 hlineto
          -45 -58 -55 -88 -19 126 callsubr
          -77 83 -1 118 hvcurveto
          182 41 216 125 159 vvcurveto
          53 callgsubr
        </CharString>
        <CharString name="dvCH_R_YA">
          708 1143 -102 callgsubr
          -450 192 callgsubr
          -381 338 rmoveto
          130 callgsubr
          vhcurveto
          13 hlineto
          -45 -58 -55 -88 -19 164 callsubr
          118 hvcurveto
          179 38 206 116 154 vvcurveto
          35 callgsubr
          362 142 callsubr
          -166 -200 -75 -32 186 callsubr
          119 -106 callgsubr
          endchar
        </CharString>
        <CharString name="dvCH_YA">
          739 1174 -102 callgsubr
          -481 192 callgsubr
          -381 338 rmoveto
          130 callgsubr
          189 311 132 189 35 callgsubr
          393 142 callsubr
          -166 -200 -75 -32 186 callsubr
          119 -106 callgsubr
          endchar
        </CharString>
        <CharString name="dvC_CA">
          529 301 callgsubr
          860 hlineto
          -10 -51 -11 -54 -12 -56 rrcurveto
          -159 -53 -129 -76 -99 -51 callgsubr
          60 56 0 -1 52 hvcurveto
          -61 -38 -48 -58 -55 vvcurveto
          -9 1 -9 2 -8 vhcurveto
          -24 -42 -71 -56 -116 hhcurveto
          -46 -25 13 33 57 78 73 97 29 hvcurveto
          5 2 rlineto
          177 callsubr
          118 95 51 39 43 vhcurveto
          -22 20 32 -12 46 hhcurveto
          323 callsubr
          hvcurveto
          313 callgsubr
          -98 -18 -24 callsubr
        </CharString>
        <CharString name="dvC_CHA">
          579 981 -69 callgsubr
          -841 406 -104 callsubr
          588 hlineto
          -91 -45 -96 -112 -64 vvcurveto
          -50 53 -25 53 vhcurveto
          7 hlineto
          -8 -6 -7 -7 -8 -8 rrcurveto
          -42 -55 -102 -93 -137 hhcurveto
          -46 -25 13 33 57 78 73 97 29 hvcurveto
          5 2 rlineto
          177 callsubr
          73 73 25 33 61 vhcurveto
          -8 -20 -5 -18 -18 82 callgsubr
        </CharString>
        <CharString name="dvC_CH_VA">
          546 952 398 rmoveto
          22 11 -18 -32 -68 -64 -65 -88 -49 hvcurveto
          127 29 35 105 55 hhcurveto
          -247 -629 rmoveto
          -18 -55 -53 -13 -42 hhcurveto
          -57 -62 3 33 38 87 70 56 52 47 -50 -57 29 hvcurveto
          -596 861 -104 callsubr
          555 hlineto
          -90 -44 -94 -104 -64 vvcurveto
          -50 61 -22 53 vhcurveto
          8 hlineto
          -30 -22 -31 -29 -25 -31 rrcurveto
          -19 -39 -73 -67 -128 hhcurveto
          -46 -25 13 33 57 78 73 97 29 hvcurveto
          5 2 rlineto
          177 callsubr
          80 69 23 28 50 vhcurveto
          -4 -15 -3 -14 -15 vvcurveto
          -31 22 -28 48 75 82 18 30 76 vhcurveto
          -11 -63 -12 -69 -12 -62 -11 -52 rlinecurve
          54 -34 -49 43 -52 hhcurveto
          -86 -112 -90 -68 -61 70 -25 87 53 52 11 16 47 hvcurveto
          -4 -24 -3 -16 -10 vvcurveto
          -12 3 -8 10 15 14 12 24 5 vhcurveto
          22 105 25 134 24 116 14 69 rcurveline
          121 59 93 89 91 vvcurveto
          59 -23 43 -54 -102 -47 -148 -161 -32 vhcurveto
          -34 -78 -88 -21 -77 hhcurveto
          -10 -5 4 8 57 63 71 59 46 hvcurveto
          20 16 60 35 19 104 callsubr
          252 callsubr
          -26 -30 -10 -41 hhcurveto
          -43 -27 9 21 55 132 133 73 hvcurveto
          33 5 -39 17 hhcurveto
          7 7 8 8 14 -8 19 -13 14 hvcurveto
          375 -107 callgsubr
        </CharString>
        <CharString name="dvC_MA">
          630 791 -80 callsubr
          -543 230 callgsubr
          641 58 callgsubr
          -73 -12 -66 -15 -38 -26 rrcurveto
          -17 -39 -73 -70 -131 hhcurveto
          -46 -25 13 33 57 78 73 97 29 hvcurveto
          5 2 rlineto
          177 callsubr
          92 78 31 32 50 vhcurveto
          -57 12 57 -73 56 hhcurveto
          74 37 103 116 19 hvcurveto
          -91 callsubr
        </CharString>
        <CharString name="dvC_NA">
          180 283 -37 -14 callsubr
          -172 127 callsubr
          511 hlineto
          -7 -37 -8 -37 -8 -39 rrcurveto
          -184 -51 -152 -69 -88 hhcurveto
          -46 -25 13 33 57 78 73 97 29 hvcurveto
          5 2 rlineto
          177 callsubr
          77 108 37 95 78 vhcurveto
          -19 -89 -21 -88 -11 -50 -43 callgsubr
          119 -107 callgsubr
        </CharString>
        <CharString name="dvC_R">
          -29 159 callgsubr
          27 19 3 9 26 vhcurveto
          -73 -57 -78 -72 -21 vvcurveto
          312 callgsubr
          54 55 67 88 vhcurveto
          94 71 88 58 27 vvcurveto
          10 -6 4 -9 vhcurveto
          -34 -74 -91 -149 244 callgsubr
          59 81 71 95 30 hvcurveto
          -302 294 -104 callsubr
          530 -107 callgsubr
        </CharString>
        <CharString name="dvC_RA">
          180 301 callgsubr
          511 hlineto
          -7 -37 -8 -37 -8 -39 rrcurveto
          -184 -51 -152 -69 -88 hhcurveto
          -46 -25 13 33 57 78 73 97 29 hvcurveto
          5 2 rlineto
          177 callsubr
          77 108 37 95 78 vhcurveto
          -18 -82 -19 -81 -11 -52 rrcurveto
          33 -26 -39 33 -38 -82 callgsubr
          -44 -32 24 hvcurveto
          1 -1 rlineto
          -8 5 14 -10 6 hhcurveto
          1 2 1 3 1 hvcurveto
          2 3 18 33 37 158 28 118 rlinecurve
          -103 callgsubr
          119 -107 callgsubr
        </CharString>
        <CharString name="dvC_YA">
          582 1017 -102 callgsubr
          -667 -29 callsubr
          510 hlineto
          -99 callgsubr
          -127 -116 -73 -55 -42 hvcurveto
          -31 -49 -102 -80 -127 hhcurveto
          -46 -25 17 29 49 78 72 97 29 hvcurveto
          5 2 rlineto
          0 vlineto
          0 vlineto
          9 3 5 5 6 vvcurveto
          20 -25 10 -49 vhcurveto
          -146 264 callgsubr
          -33 22 hvcurveto
          62 57 -1 54 hhcurveto
          -63 -37 -51 -56 -53 vvcurveto
          -52 38 -44 77 110 103 53 45 60 vhcurveto
          -11 11 15 -7 12 7 callsubr
          119 -106 callgsubr
          endchar
        </CharString>
        <CharString name="dvCandrabindu">
          48 825 rmoveto
          269 callsubr
          -10 -11 -15 -13 -17 43 -47 15 6 5 3 12 vhcurveto
          -229 65 189 callgsubr
        </CharString>
        <CharString name="dvD">
          -20 12 -236 -31 callsubr
          365 435 85 callsubr
          -309 68 callsubr
          332 -47 callgsubr
          -105 -150 -196 -91 -74 79 -38 104 -3 hvcurveto
          -84 callsubr
        </CharString>
        <CharString name="dvDA">
          -20 377 125 callsubr
          -309 68 callsubr
          332 -47 callgsubr
          -105 -150 -196 -91 -74 79 -38 104 -3 hvcurveto
          -84 callsubr
        </CharString>
        <CharString name="dvDA_mU">
          -20 377 125 callgsubr
          -382 68 callsubr
          405 163 callsubr
          -97 callsubr
        </CharString>
        <CharString name="dvDA_mUU">
          -20 377 199 -40 callsubr
          -125 816 -104 callsubr
          403 163 callsubr
          -96 callgsubr
        </CharString>
        <CharString name="dvDA_mvR">
          -27 377 199 89 callsubr
          -42 -58 -22 -73 -6 hvcurveto
          51 21 33 42 50 hhcurveto
          -342 68 callsubr
          365 -47 callgsubr
          -105 -150 -196 -91 -72 75 -38 99 -5 hvcurveto
          -7 -30 -3 -31 -27 vvcurveto
          -9 vlineto
          -79 -9 -133 -81 -83 vvcurveto
          -59 59 -37 241 callgsubr
          -65 -38 19 31 59 127 71 55 hvcurveto
          147 callgsubr
          25 -7 79 61 16 hvcurveto
          100 5 94 38 78 vvcurveto
          38 -29 31 -43 -73 -50 -64 -76 -28 vhcurveto
          -87 1 -46 24 42 vvcurveto
          74 122 152 76 49 20 -30 -2 25 vhcurveto
          1 0 1 hlineto
          102 callsubr
          14 17 vvcurveto
          120 29 42 12 27 vhcurveto
          142 -107 callgsubr
        </CharString>
        <CharString name="dvDD">
          -25 40 12 -31 callsubr
          44 624 -104 callsubr
          308 hlineto
          14 callsubr
          -74 -143 -66 -56 -17 7 -19 15 -12 hvcurveto
          -71 callgsubr
        </CharString>
        <CharString name="dvDDA">
          -25 84 -62 callsubr
          308 hlineto
          14 callsubr
          -74 -143 -66 -56 -17 7 -19 15 -12 hvcurveto
          -71 callgsubr
        </CharString>
        <CharString name="dvDDH">
          60 50 12 -31 callsubr
          405 214 -40 callgsubr
          10 8 14 11 1 hvcurveto
          1 4 0 4 5 vvcurveto
          122 16 26 2 41 vhcurveto
          148 -106 callgsubr
          endchar
        </CharString>
        <CharString name="dvDDHA">
          60 404 226 -40 callgsubr
          10 8 14 11 1 hvcurveto
          1 4 0 4 5 vvcurveto
          122 16 26 2 41 vhcurveto
          148 -106 callgsubr
          endchar
        </CharString>
        <CharString name="dvDDH_DDHA">
          33 304 217 rmoveto
          46 22 19 53 36 17 -13 -18 -31 -59 -22 -67 -8 vhcurveto
          -1 9 -1 9 9 vvcurveto
          -82 -413 rmoveto
          28 33 16 28 43 23 -23 -21 -29 -32 -23 -54 -11 vhcurveto
          -31 21 -10 20 22 vvcurveto
          -164 832 -104 callsubr
          345 hlineto
          -11 -32 -3 -48 -28 vvcurveto
          -8 vlineto
          14 -22 -26 10 -16 hhcurveto
          -77 -193 -148 -106 -42 34 -30 50 -17 hvcurveto
          -12 34 41 -6 41 hhcurveto
          16 hlineto
          9 -37 14 -42 16 -32 rrcurveto
          4 -19 -21 3 -23 hhcurveto
          -100 -157 -102 -108 -97 98 -36 102 122 84 55 61 46 -43 40 -70 -69 -40 -33 -46 -27 18 -26 24 -22 hvcurveto
          -1 -7 -8 0 -8 hhcurveto
          -95 -54 29 59 71 110 91 97 hvcurveto
          61 21 -16 25 hhcurveto
          8 8 2 11 hvcurveto
          1 vlineto
          1 vlineto
          21 -38 63 -20 71 vhcurveto
          101 14 64 49 49 vvcurveto
          42 -34 36 -67 -86 -35 -46 -73 -6 1 -8 1 -9 vhcurveto
          -9 hlineto
          -87 -51 25 34 72 145 118 65 42 19 -31 -4 24 hvcurveto
          2 hlineto
          147 callgsubr
          1 1 0 1 hhcurveto
          14 3 5 15 18 vvcurveto
          92 11 29 2 30 vhcurveto
          154 -107 callgsubr
        </CharString>
        <CharString name="dvDDH_R">
          60 -23 -136 -31 callsubr
          478 362 rmoveto
          31 20 -31 -18 -47 -91 -23 -96 -2 hvcurveto
          57 36 53 64 47 hhcurveto
          -326 151 callgsubr
          353 hlineto
          -16 -33 -8 -61 -51 vvcurveto
          15 -20 -22 12 -17 hhcurveto
          -93 -229 -197 -104 -38 41 -39 57 -18 hvcurveto
          17 -6 19 -4 20 -3 rrcurveto
          -45 -58 -60 -94 -20 182 callsubr
          -71 78 -7 111 hvcurveto
          121 5 112 107 callsubr
        </CharString>
        <CharString name="dvDDH_RA">
          60 455 277 callsubr
          -326 151 callgsubr
          353 hlineto
          -16 -33 -8 -61 -51 vvcurveto
          15 -20 -22 12 -17 hhcurveto
          -93 -229 -197 -104 -38 41 -39 57 -18 hvcurveto
          17 -5 18 -5 19 -3 rrcurveto
          -45 -58 -60 -94 -20 182 callsubr
          -71 78 -7 111 hvcurveto
          122 5 113 107 callsubr
        </CharString>
        <CharString name="dvDDH_YA">
          677 622 588 rmoveto
          5 4 0 4 13 13 0 14 hhcurveto
          437 hlineto
          179 callgsubr
          -40 -78 -140 -50 -38 -126 vhcurveto
          118 16 25 2 41 vhcurveto
          -70 -362 -40 callgsubr
          1 1 0 1 1 hvcurveto
          21 125 121 61 115 hhcurveto
          15 11 -5 -15 hvcurveto
          -83 -178 -85 -26 138 callgsubr
          -97 callgsubr
          57 hlineto
          47 21 7 15 21 -31 5 -60 hvcurveto
          endchar
        </CharString>
        <CharString name="dvDDHxA">
          60 169 39 -78 callsubr
          286 187 -40 callgsubr
          10 8 14 11 1 hvcurveto
          1 4 0 4 5 vvcurveto
          122 16 26 2 41 vhcurveto
          148 -106 callgsubr
          endchar
        </CharString>
        <CharString name="dvDD_DDA">
          -60 44 -62 callsubr
          351 hlineto
          -8 -26 -4 -31 61 callsubr
          12 11 1 1 11 hvcurveto
          -7 -25 -3 -29 -20 122 callsubr
          -127 -48 -49 -15 8 -20 15 -12 hvcurveto
          58 -44 155 0 -65 vvcurveto
          -30 -43 -30 -73 -80 -39 39 42 -19 vhcurveto
          14 -6 -6 8 -17 hhcurveto
          -10 -7 -7 -14 -61 81 -69 105 96 66 46 63 hvcurveto
          113 -226 -3 39 vvcurveto
          31 102 21 39 vhcurveto
          33 24 -17 17 hhcurveto
          18 9 11 25 80 11 28 4 23 hvcurveto
          46 18 28 34 41 201 callgsubr
          75 9 27 6 21 hvcurveto
          170 -107 callgsubr
        </CharString>
        <CharString name="dvDD_DDHA">
          -86 125 -209 rmoveto
          29 31 15 41 47 21 -25 -18 -32 -48 -19 -64 -7 vhcurveto
          -19 21 -9 18 18 vvcurveto
          -101 845 -104 callsubr
          357 hlineto
          -9 -25 -4 -32 61 callsubr
          12 11 1 1 11 hvcurveto
          -10 -32 -4 -41 -24 vvcurveto
          -7 0 -7 1 -6 vhcurveto
          10 -22 -26 8 -22 hhcurveto
          -86 -191 -141 -95 -34 20 -26 31 -18 hvcurveto
          -23 39 57 -10 52 hhcurveto
          114 95 46 58 55 -58 30 -58 -64 -50 -28 -53 -22 8 -21 16 -21 hvcurveto
          -1 hlineto
          -77 -71 22 46 71 156 115 72 42 19 -25 -3 24 hvcurveto
          2 hlineto
          147 callgsubr
          3 hlineto
          14 2 5 11 23 vvcurveto
          88 15 36 5 29 vhcurveto
          47 18 29 34 42 201 callgsubr
          81 11 21 5 21 hvcurveto
          188 -107 callgsubr
        </CharString>
        <CharString name="dvDD_R">
          -25 -18 -135 -31 callsubr
          102 771 28 callgsubr
        </CharString>
        <CharString name="dvDD_RA">
          -25 84 636 28 callgsubr
        </CharString>
        <CharString name="dvDD_VA">
          -15 248 -76 rmoveto
          -25 -29 -41 -19 -52 hhcurveto
          -47 -35 11 28 41 61 30 43 44 34 -35 -31 22 hvcurveto
          -194 712 -104 callsubr
          356 hlineto
          -8 -26 -4 -31 61 callsubr
          14 13 1 2 13 hvcurveto
          -14 -40 -14 -58 -12 -57 rrcurveto
          31 -28 -38 23 -42 hhcurveto
          -73 -82 -60 -60 -44 52 -36 75 44 38 13 18 33 hvcurveto
          -6 -37 -4 -28 -9 vvcurveto
          -20 5 -7 7 18 21 90 94 18 vhcurveto
          12 65 25 87 8 46 rrcurveto
          49 18 30 35 42 201 callgsubr
          75 9 27 6 21 hvcurveto
          140 -107 callgsubr
        </CharString>
        <CharString name="dvDD_YA">
          558 993 155 callsubr
          -40 vhcurveto
          -66 -52 -31 -78 hhcurveto
          -15 -22 0 3 -21 hvcurveto
          1 74 9 28 5 22 rrcurveto
          -358 -29 callsubr
          308 hlineto
          14 callsubr
          -74 -143 -66 -56 -17 7 -19 15 -12 hvcurveto
          56 -45 184 -7 -61 vvcurveto
          -43 -47 -36 -77 -86 -38 38 41 114 callsubr
          -14 -6 -11 -17 -59 75 -64 112 105 68 60 70 hvcurveto
          125 -255 -10 39 vvcurveto
          33 118 41 39 32 23 -16 -1 17 vhcurveto
          0 vlineto
          -6 20 34 -1 29 72 66 29 62 hhcurveto
          15 11 -5 -15 hvcurveto
          -83 -178 -85 -26 138 callgsubr
          -65 callsubr
        </CharString>
        <CharString name="dvDDxA">
          -25 152 39 -78 callsubr
          -68 597 -104 callsubr
          308 hlineto
          14 callsubr
          -74 -143 -66 -56 -17 7 -19 15 -12 hvcurveto
          -71 callgsubr
        </CharString>
        <CharString name="dvDH">
          -126 246 callsubr
          -18 -232 rmoveto
          54 callsubr
          174 187 152 55 12 -4 5 -9 vhcurveto
          -21 -146 -176 -178 hhcurveto
          -13 -5 4 9 45 75 78 57 39 hvcurveto
          21 14 24 18 13 104 callsubr
          endchar
        </CharString>
        <CharString name="dvDHA">
          86 246 callsubr
          188 -6 150 callsubr
          -14 -74 -17 -79 -18 -84 rrcurveto
          -96 -72 -144 -82 -111 -51 callsubr
          -98 -158 -174 -123 193 callsubr
          15 hvcurveto
          -48 -47 -42 -57 -37 vvcurveto
          -38 25 -22 43 100 127 53 76 82 vhcurveto
          -23 -106 -24 -94 -17 -73 callsubr
        </CharString>
        <CharString name="dvDH_MA">
          529 690 -80 callsubr
          -234 491 -7 callsubr
          183 -6 -32 callsubr
          -54 -3 -70 -8 -66 -69 -11 -64 -14 -39 -24 rrcurveto
          -24 -40 -115 -118 -148 hhcurveto
          -13 -5 4 9 45 75 78 57 39 hvcurveto
          21 14 24 18 13 vvcurveto
          11 -6 6 -13 vhcurveto
          -1 hlineto
          54 callsubr
          93 112 55 52 67 vhcurveto
          -57 14 55 -68 54 hhcurveto
          74 37 103 116 19 hvcurveto
          -91 callsubr
        </CharString>
        <CharString name="dvDH_NA">
          86 199 -37 -14 callsubr
          120 679 rmoveto
          17 9 -8 -17 -62 -86 -65 -79 -11 -11 2 2 -10 hvcurveto
          73 44 84 75 43 hhcurveto
          188 -6 5 callsubr
          241 callsubr
          10 hvcurveto
          -46 -41 -40 -53 -38 264 callsubr
          -18 -85 -20 -82 -10 -48 -43 callgsubr
          118 -106 callgsubr
          endchar
        </CharString>
        <CharString name="dvDH_N_YA">
          432 867 -102 callgsubr
          -317 -162 rmoveto
          -2 hlineto
          -2 -4 -1 -2 -4 hvcurveto
          -5 -1 -6 -3 -6 -3 rrcurveto
          -14 -30 -47 -23 -52 hhcurveto
          -25 -8 15 22 10 2 12 4 12 hvcurveto
          -4 14 16 -2 15 83 callsubr
          -114 -95 -71 -59 -44 hvcurveto
          -37 -56 -102 -69 -123 hhcurveto
          -21 -7 11 12 45 85 94 57 39 hvcurveto
          21 14 24 18 13 104 callsubr
          7 216 rmoveto
          17 9 -8 -17 -62 -86 -65 -79 -11 -11 2 2 -10 hvcurveto
          73 44 84 75 43 hhcurveto
          -80 -689 rmoveto
          -33 -38 -18 -39 -29 -25 4 30 22 21 28 32 31 vhcurveto
          55 -19 23 -21 -24 vvcurveto
          157 683 265 callsubr
          241 callsubr
          11 hvcurveto
          -47 -46 -40 -71 -38 vvcurveto
          -38 35 -32 43 13 15 2 2 16 vhcurveto
          -86 -60 -70 -66 -52 vvcurveto
          -57 48 -27 60 67 52 35 59 44 -34 36 -54 16 vhcurveto
          60 50 81 52 66 40 16 8 rcurveline
          -12 11 17 -10 14 hhcurveto
          115 151 72 104 91 hvcurveto
          -7 -32 -65 callsubr
        </CharString>
        <CharString name="dvDH_R">
          -129 246 callsubr
          -18 -232 rmoveto
          54 callsubr
          59 53 11 26 51 vhcurveto
          -72 -77 -113 -114 -24 235 callsubr
          24 97 106 79 75 vhcurveto
          43 46 97 93 26 vvcurveto
          8 -3 5 -8 -10 -16 -11 -11 -14 vhcurveto
          -42 -54 -99 -60 -121 hhcurveto
          -13 -5 4 9 45 75 78 57 39 hvcurveto
          21 14 24 18 13 104 callsubr
          endchar
        </CharString>
        <CharString name="dvDH_RA">
          86 319 642 rmoveto
          17 9 -8 -17 -62 -86 -65 -79 -11 -11 2 2 -10 hvcurveto
          73 44 84 75 43 hhcurveto
          188 -6 5 callsubr
          241 callsubr
          10 hvcurveto
          -46 -41 -40 -53 -38 264 callsubr
          -17 -81 -19 -79 -11 -48 rrcurveto
          28 -21 -38 28 -42 hhcurveto
          -49 -53 -34 -37 -34 hvcurveto
          -54 -58 -69 -79 -19 vvcurveto
          -8 6 -6 11 21 66 82 55 52 vhcurveto
          35 33 39 21 33 hhcurveto
          38 31 -29 200 callsubr
        </CharString>
        <CharString name="dvDH_VA">
          381 533 -52 callgsubr
          -214 520 -7 callsubr
          169 -6 16 callsubr
          -83 -68 -81 -91 -35 hvcurveto
          -51 -59 -114 -95 -131 hhcurveto
          -13 -5 4 9 45 75 78 57 39 hvcurveto
          21 14 24 18 13 vvcurveto
          11 -6 6 -13 vhcurveto
          -1 hlineto
          54 callsubr
          105 109 55 56 71 vhcurveto
          -3 -16 -1 -16 -15 vvcurveto
          -99 callsubr
        </CharString>
        <CharString name="dvDH_YA">
          432 867 -21 callsubr
          17 232 -7 callsubr
          77 -6 265 callsubr
          66 callgsubr
          -35 32 -35 46 66 109 39 42 76 vhcurveto
          -12 11 17 -9 13 hhcurveto
          115 151 72 104 91 hvcurveto
          -7 -32 -65 callsubr
        </CharString>
        <CharString name="dvD_BA">
          90 487 125 callsubr
          -291 -311 rmoveto
          -48 -22 22 40 28 14 22 21 16 hvcurveto
          305 callgsubr
          115 167 98 callsubr
          -56 40 -50 78 45 41 23 33 28 vhcurveto
          -48 3 9 -28 18 96 callsubr
        </CharString>
        <CharString name="dvD_BHA">
          145 542 199 226 callgsubr
          -430 -408 rmoveto
          -20 -35 31 24 25 31 29 71 14 hvcurveto
          -52 -1 -15 -71 -31 hhcurveto
          -47 218 rmoveto
          -18 -7 12 15 31 30 54 31 22 15 -39 -48 9 hvcurveto
          -14 -26 -28 -11 -28 hhcurveto
          3 627 -104 callsubr
          497 163 callsubr
          3 hlineto
          -7 -30 -7 -32 -6 -32 -2 -9 rcurveline
          7 -41 -66 1 -34 hhcurveto
          -11 -11 0 -1 -11 hvcurveto
          75 -4 -24 140 -69 hhcurveto
          -65 -47 -87 -54 -44 32 -24 36 33 31 11 16 28 hvcurveto
          2 -14 1 -13 1 -13 rrcurveto
          -79 -16 -65 -39 -50 vvcurveto
          -42 65 -54 38 62 22 100 70 3 vhcurveto
          1 16 17 1 19 hhcurveto
          29 56 -3 -1 30 hvcurveto
          -11 -55 -14 -64 -19 vvcurveto
          -10 5 -8 12 22 13 75 114 26 173 callgsubr
          -64 -38 -60 -80 -25 vhcurveto
          -17 hlineto
          -98 callgsubr
          143 -107 callgsubr
        </CharString>
        <CharString name="dvD_B_RA">
          53 427 125 callsubr
          -361 -249 rmoveto
          28 14 22 21 16 vhcurveto
          305 callgsubr
          -48 -22 22 40 hvcurveto
          185 105 98 callsubr
          -53 36 -47 69 -6 vhcurveto
          -54 -46 -40 -41 -16 235 callsubr
          19 69 78 65 88 vhcurveto
          6 5 9 6 8 6 8 5 rlinecurve
          -44 4 9 -25 17 96 callsubr
        </CharString>
        <CharString name="dvD_DA">
          -52 38 -62 callsubr
          298 hlineto
          -1 -6 -1 -7 -9 vvcurveto
          -51 -7 -39 -1 -27 vhcurveto
          1 -4 -5 0 -4 hhcurveto
          -94 -118 -54 -82 -45 58 -22 49 -8 hvcurveto
          -85 -32 -92 -69 -59 vvcurveto
          -24 15 -17 24 -11 vhcurveto
          -10 23 31 -5 36 hhcurveto
          34 37 6 9 33 hvcurveto
          -71 4 48 -64 50 hhcurveto
          17 8 4 10 hvcurveto
          26 -81 -23 122 4 0 5 4 vvcurveto
          32 15 22 19 19 vvcurveto
          18 -15 15 -22 -19 -28 -19 -38 -11 vhcurveto
          -9 -28 -31 -6 -38 hhcurveto
          -58 -36 7 16 22 40 34 56 34 hvcurveto
          75 46 71 8 22 vvcurveto
          0 vlineto
          30 -171 -2 45 vvcurveto
          44 96 38 73 vhcurveto
          17 0 -5 7 hhcurveto
          6 6 4 6 3 hvcurveto
          18 22 9 70 43 vvcurveto
          17 -1 16 -4 13 vhcurveto
          166 -107 callgsubr
        </CharString>
        <CharString name="dvD_DHA">
          112 375 54 rmoveto
          -77 -37 -135 -111 -99 hhcurveto
          -10 -5 4 8 hvcurveto
          50 114 78 22 vvcurveto
          10 -6 3 -11 vhcurveto
          -1 hlineto
          -1 hlineto
          -13 -49 -29 -61 hhcurveto
          -27 -13 8 23 7 1 7 2 8 hvcurveto
          8 hlineto
          68 58 24 31 33 hvcurveto
          -44 28 70 -22 83 hhcurveto
          146 145 226 callgsubr
          -478 -90 rmoveto
          50 25 46 46 37 hhcurveto
          23 6 -14 -17 -29 -57 -36 -79 hvcurveto
          -24 527 -104 callsubr
          524 -47 callgsubr
          -84 -112 -125 -96 -42 hvcurveto
          7 -11 -13 4 -17 hhcurveto
          -94 -78 -121 -88 -40 31 -22 42 12 16 1 3 17 hvcurveto
          -31 -32 -27 -38 -30 vvcurveto
          -34 22 -20 38 87 101 64 66 65 vhcurveto
          -11 -58 -9 -56 -12 -45 rrcurveto
          -1 -4 -1 -5 -5 vvcurveto
          -9 3 -9 10 29 13 76 111 25 173 callgsubr
          -64 -38 -60 -80 -26 vhcurveto
          -16 hlineto
          -98 callgsubr
          147 -107 callgsubr
        </CharString>
        <CharString name="dvD_GA">
          -20 377 199 226 callgsubr
          -376 -360 261 callsubr
          2 797 -104 callsubr
          397 -47 callgsubr
          -105 -150 -196 -91 -37 20 -28 33 -20 hvcurveto
          -6 vlineto
          272 callgsubr
          85 42 159 109 3 hvcurveto
          -9 29 33 -4 37 hhcurveto
          4 hlineto
          -4 -18 -5 -19 -4 -18 rrcurveto
          -22 -96 -14 -82 -32 vvcurveto
          -11 4 -14 10 17 17 76 111 25 173 callgsubr
          -66 -35 -61 -79 -25 vhcurveto
          -18 hlineto
          -98 callgsubr
          156 -107 callgsubr
        </CharString>
        <CharString name="dvD_GHA">
          104 354 54 rmoveto
          -99 -60 -139 -101 -93 hhcurveto
          -10 -5 4 8 17 17 27 49 49 hvcurveto
          31 31 40 18 16 104 callsubr
          252 callsubr
          -62 -53 0 16 27 68 72 42 24 hvcurveto
          -1 268 callsubr
          201 callsubr
          vhcurveto
          146 145 226 callgsubr
          -446 68 callsubr
          469 -47 callgsubr
          -85 -114 -128 -97 -41 hvcurveto
          -62 -10 -113 -115 -50 vvcurveto
          -34 47 -19 50 -1 vhcurveto
          -15 -11 -14 -12 -11 -11 rrcurveto
          -40 -40 -19 -38 -25 vvcurveto
          -31 22 -28 48 87 110 72 73 71 vhcurveto
          -10 -56 -9 -55 -12 -44 rrcurveto
          -1 -4 -1 -5 -5 vvcurveto
          -9 3 -9 10 29 13 76 111 25 173 callgsubr
          -64 -38 -60 -80 -26 -59 callsubr
        </CharString>
        <CharString name="dvD_G_RA">
          83 481 206 rmoveto
          21 12 -12 -18 -36 -48 -21 -61 -9 hvcurveto
          53 17 23 43 36 hhcurveto
          -420 -367 261 callsubr
          -13 797 -104 callsubr
          432 -47 callgsubr
          -105 -150 -196 -91 -28 12 -22 21 -17 hvcurveto
          -8 0 -8 -8 vvcurveto
          272 callgsubr
          88 41 169 109 1 hvcurveto
          -16 39 49 -7 51 hhcurveto
          10 hlineto
          -6 -29 -6 -29 -6 -30 -9 -45 rcurveline
          -90 -54 -145 -122 -31 235 callsubr
          20 105 106 57 85 vhcurveto
          -8 -39 -6 -34 -6 vvcurveto
          -11 1 -10 12 29 13 76 111 25 vhcurveto
          6 28 7 40 9 39 rrcurveto
          88 12 78 39 64 vvcurveto
          44 -22 35 -55 -65 -36 -63 -84 -25 vhcurveto
          -7 -7 0 -8 hhcurveto
          -92 -68 19 48 74 122 152 76 49 20 -30 -2 25 hvcurveto
          1 0 1 hlineto
          102 callsubr
          14 17 vvcurveto
          120 29 42 12 27 vhcurveto
          161 -107 callgsubr
        </CharString>
        <CharString name="dvD_MA">
          273 655 315 rmoveto
          -48 -18 -83 -24 -67 -23 -41 -14 -45 -13 -43 -14 rrcurveto
          -62 46 -78 29 49 vvcurveto
          61 52 26 52 vhcurveto
          81 20 -35 21 hhcurveto
          1 hlineto
          2 hlineto
          20 30 83 83 14 -1 13 -2 10 hvcurveto
          248 298 callgsubr
          rrcurveto
          -299 -232 rmoveto
          -37 -42 -18 -56 -55 -31 18 23 28 65 29 79 27 vhcurveto
          24 -19 16 -22 -29 vvcurveto
          -289 549 -104 callsubr
          354 hlineto
          -2 -15 -1 -17 -2 -17 -5 -52 -5 -30 -4 -19 rrcurveto
          17 -26 -43 13 -44 hhcurveto
          -80 -74 -47 -82 -76 72 -37 62 -37 hvcurveto
          -80 -30 -64 -35 -52 vvcurveto
          -39 39 -46 96 82 60 43 54 36 -14 29 -22 24 vhcurveto
          36 12 37 11 34 11 54 18 67 19 48 14 rrcurveto
          -24 -108 -24 -95 142 callgsubr
          142 -107 callgsubr
        </CharString>
        <CharString name="dvD_NA">
          -20 377 275 callgsubr
          -297 -414 rmoveto
          -33 -10 -28 -31 -33 -43 12 28 34 43 41 48 25 vhcurveto
          17 -21 9 -29 -29 vvcurveto
          -73 851 -104 callsubr
          392 205 callgsubr
          -105 -150 -196 -91 -77 85 -38 109 hvcurveto
          -5 -31 -3 -31 -25 vvcurveto
          -19 1 -19 2 -17 vhcurveto
          16 -23 -26 10 -39 hhcurveto
          -104 -121 -103 -66 -54 66 -36 64 54 29 45 59 36 -11 37 -21 25 hvcurveto
          6 16 16 3 14 hhcurveto
          39 24 -9 -33 42 hvcurveto
          0 vlineto
          -3 3 3 -1 3 hhcurveto
          10 2 16 24 hvcurveto
          20 -3 11 44 vvcurveto
          30 4 34 7 33 vhcurveto
          92 11 82 45 61 vvcurveto
          43 -22 29 -49 -69 -42 -66 -74 -22 vhcurveto
          -11 212 callsubr
          48 20 -28 -4 23 hvcurveto
          3 hlineto
          147 callgsubr
          1 1 0 1 2 hvcurveto
          8 2 4 6 2 9 rrcurveto
          1 3 0 3 2 vvcurveto
          2 vlineto
          5 vlineto
          120 29 42 12 27 145 callgsubr
        </CharString>
        <CharString name="dvD_R">
          -20 -19 -253 -31 callsubr
          396 452 185 callgsubr
          -369 68 callsubr
          391 205 callgsubr
          -105 -150 -196 -91 -77 85 -38 109 hvcurveto
          -60 callsubr
        </CharString>
        <CharString name="dvD_RA">
          -68 377 275 callgsubr
          -369 68 callsubr
          391 205 callgsubr
          -105 -150 -196 -91 -77 85 -38 109 hvcurveto
          -60 callsubr
        </CharString>
        <CharString name="dvD_VA">
          -77 377 155 callgsubr
          16 708 -104 callsubr
          402 -47 callgsubr
          -105 -150 -196 -91 -40 23 -30 38 -19 hvcurveto
          68 callgsubr
        </CharString>
        <CharString name="dvD_YA">
          88 474 376 rmoveto
          -100 -59 -117 -125 -165 hhcurveto
          -10 -8 4 8 17 25 28 38 33 hvcurveto
          36 31 50 22 17 15 rrcurveto
          3 2 2 3 3 vvcurveto
          0 vlineto
          3 -1 2 -2 2 vhcurveto
          -20 22 -114 0 51 vvcurveto
          37 67 29 48 vhcurveto
          17 0 -5 7 hhcurveto
          3 3 1 2 3 hvcurveto
          18 9 9 44 28 vvcurveto
          17 0 16 -3 13 vhcurveto
          202 hlineto
          -12 -63 -14 -66 -15 -70 rrcurveto
          -515 247 114 callgsubr
          -1 -6 -1 -7 -9 vvcurveto
          -27 -1 -17 -1 -13 vhcurveto
          1 -6 -6 1 -6 hhcurveto
          -63 -95 -49 -71 -45 49 -31 43 -10 hvcurveto
          -62 -35 -69 -65 -43 vvcurveto
          -31 27 -28 43 131 119 74 77 71 vhcurveto
          -23 -106 -24 -94 -17 -105 callgsubr
          120 -107 callgsubr
        </CharString>
        <CharString name="dvE">
          34 48 636 73 callgsubr
        </CharString>
        <CharString name="dvEcandra">
          34 443 700 rmoveto
          225 callgsubr
          -11 -4 -10 -15 -103 110 -52 95 vhcurveto
          -395 -64 73 callgsubr
        </CharString>
        <CharString name="dvEight">
          -24 78 224 rmoveto
          -95 72 -43 96 100 106 51 38 11 -7 5 -10 vhcurveto
          -21 -51 -52 -117 hhcurveto
          -71 -45 22 62 hvcurveto
          169 226 156 26 vvcurveto
          13 -12 9 -16 -37 -213 -200 -172 vhcurveto
          endchar
        </CharString>
        <CharString name="dvEyelash">
          133 295 rmoveto
          -17 -30 -32 -9 -41 210 callsubr
          -83 45 -55 101 48 44 17 21 31 vhcurveto
          endchar
        </CharString>
        <CharString name="dvEyelash_HA">
          81 267 -62 callsubr
          241 183 callgsubr
          -17 -5 -16 -7 -13 -8 rrcurveto
          -17 -30 -32 -9 -41 210 callsubr
          -83 45 -55 101 14 14 1 3 13 vhcurveto
          -16 -29 -8 -34 -38 -57 callgsubr
        </CharString>
        <CharString name="dvEyelash_YA">
          161 596 -102 callgsubr
          -231 48 80 callsubr
          -38 -11 -34 -16 -29 hvcurveto
          -25 -29 -48 -9 -37 210 callsubr
          -88 49 -50 101 18 19 3 5 18 vhcurveto
          -56 -55 -65 -32 -18 186 callsubr
          119 -106 callgsubr
          endchar
        </CharString>
        <CharString name="dvFive">
          -51 257 216 rmoveto
          -89 -31 -20 -102 -51 -53 -35 44 -20 hhcurveto
          -9 -4 -7 -10 -31 65 -45 53 112 -3 123 127 58 hvcurveto
          58 17 37 36 33 vvcurveto
          23 -24 13 -20 -43 -28 -34 -46 -22 vhcurveto
          -1 -10 -10 0 -10 hhcurveto
          -64 -41 29 54 92 107 96 78 43 hvcurveto
          20 11 30 7 8 vvcurveto
          10 -21 19 -22 -53 -194 -146 -138 -81 54 -55 102 vhcurveto
          endchar
        </CharString>
        <CharString name="dvFour">
          43 298 116 rmoveto
          -43 -69 39 59 62 46 68 58 62 hvcurveto
          49 -73 36 -76 -70 vvcurveto
          -53 -30 -18 -47 vhcurveto
          235 504 rmoveto
          7 -5 2 -11 -39 -94 -61 -81 -85 vhcurveto
          85 -66 -81 64 -66 hhcurveto
          -13 -7 -5 -9 -21 77 -4 96 -121 hvcurveto
          7 -9 8 -10 7 -9 rrcurveto
          -70 -75 -56 -86 -67 vvcurveto
          -73 76 -78 86 85 44 44 70 78 -40 99 -57 85 vhcurveto
          96 91 108 72 12 vvcurveto
          endchar
        </CharString>
        <CharString name="dvG">
          -113 182 165 rmoveto
          -96 callsubr
          303 callsubr
        </CharString>
        <CharString name="dvGA">
          117 209 253 callgsubr
          -107 265 callgsubr
          213 -89 callsubr
          209 -90 callsubr
        </CharString>
        <CharString name="dvGH">
          -175 56 -62 callsubr
          177 hlineto
          -71 -34 -80 -70 -50 vvcurveto
          -41 65 -40 59 -9 vhcurveto
          -15 -12 -15 -14 -13 -11 rrcurveto
          -48 -43 -45 -64 -38 vvcurveto
          -31 22 -28 48 158 159 118 53 15 -6 6 -15 -12 -18 -18 -24 -26 vhcurveto
          -43 -48 -75 -59 -119 hhcurveto
          -10 -5 4 8 45 71 71 51 39 hvcurveto
          20 16 25 16 13 104 callsubr
          252 callsubr
          -54 -81 28 27 42 125 87 69 callsubr
          138 -107 callgsubr
        </CharString>
        <CharString name="dvGHA">
          75 270 380 rmoveto
          -2 hlineto
          -54 -81 28 27 42 125 87 270 callsubr
          -13 -71 -17 -76 -17 -80 rrcurveto
          -100 -59 -122 -110 -151 44 callsubr
          113 117 63 71 73 vhcurveto
          -22 -99 -21 -84 -17 -73 callsubr
        </CharString>
        <CharString name="dvGH_MA">
          513 674 -80 callsubr
          -267 229 rmoveto
          -2 hlineto
          -54 -81 28 27 42 125 87 69 callsubr
          281 58 callgsubr
          -88 -15 -80 -18 -29 -38 -15 -13 -17 -19 -16 -12 rrcurveto
          -40 -51 -73 -58 -114 44 callsubr
          104 113 57 55 63 vhcurveto
          -52 19 50 -56 49 hhcurveto
          74 37 103 116 19 hvcurveto
          -91 callsubr
        </CharString>
        <CharString name="dvGH_NA">
          115 callgsubr
          -93 -445 -14 callsubr
          -122 127 callsubr
          168 hlineto
          -68 -29 -73 -54 -43 vvcurveto
          -41 60 -38 57 -10 vhcurveto
          -20 -14 -19 -16 -14 -12 rrcurveto
          -48 -43 -26 -41 -36 vvcurveto
          -31 26 -27 48 107 124 64 70 76 vhcurveto
          -18 -83 -19 -80 -10 -47 -43 callgsubr
          118 -106 callgsubr
          endchar
        </CharString>
        <CharString name="dvGH_R">
          -192 56 -62 callsubr
          177 hlineto
          -71 -34 -81 -68 -43 vvcurveto
          -40 64 -38 59 -9 vhcurveto
          -55 -42 -64 -68 -35 vvcurveto
          -31 17 -25 48 52 56 13 20 51 vhcurveto
          -72 -77 -138 -140 -24 235 callsubr
          24 97 106 79 75 vhcurveto
          64 68 76 75 22 vvcurveto
          8 -3 5 -8 vhcurveto
          -31 -83 -94 -176 hhcurveto
          -10 -5 4 8 27 55 51 51 39 hvcurveto
          20 16 30 15 15 vvcurveto
          9 -5 5 -13 vhcurveto
          252 callsubr
          -54 -82 25 27 38 126 82 69 callsubr
          304 callsubr
        </CharString>
        <CharString name="dvGH_RA">
          115 callgsubr
          -215 228 -104 callsubr
          168 hlineto
          -68 -29 -73 -54 -43 vvcurveto
          -41 60 -38 57 -10 vhcurveto
          -20 -14 -19 -16 -14 -12 rrcurveto
          -48 -43 -26 -41 -36 vvcurveto
          -31 26 -27 48 107 124 64 70 76 vhcurveto
          -17 -78 -18 -75 -10 -48 rrcurveto
          33 -22 -37 36 -32 hhcurveto
          -64 -45 -54 -38 -33 hvcurveto
          -51 -58 -74 -73 -19 vvcurveto
          -8 6 -6 8 24 66 79 55 51 vhcurveto
          35 33 34 45 40 hhcurveto
          34 29 -50 -32 26 120 callsubr
          118 -106 callgsubr
          endchar
        </CharString>
        <CharString name="dvGH_YA">
          454 889 -102 callgsubr
          -380 -208 rmoveto
          -2 hlineto
          -54 -81 28 27 42 125 87 69 callsubr
          139 hlineto
          -99 callgsubr
          -116 -98 -72 -58 -43 hvcurveto
          -17 -11 -21 -15 -18 -11 rrcurveto
          -38 -65 -133 -41 -81 44 callsubr
          92 130 48 44 81 vhcurveto
          -11 11 16 -9 13 7 callsubr
          119 -106 callgsubr
          endchar
        </CharString>
        <CharString name="dvG_BA">
          382 688 198 -49 callsubr
          -275 -18 rmoveto
          -96 callsubr
          495 108 callgsubr
        </CharString>
        <CharString name="dvG_BHA">
          518 515 130 213 callsubr
          37 91 10 104 11 hvcurveto
          -90 -33 -47 -67 -42 -19 callgsubr
          -422 -295 -27 callgsubr
          695 471 72 callgsubr
          -29 -31 -23 -32 -24 vhcurveto
          3 -8 -11 2 -17 hhcurveto
          -10 callgsubr
          11 hlineto
          -11 -25 -7 -28 128 callsubr
          22 vhcurveto
          -5 -30 -7 -31 -8 -29 rrcurveto
          -127 -13 -131 -8 -77 -14 callgsubr
        </CharString>
        <CharString name="dvG_BH_YA">
          791 1226 -39 callsubr
          89 330 rmoveto
          67 callgsubr
          43 8 -65 -67 -11 0 -12 -1 -11 hvcurveto
          -6 -21 -21 -4 -30 hhcurveto
          -414 -295 -27 callgsubr
          574 471 rmoveto
          211 callsubr
          -29 -30 -22 -31 -24 hvcurveto
          2 -7 -9 1 -13 hhcurveto
          -10 callgsubr
          3 hlineto
          -11 -26 -7 -27 -27 vvcurveto
          222 callsubr
          113 37 vhcurveto
          63 6 61 3 46 5 rrcurveto
          -45 -37 -41 -23 -15 186 callsubr
          119 -106 callgsubr
          endchar
        </CharString>
        <CharString name="dvG_DA">
          334 738 125 callsubr
          -556 -34 rmoveto
          -96 callsubr
          428 -47 callgsubr
          -105 -150 -196 -91 -74 79 -38 104 -3 hvcurveto
          -84 callsubr
        </CharString>
        <CharString name="dvG_DA_mU">
          341 738 125 callgsubr
          -556 -34 rmoveto
          -96 callsubr
          428 163 callsubr
          -97 callsubr
        </CharString>
        <CharString name="dvG_DA_mUU">
          341 738 199 -40 callsubr
          -301 345 rmoveto
          -96 callsubr
          428 163 callsubr
          -96 callgsubr
        </CharString>
        <CharString name="dvG_DHA">
          457 690 136 callgsubr
          -508 -477 -27 callgsubr
          696 471 150 callsubr
          -14 -74 -17 -79 -18 -84 rrcurveto
          -96 -72 -144 -82 -111 -51 callsubr
          -42 -52 -32 -45 -47 hvcurveto
          3 vlineto
          15 -10 9 -37 vhcurveto
          -10 callgsubr
          13 10 1 2 7 hvcurveto
          -55 -60 -43 -78 -64 vvcurveto
          193 callsubr
          15 vhcurveto
          -48 -47 -42 -57 -37 vvcurveto
          -38 25 -22 43 100 127 53 76 82 vhcurveto
          -23 -106 -24 -94 -17 -73 callsubr
        </CharString>
        <CharString name="dvG_DH_VA">
          742 894 -52 callgsubr
          -214 520 -7 callsubr
          -498 -477 -27 callgsubr
          667 471 16 callsubr
          -83 -68 -81 -91 -35 hvcurveto
          -51 -59 -114 -95 -131 -51 callsubr
          -39 -48 -27 -41 -45 hvcurveto
          11 -2 -12 7 -32 hhcurveto
          -10 callgsubr
          7 6 0 1 5 hvcurveto
          -54 -60 -42 -77 -63 vvcurveto
          193 callsubr
          16 vhcurveto
          251 callgsubr
          105 109 55 56 71 vhcurveto
          -3 -16 -1 -16 -15 vvcurveto
          -99 callsubr
        </CharString>
        <CharString name="dvG_DH_YA">
          783 1218 -21 callsubr
          17 232 -7 callsubr
          -488 -477 -27 callgsubr
          565 471 265 callsubr
          -37 -45 -25 -37 -42 hvcurveto
          8 -6 -12 4 -26 hhcurveto
          -10 callgsubr
          7 hlineto
          -53 -59 -42 -77 -63 vvcurveto
          193 callsubr
          16 vhcurveto
          232 callsubr
          -35 32 -35 46 66 109 39 42 76 vhcurveto
          -12 11 17 -9 13 hhcurveto
          115 151 72 104 91 hvcurveto
          -7 -32 -65 callsubr
        </CharString>
        <CharString name="dvG_GA">
          471 563 253 callgsubr
          -381 hmoveto
          -96 callsubr
          336 -89 callsubr
          209 -90 callsubr
        </CharString>
        <CharString name="dvG_GHA">
          447 642 380 rmoveto
          -2 hlineto
          -54 -81 28 27 42 125 87 270 callsubr
          -13 -71 -17 -76 -17 -80 rrcurveto
          -100 -59 -122 -110 -151 hhcurveto
          -10 -5 4 8 45 71 71 51 39 hvcurveto
          20 16 25 16 13 104 callsubr
          -461 -215 rmoveto
          -96 callsubr
          272 hlineto
          -71 -34 -80 -70 -50 vvcurveto
          -41 65 -40 59 -9 vhcurveto
          -15 -12 -15 -14 -13 -11 rrcurveto
          -48 -43 -45 -64 -38 vvcurveto
          -31 22 -28 48 113 117 63 71 73 vhcurveto
          -22 -99 -21 -84 -17 -73 callsubr
        </CharString>
        <CharString name="dvG_JA">
          577 182 165 rmoveto
          -96 callsubr
          671 -63 callsubr
          -69 -87 -118 -119 -82 callsubr
        </CharString>
        <CharString name="dvG_LA">
          596 182 165 rmoveto
          -96 callsubr
          707 hlineto
          -58 callgsubr
          -123 -103 -102 -148 -95 callsubr
        </CharString>
        <CharString name="dvG_MA">
          512 673 -80 callsubr
          -354 14 rmoveto
          -96 callsubr
          301 58 callgsubr
          rrcurveto
          -112 -18 -98 -26 -62 -71 callsubr
        </CharString>
        <CharString name="dvG_NA">
          147 240 -37 -14 callsubr
          -40 222 -41 callsubr
          226 298 callgsubr
          318 callgsubr
          -43 callgsubr
          118 -106 callgsubr
          endchar
        </CharString>
        <CharString name="dvG_NNA">
          546 737 117 callsubr
          -393 -423 rmoveto
          -96 callsubr
          186 -19 callsubr
          204 -100 callsubr
          304 callsubr
        </CharString>
        <CharString name="dvG_N_YA">
          792 1227 -102 callgsubr
          -333 -352 rmoveto
          -70 -19 -45 -36 -50 -81 87 59 41 84 14 94 4 vhcurveto
          2 -19 6 -14 -57 vvcurveto
          -473 -71 rmoveto
          -96 callsubr
          498 hlineto
          -99 callgsubr
          -57 -24 -46 -31 -38 hvcurveto
          19 -36 -103 0 -72 -79 callsubr
          59 48 -2 35 hhcurveto
          18 hlineto
          -54 -52 -62 -31 -18 186 callsubr
          119 -106 callgsubr
          endchar
        </CharString>
        <CharString name="dvG_R">
          -103 484 181 156 callgsubr
          -284 4 -41 callsubr
          207 -107 callgsubr
        </CharString>
        <CharString name="dvG_RA">
          147 200 185 -41 callsubr
          226 298 callgsubr
          252 callgsubr
          -64 callsubr
          118 -106 callgsubr
          endchar
        </CharString>
        <CharString name="dvG_R_YA">
          484 919 -102 callgsubr
          -480 -403 -41 callsubr
          170 hlineto
          -99 callgsubr
          -143 -149 -76 -41 -38 hvcurveto
          -92 -64 -208 -199 -31 235 callsubr
          25 54 69 84 97 vhcurveto
          36 31 48 41 34 32 rrcurveto
          -9 11 13 -7 12 7 callsubr
          119 -106 callgsubr
          endchar
        </CharString>
        <CharString name="dvG_SA">
          581 1028 9 callgsubr
          -574 -423 rmoveto
          -96 callsubr
          233 -102 callsubr
          123 125 11 37 99 hvcurveto
          -27 -129 -33 -127 -105 callsubr
          118 -106 callgsubr
          endchar
        </CharString>
        <CharString name="dvG_VA">
          364 516 -52 callgsubr
          -334 43 rmoveto
          -96 callsubr
          492 116 callgsubr
        </CharString>
        <CharString name="dvG_YA">
          445 880 -102 callgsubr
          -459 -423 rmoveto
          -96 callsubr
          151 142 callsubr
          -166 -200 -75 -32 186 callsubr
          119 -106 callgsubr
          endchar
        </CharString>
        <CharString name="dvGx">
          -163 77 -32 callgsubr
          105 119 rmoveto
          -96 callsubr
          303 callsubr
        </CharString>
        <CharString name="dvGxA">
          117 77 -32 callgsubr
          142 119 -27 callgsubr
          -107 265 callgsubr
          213 -89 callsubr
          209 -90 callsubr
        </CharString>
        <CharString name="dvGx_R">
          -103 47 97 -78 callsubr
          437 84 156 callgsubr
          -284 4 -41 callsubr
          207 -107 callgsubr
        </CharString>
        <CharString name="dvGx_RA">
          147 47 97 -78 callsubr
          153 88 -41 callsubr
          226 298 callgsubr
          252 callgsubr
          -64 callsubr
          118 -106 callgsubr
          endchar
        </CharString>
        <CharString name="dvH">
          -29 22 -62 callsubr
          346 183 callgsubr
          -84 -24 -45 -71 -89 vvcurveto
          -127 97 -92 132 42 28 11 17 11 -13 5 -36 -116 -81 56 119 84 51 56 94 vhcurveto
          158 43 -60 30 hhcurveto
          14 8 4 18 35 -111 56 -144 hvcurveto
          -18 callgsubr
          134 -107 callgsubr
        </CharString>
        <CharString name="dvHA">
          -29 127 -62 callsubr
          241 183 callgsubr
          -84 -24 -45 -71 -89 -57 callgsubr
        </CharString>
        <CharString name="dvHA_mU">
          -29 208 -37 rmoveto
          302 callsubr
          37 14 -16 -23 -35 -46 -26 -114 hvcurveto
          -116 -58 58 -30 hhcurveto
          -12 -5 -3 -10 -30 108 -60 119 121 76 48 63 41 -33 34 -62 hvcurveto
          -181 127 callsubr
          341 54 callgsubr
        </CharString>
        <CharString name="dvHA_mUU">
          -29 296 -86 rmoveto
          32 -57 -37 21 -48 309 callgsubr
          314 callgsubr
          40 26 -20 -35 66 hvcurveto
          -32 60 74 -51 19 hhcurveto
          11 6 7 10 16 -100 61 -64 36 hvcurveto
          -271 722 -104 callsubr
          343 54 callgsubr
        </CharString>
        <CharString name="dvHA_mvR">
          -14 49 -62 callsubr
          349 104 callgsubr
          -35 18 -23 26 -18 hvcurveto
          -116 -24 -71 -87 -103 166 callgsubr
          16 17 -2 -3 19 vhcurveto
          28 -11 21 -12 -19 -52 -172 5 -103 vvcurveto
          -45 45 -32 66 76 45 37 29 11 -4 7 -11 vhcurveto
          -18 -11 -40 -73 hhcurveto
          -46 -23 14 21 hvcurveto
          68 174 -8 90 93 -188 -10 72 vvcurveto
          29 37 19 -27 callsubr
          137 -107 callgsubr
        </CharString>
        <CharString name="dvH_LA">
          46 48 -62 callsubr
          355 65 callgsubr
          101 78 78 107 12 13 -1 -2 14 vhcurveto
          41 -18 41 -18 28 -25 rrcurveto
          1 -6 -6 1 -6 hhcurveto
          -32 -32 -17 -25 -17 hvcurveto
          12 -15 -20 8 -22 hhcurveto
          -65 -32 -50 -45 -45 33 -39 49 14 7 6 9 hvcurveto
          18 -55 -6 57 vvcurveto
          25 14 23 37 vhcurveto
          55 -18 -58 32 hhcurveto
          10 10 7 10 hvcurveto
          8 -4 7 7 vvcurveto
          29 27 14 26 38 14 -23 -31 vhcurveto
          0 vlineto
          -3 -34 -8 -32 -13 vvcurveto
          -14 4 -10 12 24 16 87 41 vhcurveto
          158 -269 6 82 vvcurveto
          29 37 19 -27 callsubr
          147 -107 callgsubr
        </CharString>
        <CharString name="dvH_MA">
          228 433 431 rmoveto
          2 hlineto
          23 7 39 51 24 -4 24 -6 19 hvcurveto
          212 298 callgsubr
          -5 -24 -5 -25 -6 -23 -49 -12 -66 -11 -56 -10 rrcurveto
          -39 116 -149 -3 59 vvcurveto
          29 37 19 66 vhcurveto
          44 22 -3 26 hhcurveto
          -45 -269 rmoveto
          -72 -25 -50 -42 -32 -32 42 34 25 49 14 82 13 vhcurveto
          -331 468 -104 callsubr
          343 104 callgsubr
          -36 22 -21 30 -17 hvcurveto
          -121 -22 -74 -89 -105 166 callgsubr
          13 14 -1 -3 15 vhcurveto
          27 -15 23 -20 11 -30 rrcurveto
          -100 -16 -72 -18 -53 vvcurveto
          -45 50 -79 69 80 28 111 48 7 0 6 -1 6 vhcurveto
          56 8 48 8 48 8 rrcurveto
          -18 -81 -16 -66 -14 -73 callsubr
        </CharString>
        <CharString name="dvH_NA">
          46 326 88 rmoveto
          -24 -9 -21 -27 -33 -40 22 25 26 36 23 54 12 vhcurveto
          11 -13 8 -27 -23 vvcurveto
          -302 548 -104 callsubr
          379 65 callgsubr
          101 78 78 107 12 13 -1 -2 14 vhcurveto
          51 -22 52 -23 26 -36 rrcurveto
          4 -23 -26 3 -26 hhcurveto
          -93 -111 -37 -68 -51 64 -45 60 58 22 48 46 24 -7 25 -10 16 hvcurveto
          1 7 8 0 8 hhcurveto
          32 29 -4 -8 26 hvcurveto
          -4 0 -3 -3 -41 -12 -43 -16 vvcurveto
          -14 4 -10 12 24 16 87 41 vhcurveto
          158 -269 6 82 vvcurveto
          29 37 19 -27 callsubr
          142 -107 callgsubr
        </CharString>
</ttFont>
